<svg width="97" height="92" viewBox="0 0 97 92" fill="none" xmlns="http://www.w3.org/2000/svg">
<path d="M96.1281 45.7963C96.1281 70.9125 74.7071 91.2732 48.2828 91.2732C21.8584 91.2732 0.437438 70.9125 0.437438 45.7963C0.437438 20.68 21.8584 0.319336 48.2828 0.319336C74.7071 0.319336 96.1281 20.68 96.1281 45.7963ZM42.7485 69.8759L78.2467 36.135C79.452 34.9893 79.452 33.1315 78.2467 31.9858L73.8813 27.8365C72.676 26.6906 70.7214 26.6906 69.5158 27.8365L40.5658 55.3534L27.0497 42.5063C25.8443 41.3606 23.8897 41.3606 22.6842 42.5063L18.3189 46.6556C17.1135 47.8013 17.1135 49.659 18.3189 50.8048L38.383 69.8757C39.5886 71.0217 41.5429 71.0216 42.7485 69.8759Z" fill="#176B87"/>
</svg>
