<svg width="50" height="50" viewBox="0 0 50 50" fill="none" xmlns="http://www.w3.org/2000/svg">
<path d="M2.90963 48.1532C3.79634 49.1141 7.44869 47.4383 10.3315 46.0946C12.4917 45.0907 21.1362 41.5438 25.4331 39.7039C26.5932 39.2078 28.2807 38.5594 29.4956 36.9617C30.5737 35.5399 33.4331 29.5008 27.6752 23.3836C21.8315 17.1727 15.812 18.8875 13.562 20.4813C12.2378 21.4188 11.1596 23.5321 10.6753 24.6063C8.62838 29.1453 5.71041 37.4617 4.52291 40.7313C3.65181 43.1414 2.03072 47.2 2.90963 48.1532Z" fill="#FFC107"/>
<path d="M10.0977 25.9727C10.1523 26.6523 10.2891 27.7578 10.7578 29.8867C11.0781 31.3477 11.6016 32.8789 12.0273 33.8906C13.3047 36.9336 15.0977 38.1602 16.9141 39.1445C20 40.8164 22.0977 41.1289 22.0977 41.1289L19.582 42.1562C19.582 42.1562 18.0586 41.8398 15.9805 40.8164C14 39.8398 11.9375 38.1875 10.4297 34.9531C9.77734 33.5508 9.39844 32.1914 9.17969 31.1133C8.91016 29.7773 8.86719 29.0195 8.86719 29.0195L10.0977 25.9727ZM7.00781 33.8945C7.00781 33.8945 7.32031 36.4297 9.41406 39.6289C11.8672 43.3711 15.293 43.9844 15.293 43.9844L13.0156 44.9219C13.0156 44.9219 10.4727 44.1445 8.05469 40.8438C6.54688 38.7852 6.125 36.3242 6.125 36.3242L7.00781 33.8945ZM4.83984 39.9023C4.83984 39.9023 5.41016 42.0898 6.66016 43.7227C8.14844 45.6719 10.043 46.2383 10.043 46.2383L8.29687 47.0117C8.29687 47.0117 6.97266 46.7344 5.52344 44.8984C4.42187 43.5039 4.10938 41.9023 4.10938 41.9023L4.83984 39.9023Z" fill="#FF8F00"/>
<path opacity="0.44" d="M3.89015 45.457C3.81202 45.2812 3.81202 45.082 3.89405 44.9102L13.8433 24.2773L15.48 30.4297L5.01124 45.5508C4.72999 45.9727 4.09718 45.918 3.89015 45.457Z" fill="#FFFDE7"/>
<path d="M16.27 32.4969C20.9184 37.9344 26.2114 37.2547 27.9731 35.8797C29.7387 34.5008 31.1333 29.7625 26.5044 24.4149C21.6528 18.8133 16.1606 20.411 14.8911 21.6219C13.6216 22.8329 12.0044 27.5086 16.27 32.4969Z" fill="url(#paint0_linear_3851_8074)"/>
<path d="M32.2344 34.7344C30.5391 33.3125 29.6367 33.5664 28.4258 34.0703C26.8633 34.7188 24.4062 35.1992 21.0703 34.0703L22.0742 31.6523C24.0547 32.3203 25.4883 31.9961 26.7266 31.2656C28.3203 30.3281 30.5 29.043 33.8906 31.8906C35.3047 33.0781 36.7539 33.8672 37.8164 33.5078C38.5898 33.25 39 32.0977 39.207 31.1797C39.2266 31.0977 39.2578 30.8633 39.2812 30.6563C39.4688 29.2227 39.7812 26.1289 42.0859 24.5469C44.5508 22.8555 47.1406 22.8555 47.1406 22.8555L47.6094 27.5117C46.418 27.3359 45.5898 27.5781 44.8906 27.9648C42.2578 29.4297 44.5508 35.0547 40.4531 36.9453C36.5117 38.7773 33.2891 35.6172 32.2344 34.7344Z" fill="#03A9F4"/>
<path d="M17.7337 28.7969L16.0384 27.2773C19.1517 23.8008 18.3314 21.2461 17.7337 19.3867C17.6126 19.0117 17.4993 18.6563 17.4251 18.3164C17.1595 17.1133 17.1048 16.0664 17.1868 15.1523C15.9915 13.6641 15.4642 12.1055 15.429 12C14.7024 9.80078 15.2493 7.65625 16.5032 5.64453C19.0384 1.5625 23.6282 1.5625 23.6282 1.5625L25.1595 5.66016C23.9954 5.61328 20.179 5.67188 19.0071 7.51953C17.5267 9.84766 18.4993 11.2852 18.5696 11.4492C18.8548 11.0781 19.1439 10.7813 19.4017 10.5508C21.2728 8.89063 22.8978 8.65234 23.9329 8.74609C25.097 8.85156 26.1517 9.4375 26.9056 10.3984C27.7298 11.4531 28.0696 12.8242 27.8079 14.0703C27.554 15.2852 26.7454 16.3125 25.5306 16.9648C23.4095 18.1055 21.6439 17.9492 20.4603 17.5547C20.4681 17.582 20.472 17.6133 20.4798 17.6406C20.5228 17.8359 20.6087 18.1094 20.7103 18.4258C21.4017 20.5664 22.6868 23.9648 17.7337 28.7969ZM20.6048 14.1367C20.8314 14.3008 21.0696 14.4375 21.3157 14.5352C22.136 14.8633 23.0306 14.7539 24.0462 14.207C24.6439 13.8867 24.7142 13.543 24.7376 13.4297C24.8079 13.0898 24.6907 12.6563 24.4368 12.332C24.2142 12.0469 23.9564 11.8984 23.6478 11.8672C23.0618 11.8164 22.2689 12.1875 21.4759 12.8945C21.097 13.2344 20.8079 13.6523 20.6048 14.1367Z" fill="#F44336"/>
<path d="M24.5195 29.4336L22.0938 29.3672C22.0938 29.3672 23.2461 22.8594 26.9766 21.7656C27.6758 21.5625 28.4414 21.3555 29.2109 21.2422C29.668 21.1719 30.3906 21.0664 30.7461 20.9336C30.8281 20.3203 30.5703 19.5391 30.2812 18.6523C30.0547 17.9648 29.8203 17.2578 29.6953 16.4844C29.4531 14.9766 29.8555 13.6445 30.8281 12.7266C32.0156 11.6133 33.9336 11.2578 36.0977 11.75C37.332 12.0313 38.2422 12.6367 39.043 13.168C40.1875 13.9297 40.8555 14.3164 42.2539 13.375C43.9453 12.2344 41.7344 7.76953 40.5586 5.19141L44.9453 3.36328C45.5352 4.65234 48.3828 11.2852 46.5039 15.0703C45.8711 16.3438 44.7812 17.1875 43.3516 17.5039C40.2422 18.1992 38.4219 16.9883 37.0937 16.1055C36.4648 15.6875 35.9141 15.3594 35.3164 15.1875C31.1641 14.0039 36.9609 20.1133 34.2461 22.8594C32.6172 24.5039 28.6367 24.9375 28.3789 25C25.8164 25.6172 24.5195 29.4336 24.5195 29.4336Z" fill="#F48FB1"/>
<path d="M17.1836 15.1523C17.1094 16.0117 17.0743 16.5234 17.2969 17.6406C18.3711 18.4297 20.711 18.4297 20.711 18.4297C20.6094 18.1133 20.5196 17.8398 20.4805 17.6445C20.4727 17.6172 20.4688 17.5859 20.461 17.5586C18.0821 16.3711 17.1836 15.1523 17.1836 15.1523Z" fill="#C92B27"/>
<path d="M12.3164 19L8.27734 17.0195L10.2891 14.1133L13.457 16.2109L12.3164 19Z" fill="#FFC107"/>
<path d="M6.36328 13.5156C4.30078 13.2383 2.19922 11.4883 1.96875 11.2891L3.99609 8.91016C4.60938 9.42969 5.91016 10.3008 6.78125 10.418L6.36328 13.5156Z" fill="#FB8C00"/>
<path d="M10.0039 8.30859L7.03516 7.33594C7.375 6.29688 7.46484 5.17578 7.28906 4.09375L10.375 3.59766C10.6289 5.16797 10.5 6.79688 10.0039 8.30859Z" fill="#03A9F4"/>
<path d="M28.5449 5.98633L31.5977 5.31836L32.4793 9.34805L29.4266 10.016L28.5449 5.98633Z" fill="#FB8C00"/>
<path d="M36.1172 6.94141L33.9688 4.67187C35.0938 3.60547 35.3516 2.21094 35.3516 2.19531L38.4375 2.69922C38.3984 2.94531 38.0039 5.15625 36.1172 6.94141Z" fill="#FFC107"/>
<path d="M37.3105 18.9762L40.0398 18.123L40.9719 21.1059L38.2426 21.959L37.3105 18.9762Z" fill="#FB8C00"/>
<path d="M38.1055 44.1523L35 43.7852C35.1328 42.6797 34.3086 41.3242 34.082 41.0234L36.582 39.1484C36.7695 39.3945 38.3984 41.6484 38.1055 44.1523Z" fill="#F44336"/>
<path d="M47.0195 40.1909C45.8516 40.0151 44.6563 39.9448 43.4766 39.9878L43.3711 36.8628C44.7422 36.8159 46.1289 36.894 47.4844 37.101L47.0195 40.1909Z" fill="#FB8C00"/>
<path d="M42.8184 44.4934L45.0137 42.2695L48.0352 45.2531L45.8398 47.4766L42.8184 44.4934Z" fill="#F48FB1"/>
<path d="M36.3687 24.7402L38.6266 27.3219L36.0449 29.5797L33.7871 26.998L36.3687 24.7402Z" fill="#F44336"/>
<defs>
<linearGradient id="paint0_linear_3851_8074" x1="29.0567" y1="24.1567" x2="17.429" y2="31.1332" gradientUnits="userSpaceOnUse">
<stop offset="0.024" stop-color="#8F4700"/>
<stop offset="1" stop-color="#703E2D"/>
</linearGradient>
</defs>
</svg>
