<svg width="544" height="481" viewBox="0 0 544 481" fill="none" xmlns="http://www.w3.org/2000/svg">
<path d="M498.957 273.697C493.431 393.77 386.545 427.933 253.535 430.445C50.6909 434.465 27.0781 370.032 27.0781 249.833C27.0781 129.633 71.2893 5.54054 188.6 14.7093C244.366 19.1053 307.543 111.421 354.894 142.068C420.206 184.395 503.102 183.516 498.957 273.697Z" fill="#C5EBE9"/>
<path opacity="0.42" d="M23.9397 324.063C23.9397 324.063 66.1413 305.6 85.6093 245.563C105.077 185.401 140.245 134.784 206.939 131.393C273.632 128.002 345.853 132.147 369.717 96.3505C393.581 60.5545 342.587 59.6753 341.833 122.601C341.08 185.401 450.98 300.702 456.632 390.255C462.409 479.807 388.18 461.972 296.115 426.051C204.05 390.129 107.841 461.219 47.9293 434.591C-11.8563 407.839 -9.3443 350.942 23.9397 324.063Z" stroke="#44B4B4" stroke-miterlimit="10"/>
<path opacity="0.42" d="M32.983 254.353C46.3708 254.353 57.2238 243.5 57.2238 230.112C57.2238 216.724 46.3708 205.871 32.983 205.871C19.5952 205.871 8.74219 216.724 8.74219 230.112C8.74219 243.5 19.5952 254.353 32.983 254.353Z" fill="#44B4B4"/>
<path opacity="0.42" d="M32.9835 261.01C50.0478 261.01 63.8811 247.177 63.8811 230.112C63.8811 213.048 50.0478 199.215 32.9835 199.215C15.9193 199.215 2.08594 213.048 2.08594 230.112C2.08594 247.177 15.9193 261.01 32.9835 261.01Z" stroke="#44B4B4" stroke-miterlimit="10"/>
<path opacity="0.42" d="M493.057 273.696C508.664 273.696 521.317 261.043 521.317 245.436C521.317 229.828 508.664 217.176 493.057 217.176C477.449 217.176 464.797 229.828 464.797 245.436C464.797 261.043 477.449 273.696 493.057 273.696Z" fill="#44B4B4"/>
<path opacity="0.42" d="M295.74 169.199L288.078 181.382H304.406L295.74 169.199Z" stroke="#44B4B4" stroke-miterlimit="10"/>
<path opacity="0.42" d="M188.225 56.5352L177.926 72.612H199.655L188.225 56.5352Z" fill="#44B4B4"/>
<path opacity="0.42" d="M264.59 89.1883C280.891 89.1883 294.106 75.9735 294.106 59.6723C294.106 43.371 280.891 30.1562 264.59 30.1562C248.289 30.1562 235.074 43.371 235.074 59.6723C235.074 75.9735 248.289 89.1883 264.59 89.1883Z" fill="#44B4B4"/>
<path d="M263.962 56.028L262.329 52.888C261.324 50.8784 262.078 48.3664 264.087 47.236C265.469 46.4824 265.971 44.8496 265.343 43.468L262.831 38.6952C262.078 37.3136 260.445 36.8112 259.063 37.4392L256.928 38.5696C254.919 39.5744 253.286 41.3328 252.155 43.3424L251.527 44.5984C250.397 46.7336 250.397 49.2456 251.527 51.2552L256.175 60.1728L259.315 66.076L263.962 74.9936C265.092 77.1288 267.102 78.5104 269.488 78.8872L270.87 79.0128C273.131 79.264 275.517 78.8872 277.527 77.8824L279.662 76.752C281.043 75.9984 281.546 74.3656 280.918 72.984L278.406 68.2112C277.652 66.8296 276.019 66.3272 274.638 66.9552C272.628 67.96 270.116 67.2064 268.986 65.1968L267.353 62.0568L263.962 56.028Z" fill="white"/>
<path opacity="0.42" d="M473.963 398.164C477.362 398.164 480.117 395.409 480.117 392.01C480.117 388.611 477.362 385.855 473.963 385.855C470.564 385.855 467.809 388.611 467.809 392.01C467.809 395.409 470.564 398.164 473.963 398.164Z" stroke="#44B4B4" stroke-miterlimit="10"/>
<path opacity="0.42" d="M115.378 69.4713C121.621 69.4713 126.682 64.4103 126.682 58.1673C126.682 51.9243 121.621 46.8633 115.378 46.8633C109.135 46.8633 104.074 51.9243 104.074 58.1673C104.074 64.4103 109.135 69.4713 115.378 69.4713Z" fill="white"/>
<path opacity="0.42" d="M423.222 226.092C429.465 226.092 434.526 221.031 434.526 214.788C434.526 208.545 429.465 203.484 423.222 203.484C416.979 203.484 411.918 208.545 411.918 214.788C411.918 221.031 416.979 226.092 423.222 226.092Z" stroke="#44B4B4" stroke-miterlimit="10"/>
<path opacity="0.42" d="M68.1505 290.402C74.2547 290.402 79.2033 285.454 79.2033 279.35C79.2033 273.245 74.2547 268.297 68.1505 268.297C62.0462 268.297 57.0977 273.245 57.0977 279.35C57.0977 285.454 62.0462 290.402 68.1505 290.402Z" fill="#44B4B4"/>
<path opacity="0.42" d="M493.054 264.905C503.806 264.905 512.522 256.189 512.522 245.437C512.522 234.685 503.806 225.969 493.054 225.969C482.302 225.969 473.586 234.685 473.586 245.437C473.586 256.189 482.302 264.905 493.054 264.905Z" stroke="white" stroke-miterlimit="10"/>
<path opacity="0.42" d="M476.602 60.8047H341.456C335.678 60.8047 331.031 65.4519 331.031 71.2295V152.869C331.031 158.647 335.678 163.294 341.456 163.294H427.618V183.893C427.618 187.284 431.637 189.168 434.274 187.033L462.409 163.42H476.602C482.379 163.42 487.026 158.773 487.026 152.995V71.3551C487.026 65.4519 482.379 60.8047 476.602 60.8047Z" fill="#44B4B4"/>
<path d="M510.764 70.9807C510.764 83.1639 507.247 94.5935 501.219 104.139C500.214 105.646 499.209 107.154 498.079 108.661C487.026 123.105 469.819 132.525 450.351 132.525C440.428 132.525 431.008 130.013 422.719 125.742C403.251 115.569 390.062 94.9703 390.062 71.1063C390.062 68.3431 390.188 65.5799 390.565 62.9423C394.458 32.9239 419.83 9.68793 450.351 9.68793C483.76 9.56233 510.764 37.0687 510.764 70.9807Z" fill="#02607E"/>
<path d="M498.079 108.535C487.026 122.979 469.819 132.399 450.351 132.399C440.428 132.399 431.008 130.012 422.719 125.616C423.849 122.728 427.366 115.317 433.395 111.047C441.056 105.772 464.292 102.632 480.495 104.013C490.166 104.892 495.441 107.028 498.079 108.535Z" fill="#C6606C"/>
<path d="M423.223 39.8331L423.851 69.8515C423.851 69.8515 424.855 100.498 449.724 99.9955C474.593 99.4931 479.868 61.5619 479.868 61.5619L475.975 38.5771C475.975 38.5771 446.835 19.1091 423.223 39.8331Z" fill="white"/>
<path d="M449.975 92.7109C449.975 92.7109 451.859 104.266 448.97 108.034C446.207 111.802 454.497 124.99 454.497 124.99L473.839 107.28C473.839 107.28 472.583 94.3437 472.96 82.9141L449.975 92.7109Z" fill="white"/>
<path d="M423.346 46.7415C423.346 46.7415 430.505 49.0023 438.167 48.3743C445.828 47.7463 448.592 44.6063 448.592 44.6063C448.592 44.6063 451.104 45.7367 455.374 45.7367C459.519 45.7367 462.659 43.7271 462.659 43.7271C462.659 43.7271 459.77 48.6255 461.026 54.7799C462.282 60.9343 466.301 62.5671 466.301 62.5671C466.301 62.5671 468.813 56.4127 473.335 56.4127C477.856 56.4127 479.364 61.1855 478.233 67.3399C477.103 73.4943 469.944 75.0015 469.944 75.0015L472.958 83.1655C472.958 83.1655 484.513 70.8567 485.769 57.2919C487.151 43.7271 480.243 39.7079 480.243 39.7079C480.243 39.7079 480.871 29.6599 467.306 26.1431C453.741 22.6263 444.949 22.8775 434.901 28.6551C434.901 28.6551 426.36 22.2495 419.327 26.1431C412.168 30.0367 414.177 38.4519 417.694 40.5871C417.694 40.5871 410.786 42.3455 412.293 50.7607C413.8 59.3015 423.723 58.5479 423.723 58.5479L423.346 46.7415Z" fill="#04364A"/>
<path d="M449.723 99.8701C449.723 99.8701 467.809 95.0973 469.693 82.9141C469.693 82.9141 474.215 100.498 449.723 106.401C449.723 106.527 450.476 101.377 449.723 99.8701Z" fill="#D9D9D9"/>
<path opacity="0.42" d="M515.162 57.4145C530.77 57.4145 543.422 44.7621 543.422 29.1545C543.422 13.547 530.77 0.894531 515.162 0.894531C499.555 0.894531 486.902 13.547 486.902 29.1545C486.902 44.7621 499.555 57.4145 515.162 57.4145Z" fill="#44B4B4"/>
<path d="M512.022 36.8147L511.897 35.5587C511.645 32.7955 512.525 29.9067 515.037 26.7667C517.297 24.1291 518.553 22.1195 518.553 19.8587C518.553 17.3467 516.921 15.5883 513.781 15.4627C512.022 15.4627 509.887 16.0907 508.631 16.9699L507.375 13.8299C509.008 12.5739 511.897 11.8203 514.534 11.8203C520.312 11.8203 522.949 15.4627 522.949 19.2307C522.949 22.6219 521.065 25.1339 518.553 28.0227C516.293 30.6603 515.539 32.9211 515.665 35.4331V36.6891H512.022V36.8147ZM510.892 43.8483C510.892 41.9643 512.148 40.7083 513.906 40.7083C515.665 40.7083 516.921 41.9643 516.921 43.8483C516.921 45.6067 515.79 46.9883 513.906 46.9883C512.148 46.9883 510.892 45.6067 510.892 43.8483Z" fill="white"/>
<path d="M467.184 360.863C467.059 361.114 466.933 361.365 466.807 361.616C464.421 365.007 461.909 368.399 459.271 371.664C373.11 477.545 151.426 477.545 151.426 477.545V351.191H466.933C466.933 351.191 468.063 357.974 467.184 360.863Z" fill="#44B4B4"/>
<path d="M467.184 360.863C467.059 361.114 466.933 361.366 466.807 361.617C464.421 365.008 461.909 368.399 459.271 371.665L151.426 406.707V360.863H467.184Z" fill="#44B4B4"/>
<path d="M296.241 261.64L280.918 277.843C280.918 277.843 277.778 274.577 274.01 269.679C272.252 267.292 270.368 264.529 268.484 261.64C266.097 257.747 264.088 253.476 262.832 249.206C258.812 234.762 260.445 204.492 260.445 204.492C260.445 204.492 266.976 205.246 269.112 207.632C281.923 221.574 296.241 261.64 296.241 261.64Z" fill="#F75842"/>
<path d="M238.843 314.516H129.571L119.648 230.489C118.518 220.818 125.175 212.152 134.595 210.896L141.126 210.016L224.65 199.215L238.843 314.516Z" fill="#44B4B4"/>
<path d="M212.214 201.981C212.214 201.981 176.669 213.411 174.785 216.3C172.901 219.189 189.606 271.313 189.606 271.313L186.34 314.393H258.686L262.328 273.197C262.328 273.197 270.115 264.656 270.618 250.589C271.12 236.521 260.695 204.242 260.695 204.242L235.45 200.977L212.214 201.981Z" fill="#F75842"/>
<path d="M222.389 120.97C222.389 120.97 197.646 110.294 180.062 135.163C162.478 160.031 180.69 199.093 180.69 199.093C180.69 199.093 225.529 193.19 237.963 192.059C250.398 190.803 252.91 190.803 252.91 190.803C252.91 190.803 259.315 151.491 245.625 137.047C231.935 122.728 222.389 120.97 222.389 120.97Z" fill="#04364A"/>
<path d="M231.557 218.057L210.582 203.739C210.582 203.739 212.34 198.213 211.838 192.812C211.712 191.556 211.587 190.425 211.21 189.169C211.084 188.541 210.833 188.039 210.582 187.411L231.557 186.406C231.557 186.406 231.683 188.039 232.06 190.3C232.436 192.058 232.813 194.068 233.567 195.701C234.069 196.957 234.697 198.087 235.451 198.966C238.716 202.232 231.557 218.057 231.557 218.057Z" fill="white"/>
<path d="M233.567 195.7C230.93 195.825 219.374 195.951 211.964 192.685C211.838 191.429 211.713 190.299 211.336 189.043C211.336 189.043 225.403 190.801 232.186 190.173C232.437 191.932 232.939 193.941 233.567 195.7Z" fill="#D9D9D9"/>
<path d="M243.364 130.515L246.881 159.403C246.881 159.403 251.403 189.17 227.413 192.059C203.423 194.948 195.385 167.065 195.385 167.065L192.496 136.418C192.622 136.418 217.867 113.81 243.364 130.515Z" fill="white"/>
<path d="M232.438 132.649C232.438 132.649 229.298 140.311 218.999 145.837C209.83 150.735 201.289 151.991 201.289 151.991C201.289 151.991 199.907 160.155 195.26 165.179C195.26 165.179 187.222 149.982 190.487 136.919C193.753 123.857 210.709 117.451 225.53 118.833C240.351 120.215 245.751 125.615 247.635 134.282C249.519 142.948 246.254 154.629 246.254 154.629C246.254 154.629 243.114 135.412 232.438 132.649Z" fill="#04364A"/>
<path d="M192.621 158.899C192.621 158.899 189.732 136.919 206.688 125.364C217.741 117.828 231.557 119.837 231.557 119.837C231.557 119.837 222.765 113.306 205.558 120.842C188.351 128.504 187.472 145.585 189.23 159.025H192.621V158.899Z" fill="#02607E"/>
<path d="M154.565 314.519H129.696L119.773 230.492C118.643 220.821 125.3 212.155 134.72 210.899L141.251 210.02L154.565 314.519Z" fill="#02607E"/>
<path d="M215.984 186.657C204.554 186.657 196.014 178.744 195.637 178.367L197.144 176.734C197.27 176.86 206.564 185.526 218.119 184.396L218.37 186.657C217.617 186.531 216.738 186.657 215.984 186.657Z" fill="#02607E"/>
<path d="M499.463 361.616H156.575C147.406 361.616 138.614 357.848 132.585 351.192L113.745 330.719C106.46 322.806 112.238 310.246 123.291 310.246H457.889C469.444 310.246 480.623 314.642 488.912 322.304L508.255 340.39C516.544 348.177 510.892 361.616 499.463 361.616Z" fill="#02607E"/>
<path d="M343.09 209.265C342.462 209.642 341.457 210.144 340.453 210.772L340.201 210.395C343.341 208.386 347.989 205.246 347.612 204.492C347.109 203.362 344.723 203.99 343.09 204.869C342.085 205.371 340.201 206.502 338.443 207.632L338.317 207.381C341.457 205.371 346.607 201.98 346.23 201.227C345.728 200.096 343.341 200.724 341.709 201.603C340.578 202.231 338.443 203.487 336.559 204.618L336.433 204.367C339.573 202.357 343.593 199.594 343.216 198.84C342.713 197.71 340.327 198.338 338.694 199.217C336.308 200.473 329.525 204.743 329.525 204.743L324.501 206.502C325.632 204.743 328.646 198.338 327.139 198.338C325.632 198.338 321.864 202.859 320.231 207.507C318.975 211.023 318.849 214.038 318.849 215.419L275.141 270.935C275.141 270.935 276.145 272.567 277.778 274.703C282.3 280.983 292.85 282.364 299.005 277.591C303.777 273.823 307.671 268.799 311.313 263.775C318.347 254.23 328.772 228.859 331.284 222.704L341.206 213.41C343.969 211.651 347.361 209.265 347.109 208.637C346.733 207.883 344.597 208.511 343.09 209.265Z" fill="white"/>
<path d="M228.04 323.813C228.04 323.813 233.189 327.581 235.199 332.731C237.208 337.88 224.272 341.146 202.794 333.861C187.094 328.46 213.596 312.132 228.04 323.813Z" fill="#04364A"/>
<path d="M220.003 188.038H217.114C216.11 188.038 215.23 187.159 215.23 186.154V184.396C215.23 183.391 216.11 182.512 217.114 182.512H220.003C221.008 182.512 221.887 183.391 221.887 184.396V185.275V186.154C221.762 187.159 221.008 188.038 220.003 188.038Z" fill="#04364A"/>
<path d="M204.929 165.429C206.562 173.467 202.417 181.003 195.635 182.385C188.852 183.767 182.195 178.491 180.563 170.453C178.93 162.415 183.075 154.879 189.857 153.497C196.514 152.115 203.296 157.391 204.929 165.429Z" fill="#44B4B4"/>
<path d="M198.15 166.813C199.155 171.586 196.643 175.982 192.624 176.861C188.604 177.74 184.711 174.475 183.706 169.828C182.701 165.055 185.213 160.659 189.232 159.78C193.252 159.026 197.145 162.166 198.15 166.813Z" fill="#02607E"/>
<path d="M180.565 213.156C180.565 213.156 174.411 214.035 172.024 218.055C161.348 235.011 140.75 286.632 140.75 286.632L160.72 295.424C160.72 295.424 186.971 265.029 189.357 250.585C191.618 236.141 180.565 213.156 180.565 213.156Z" fill="#F75842"/>
<path d="M158.708 291.155L199.654 317.782L193.876 330.594C193.876 330.594 157.075 317.406 145.771 308.739C134.467 300.198 140.747 286.634 140.747 286.634C140.747 286.634 146.902 286.006 158.708 291.155Z" fill="white"/>
<path d="M198.525 317.28C198.525 317.28 212.341 316.652 217.365 316.652C222.389 316.652 231.056 324.816 230.051 327.454C229.046 330.092 219.124 322.053 219.124 322.053L218.621 323.058C218.621 323.058 227.413 328.459 227.916 330.468C228.418 332.478 226.408 332.227 223.52 330.971C220.631 329.715 216.235 326.952 216.235 326.952L215.732 327.58C215.732 327.58 224.022 332.729 224.022 334.613C224.022 336.497 217.993 334.362 213.597 331.473L213.095 332.352C213.095 332.352 218.496 335.116 218.998 336.874C219.375 338.632 216.486 337.879 213.095 336.372C209.829 334.864 206.815 334.613 202.544 333.985C198.274 333.357 193.25 330.217 193.25 330.217L198.525 317.28Z" fill="white"/>
<path d="M452.238 242.674L432.644 341.144H287.199L306.667 243.302C307.044 241.292 308.928 239.785 310.938 239.785H449.851C451.358 239.66 452.614 241.041 452.238 242.674Z" fill="#44B4B4"/>
<path d="M287.198 341.144L247.258 328.208C245.876 327.705 244.871 326.449 244.871 324.942C244.871 323.058 246.378 321.551 248.262 321.551H291.092L287.198 341.144Z" fill="#04364A"/>
<path d="M182.324 217.176C182.324 217.176 191.242 242.421 185.841 259.88C185.841 259.88 204.179 239.533 182.324 217.176Z" fill="#C6606C"/>
<path d="M274.136 269.676C272.377 267.29 270.493 264.527 268.609 261.638C272.252 247.068 263.711 214.789 263.711 214.789C282.551 238.779 277.276 261.135 274.136 269.676Z" fill="#C6606C"/>
<path d="M315.458 245.438L432.642 341.145H299.004L315.458 245.438Z" fill="#02607E"/>
<path d="M381.4 307.233C387.851 307.233 393.08 302.003 393.08 295.552C393.08 289.101 387.851 283.871 381.4 283.871C374.948 283.871 369.719 289.101 369.719 295.552C369.719 302.003 374.948 307.233 381.4 307.233Z" fill="#C5EBE9"/>
<path d="M211.84 197.961L231.559 218.057C231.559 218.057 228.168 222.955 222.39 222.83C216.738 222.704 213.473 215.419 211.84 211.651C210.207 207.883 206.941 203.739 206.941 203.739L211.84 197.961Z" fill="#C6606C"/>
<path d="M231.559 218.058C231.559 218.058 236.708 221.198 241.607 219.062C246.631 216.927 245.249 213.662 243.491 210.145C241.732 206.628 239.848 200.474 239.848 200.474L234.196 197.208C234.196 197.082 235.201 210.396 231.559 218.058Z" fill="#C6606C"/>
<path d="M262.078 256.867L212.215 261.64C212.215 261.64 223.393 269.678 240.6 267.166C257.808 264.906 262.078 256.867 262.078 256.867Z" fill="#C6606C"/>
<path opacity="0.42" d="M150.671 94.8438H60.6162C54.8386 94.8438 50.1914 99.491 50.1914 105.269V129.133C50.1914 134.91 54.8386 139.557 60.6162 139.557H136.479L161.096 153.75V139.557V132.649V105.269C161.096 99.491 156.449 94.8438 150.671 94.8438Z" fill="#44B4B4"/>
<path d="M57.2266 105.645H151.05" stroke="white" stroke-miterlimit="10" stroke-linecap="round" stroke-linejoin="round"/>
<path d="M57.2266 117.199H151.05" stroke="white" stroke-miterlimit="10" stroke-linecap="round" stroke-linejoin="round"/>
<path d="M57.2266 128.629H151.05" stroke="white" stroke-miterlimit="10" stroke-linecap="round" stroke-linejoin="round"/>
<path d="M155.947 372.547C158.333 353.079 142.884 355.968 132.459 366.267C121.909 376.566 111.61 370.789 123.291 351.572C134.972 332.355 143.512 326.452 141.879 316.781C140.247 307.11 131.832 311.38 117.262 319.418C102.692 327.457 116.508 306.482 115.378 286.511C114.248 266.541 94.5283 276.589 92.7699 293.294C91.1371 310.124 98.5475 328.838 89.0019 325.07C79.4563 321.302 73.5531 299.197 64.7611 309.622C55.9691 320.046 89.3787 355.842 88.2483 366.518C87.1179 377.32 63.1283 344.538 56.2203 355.34C49.3123 366.142 79.2051 438.236 104.953 436.226C137.86 433.714 153.56 392.015 155.947 372.547Z" fill="#C6606C"/>
<path d="M102.69 295.68C102.69 295.68 98.545 318.288 100.178 346.799C101.811 375.436 105.579 447.404 105.579 447.404" stroke="#AA4451" stroke-miterlimit="10"/>
<path d="M74.6836 324.066C74.6836 324.066 93.6492 346.549 100.557 351.573C100.557 351.573 125.049 327.96 129.696 324.066" stroke="#AA4451" stroke-miterlimit="10"/>
<path d="M63.5039 369.031C63.5039 369.031 92.0151 397.668 103.194 399.678L145.144 371.543" stroke="#AA4451" stroke-miterlimit="10"/>
<path d="M93.773 425.174C93.773 425.174 106.082 397.793 99.425 383.224C92.7682 368.529 83.2226 377.195 80.2082 388.876C77.1938 400.557 67.5226 400.933 67.5226 382.47C67.5226 364.007 71.0394 356.22 65.7642 350.065C60.489 343.911 56.3442 350.568 49.5618 362.374C42.7794 374.181 43.533 353.582 34.2386 340.143C24.9442 326.578 15.273 342.027 21.3018 354.587C27.3306 367.021 40.5186 377.069 32.229 378.577C23.9394 380.084 10.3746 366.896 8.7418 377.949C7.109 389.001 45.6682 399.803 49.5618 407.841C53.3298 415.88 22.5578 403.069 22.3066 413.619C22.0554 424.169 57.977 442.633 74.1794 439.869C90.3818 437.106 93.773 425.174 93.773 425.174Z" fill="#F75842"/>
<path d="M28.7109 348.305C28.7109 348.305 75.6853 423.916 85.6077 447.403" stroke="#AA4451" stroke-miterlimit="10"/>
<path d="M21.0508 384.229L54.0836 390.132L60.866 361.621" stroke="#AA4451" stroke-miterlimit="10"/>
<path d="M38.5078 418.139L73.8014 424.294L88.371 392.266" stroke="#AA4451" stroke-miterlimit="10"/>
<path d="M72.7969 447.406H132.582L127.433 477.55H79.0769L72.7969 447.406Z" fill="#02607E"/>
<path d="M133.336 455.694H72.6715C70.4107 455.694 68.6523 453.936 68.6523 451.675V448.535C68.6523 446.274 70.4107 444.516 72.6715 444.516H133.336C135.597 444.516 137.356 446.274 137.356 448.535V451.675C137.356 453.936 135.597 455.694 133.336 455.694Z" fill="#44B4B4"/>
<path opacity="0.42" d="M349.37 480.814C372.261 480.814 390.818 462.257 390.818 439.366C390.818 416.475 372.261 397.918 349.37 397.918C326.479 397.918 307.922 416.475 307.922 439.366C307.922 462.257 326.479 480.814 349.37 480.814Z" fill="#44B4B4"/>
<path d="M375.496 424.043H323.372C321.99 424.043 320.734 425.173 320.734 426.681V455.443C320.734 456.825 321.865 458.081 323.372 458.081H375.496C376.878 458.081 378.134 456.95 378.134 455.443V426.681C378.008 425.173 376.878 424.043 375.496 424.043ZM376.25 428.188L351.758 444.265C351.506 444.39 351.255 444.516 351.13 444.516C350.878 444.516 350.753 444.516 350.502 444.39L321.99 428.313C321.362 427.937 321.111 427.183 321.488 426.555C321.865 425.927 322.618 425.676 323.246 426.053L351.13 441.753L374.994 426.178C375.622 425.801 376.375 425.927 376.752 426.555C377.003 427.057 376.878 427.811 376.25 428.188Z" fill="white"/>
<path d="M381.397 434.846C389.86 434.846 396.721 427.985 396.721 419.522C396.721 411.06 389.86 404.199 381.397 404.199C372.935 404.199 366.074 411.06 366.074 419.522C366.074 427.985 372.935 434.846 381.397 434.846Z" fill="#C6606C"/>
</svg>
