<svg width="374" height="348" viewBox="0 0 374 348" fill="none" xmlns="http://www.w3.org/2000/svg">
<path d="M344.296 51.5612C346.913 30.0766 331.607 10.54 310.11 7.92485C288.613 5.30972 269.065 20.6064 266.449 42.091C263.832 63.5755 279.138 83.1122 300.635 85.7273C322.131 88.3424 341.679 73.0458 344.296 51.5612Z" fill="#EBEBEB"/>
<path d="M307.174 85.0908C327.841 85.0908 344.595 68.3468 344.595 47.6919C344.595 27.037 327.841 10.293 307.174 10.293C286.508 10.293 269.754 27.037 269.754 47.6919C269.754 68.3468 286.508 85.0908 307.174 85.0908Z" fill="#DBDBDB"/>
<path d="M307.176 82.7295C326.538 82.7295 342.235 67.0422 342.235 47.6909C342.235 28.3397 326.538 12.6523 307.176 12.6523C287.814 12.6523 272.117 28.3397 272.117 47.6909C272.117 67.0422 287.814 82.7295 307.176 82.7295Z" fill="white"/>
<path opacity="0.5" d="M341.427 40.2614C325.467 49.9243 299.232 65.8246 284.568 74.4734C280.42 70.983 277.14 66.5786 274.984 61.6066L323.489 16.6836C328.019 19.067 331.973 22.4127 335.072 26.4859C338.171 30.5592 340.34 35.261 341.427 40.2614Z" fill="#EBEBEB"/>
<path opacity="0.5" d="M342.174 48.918C342.052 52.8157 341.271 56.6647 339.864 60.3021L296.134 80.9657C294.226 80.3401 292.378 79.5474 290.609 78.5968C303.85 70.9705 327.987 57.0897 342.174 48.918Z" fill="#EBEBEB"/>
<path d="M307.506 15.2031H306.832V20.5117H307.506V15.2031Z" fill="#C7C7C7"/>
<path d="M291.204 19.3701L290.613 19.7109L293.269 24.3083L293.86 23.9675L291.204 19.3701Z" fill="#C7C7C7"/>
<path d="M279.169 31.1475L278.832 31.7305L283.432 34.3848L283.769 33.8018L279.169 31.1475Z" fill="#C7C7C7"/>
<path d="M279.976 47.3594H274.664V48.0325H279.976V47.3594Z" fill="#C7C7C7"/>
<path d="M283.456 61.0098L278.855 63.6641L279.192 64.247L283.792 61.5927L283.456 61.0098Z" fill="#C7C7C7"/>
<path d="M293.294 71.0848L290.641 75.6836L291.231 76.0241L293.885 71.4253L293.294 71.0848Z" fill="#C7C7C7"/>
<path d="M307.506 74.875H306.832V80.1836H307.506V74.875Z" fill="#C7C7C7"/>
<path d="M321.063 71.0615L320.473 71.4023L323.128 75.9997L323.719 75.6589L321.063 71.0615Z" fill="#C7C7C7"/>
<path d="M330.876 60.9834L330.539 61.5664L335.139 64.2207L335.476 63.6377L330.876 60.9834Z" fill="#C7C7C7"/>
<path d="M339.683 47.3594H334.371V48.0325H339.683V47.3594Z" fill="#C7C7C7"/>
<path d="M336.617 31.4785L331.996 34.1328L332.333 34.7185L336.954 32.0642L336.617 31.4785Z" fill="#C7C7C7"/>
<path d="M323.134 19.3934L320.48 23.9922L321.071 24.3327L323.725 19.7339L323.134 19.3934Z" fill="#C7C7C7"/>
<path d="M307.682 17.6062L308.833 50.0629L305.508 50.0203L306.778 17.5977L307.682 17.6062Z" fill="#C7C7C7"/>
<path d="M327.907 36.3745L306.055 50.3149L304.469 47.3922L327.472 35.582L327.907 36.3745Z" fill="#A6A6A6"/>
<path d="M307.173 48.8252C307.799 48.8252 308.307 48.3178 308.307 47.6919C308.307 47.066 307.799 46.5586 307.173 46.5586C306.547 46.5586 306.039 47.066 306.039 47.6919C306.039 48.3178 306.547 48.8252 307.173 48.8252Z" fill="#C7C7C7"/>
<path d="M213.057 229.564H19.2188V0.910156H213.057V229.564ZM23.8739 224.903H208.393V5.53709H23.8739V224.903Z" fill="#EBEBEB"/>
<path d="M116.652 6.78125H111.988V227.23H116.652V6.78125Z" fill="#EBEBEB"/>
<path d="M217.284 10.3281H14.9883V16.8127H217.284V10.3281Z" fill="#EBEBEB"/>
<path d="M217.284 17.6289H14.9883V24.1134H217.284V17.6289Z" fill="#EBEBEB"/>
<path d="M217.284 24.9258H14.9883V31.4103H217.284V24.9258Z" fill="#EBEBEB"/>
<path d="M217.284 32.2266H14.9883V38.7111H217.284V32.2266Z" fill="#EBEBEB"/>
<path d="M217.284 39.5195H14.9883V46.0041H217.284V39.5195Z" fill="#EBEBEB"/>
<path d="M217.284 46.8242H14.9883V53.3087H217.284V46.8242Z" fill="#EBEBEB"/>
<path d="M217.284 54.1172H14.9883V60.6017H217.284V54.1172Z" fill="#EBEBEB"/>
<path d="M217.284 61.418H14.9883V67.9025H217.284V61.418Z" fill="#EBEBEB"/>
<path d="M217.284 68.7227H14.9883V75.2072H217.284V68.7227Z" fill="#EBEBEB"/>
<path d="M203.434 9.01562H202.266V135.264H203.434V9.01562Z" fill="#263238"/>
<path d="M204.92 140.681H200.785L201.825 134.742H203.889L204.92 140.681Z" fill="#263238"/>
<path d="M207.645 9.01562H206.477V202.052H207.645V9.01562Z" fill="#263238"/>
<path d="M209.116 206.416H204.98L206.021 200.477H208.084L209.116 206.416Z" fill="#263238"/>
<path d="M224.522 0H7.75781V13.5741H224.522V0Z" fill="#DBDBDB"/>
<path d="M339.287 228.145H284.508V280.754H339.287V228.145Z" fill="#EBEBEB"/>
<path d="M360.109 228.145H339.289V280.754H360.109V228.145Z" fill="#C7C7C7"/>
<path d="M284.508 254.449H339.287L296.504 255.804L284.508 254.449Z" fill="#C7C7C7"/>
<path d="M339.287 274.395H284.508L327.291 275.749L339.287 274.395Z" fill="#C7C7C7"/>
<path d="M284.508 239.75H319.209L288.362 240.849L284.508 239.75Z" fill="#C7C7C7"/>
<path d="M339.29 266.648H304.598L335.436 267.756L339.29 266.648Z" fill="#C7C7C7"/>
<path d="M297.656 233.887H336.79L330.268 234.551L297.656 233.887Z" fill="#C7C7C7"/>
<path d="M289.84 260.09H328.974L322.452 260.754L289.84 260.09Z" fill="#C7C7C7"/>
<path d="M313.91 244.75H339.292L343.828 246.522L313.91 244.75Z" fill="#EBEBEB"/>
<path d="M277.52 244.75H302.91L307.446 246.522L277.52 244.75Z" fill="#EBEBEB"/>
<path d="M310.098 268.395H284.708L280.172 270.167L310.098 268.395Z" fill="#EBEBEB"/>
<path d="M339.289 262.398H359.683L364.219 264.162L339.289 262.398Z" fill="#C7C7C7"/>
<path d="M346.41 254.448H362.217L360.111 253.008L346.41 254.448Z" fill="#C7C7C7"/>
<path d="M0 280.532L46.7479 280.327L93.5043 280.25L187 280.105L280.496 280.25L327.252 280.327L374 280.532L327.252 280.745L280.496 280.821L187 280.958L93.5043 280.813L46.7479 280.745L0 280.532Z" fill="#263238"/>
<path d="M186.999 346.389C279.568 346.389 354.611 333.227 354.611 316.991C354.611 300.756 279.568 287.594 186.999 287.594C94.4291 287.594 19.3867 300.756 19.3867 316.991C19.3867 333.227 94.4291 346.389 186.999 346.389Z" fill="#EBEBEB"/>
<path d="M238.1 134.863C236.591 131.642 227.017 106.122 215.694 95.4022C209.726 89.7187 191.463 75.9657 187.558 79.2122C183.986 82.1434 188.053 87.1368 188.053 87.1368C188.053 87.1368 179.834 81.1209 174.914 85.2536C169.995 89.3863 177.302 97.4643 177.302 97.4643C177.302 97.4643 168.409 91.9086 163.797 96.3821C159.184 100.856 167.898 107.741 167.898 107.741C167.898 107.741 160.002 102.279 157.752 107.562C155.049 113.918 170.745 122.346 176.159 129.717C177.395 131.421 198.693 165.36 198.693 165.36L238.1 134.863Z" fill="#EB9481"/>
<path d="M167.816 108.075C179.344 114.304 183.308 119.016 189.626 130.23C189.754 130.451 190.103 130.315 189.993 130.076C184.809 118.505 180.691 111.875 168.089 107.478C167.475 107.291 167.271 107.794 167.816 108.075Z" fill="#263238"/>
<path d="M177.179 97.7961C188.587 105.303 192.927 110.382 200.413 121.655C200.515 121.817 200.796 121.655 200.702 121.485C194.291 109.802 190.028 103.284 177.682 97.2678C177.086 97.0036 176.659 97.4467 177.179 97.7961Z" fill="#263238"/>
<path d="M188.395 87.6575C198.907 95.7269 203.912 101.095 209.77 112.974C209.8 113.024 209.848 113.063 209.904 113.081C209.96 113.1 210.022 113.098 210.076 113.075C210.131 113.052 210.176 113.01 210.203 112.957C210.229 112.904 210.236 112.844 210.221 112.786C205.43 100.124 199.231 93.3495 188.71 87.3422C187.952 86.9587 187.73 87.1547 188.395 87.6575Z" fill="#263238"/>
<path d="M197.234 175.78C197.234 175.78 183.968 166.134 179.074 160.621C174.18 155.108 163.505 127.798 169.277 125.165C176.72 121.757 185.988 136.302 189.595 144.022C189.595 144.022 206.817 136.123 215.727 145.121C224.636 154.12 197.234 175.78 197.234 175.78Z" fill="#EB9481"/>
<path d="M171.658 124.896C180.687 126.686 184.771 137.115 188.829 144.341C188.884 144.451 188.964 144.547 189.064 144.619C189.163 144.691 189.279 144.738 189.4 144.755C189.522 144.773 189.646 144.761 189.762 144.72C189.878 144.679 189.982 144.61 190.065 144.52C197.5 141.691 208.822 139.868 215.754 144.606C215.794 144.629 215.842 144.638 215.888 144.63C215.934 144.622 215.976 144.598 216.005 144.562C216.035 144.526 216.051 144.481 216.051 144.434C216.05 144.387 216.032 144.342 216.001 144.307C209.249 138.215 197.986 139.101 190.031 142.722C185.99 135.249 181.437 124.964 171.666 124.828C171.657 124.836 171.65 124.848 171.649 124.861C171.647 124.873 171.65 124.886 171.658 124.896Z" fill="#263238"/>
<path d="M148.397 174.128C160.683 200.543 213.1 284.28 244.612 279.184C280.66 273.347 243.981 139.899 235.822 130.491C231.423 125.379 186.84 159.77 191.376 170.609C193.235 175.048 201.744 189.15 200.559 189.568C199.553 189.917 186.184 174.017 163.428 157.435C141.61 141.535 142.906 162.326 148.397 174.128Z" fill="#EB9481"/>
<path d="M147.839 175.663C162.256 208.341 213.659 274.507 232.928 278.623C252.196 282.739 256.187 276.834 261.336 257.576C266.486 238.318 248.547 157.709 248.547 157.709L191.423 174.104L193.222 180.222C193.222 180.222 178.063 167.755 164.669 156.959C151.275 146.163 135.843 148.498 147.839 175.663Z" fill="#176B87"/>
<path opacity="0.1" d="M147.388 151.692V174.614C147.012 173.762 146.671 172.909 146.356 172.057C146.134 171.478 145.93 170.907 145.734 170.353L145.682 170.2V152.953L145.913 152.723C146.35 152.307 146.847 151.96 147.388 151.692ZM152.392 151.027V184.873C152.546 185.171 152.708 185.469 152.87 185.768V151.096C152.708 151.061 152.546 151.044 152.392 151.027ZM158.949 153.183C158.625 153.013 158.301 152.859 157.977 152.715L157.875 152.663V194.706H158.054C158.386 195.269 158.736 195.84 159.094 196.411C159.247 196.672 159.409 196.936 159.58 197.203V153.515C159.367 153.396 159.162 153.285 158.949 153.183ZM164.67 156.941L164.584 156.873V205.068L165.053 205.775V157.214L164.67 156.941ZM170.067 161.304V213.154C170.169 213.316 170.28 213.478 170.399 213.632C170.519 213.785 170.612 213.955 170.732 214.109L171.763 215.583V162.676L170.067 161.304ZM176.777 166.757V222.536C176.93 222.749 177.084 222.962 177.246 223.167V167.141C177.092 167.004 176.939 166.885 176.768 166.757H176.777ZM183.307 172.074L182.259 171.222V229.83C182.634 230.324 183.009 230.819 183.401 231.304L183.955 232.02V172.603L183.307 172.074ZM189.421 177.076L188.969 176.71V238.479H189.088L189.438 238.914V177.076H189.421ZM194.451 173.242V245.185H194.673C195.167 245.773 195.67 246.361 196.173 246.94V172.756L194.451 173.242ZM201.161 171.316V252.65L201.63 253.169V171.197L201.161 171.316ZM206.643 169.748V258.529L208.348 260.276V169.254L206.643 169.748ZM213.353 167.822V265.201L213.822 265.644V167.652L213.353 167.822ZM218.835 166.246V270.101C219.406 270.586 219.969 271.046 220.54 271.49V165.735L218.835 166.246ZM225.545 275.154L226.014 275.452V164.184L225.545 164.32V275.154ZM231.027 162.744V278.051C231.584 278.26 232.154 278.434 232.733 278.571V162.258L231.027 162.744ZM237.737 160.818V279.482L238.206 279.551V160.682L237.737 160.818ZM243.219 279.866C243.808 279.866 244.37 279.866 244.925 279.772V158.773L243.219 159.267V279.866ZM250.219 165.368C250.219 165.206 250.151 165.053 250.126 164.9C250.057 164.584 249.989 164.278 249.929 163.979V278.477L250.398 278.247V166.22L250.219 165.368ZM257.04 201.446C256.762 199.742 256.477 198.075 256.187 196.445C256.094 195.874 255.991 195.303 255.889 194.74C255.719 193.795 255.548 192.857 255.386 191.928V273.432C256.027 272.428 256.596 271.38 257.091 270.297V201.446H257.04ZM262.207 245.185C262.207 244.631 262.207 244.06 262.156 243.481C262.104 242.901 262.113 242.509 262.087 242.007V252.402C262.087 251.84 262.164 251.261 262.19 250.698C262.19 250.545 262.19 250.391 262.19 250.23C262.275 248.65 262.289 246.969 262.232 245.185H262.207ZM145.913 152.715L145.682 152.945C145.604 153.02 145.53 153.1 145.461 153.183H158.949C158.625 153.013 158.301 152.859 157.977 152.715H145.913ZM143.594 158.194C143.541 158.76 143.524 159.329 143.542 159.898H168.327L166.221 158.194H143.594ZM248.693 158.194H246.894L244.916 158.756L243.211 159.25L240.977 159.889H249.051C248.898 159.131 248.77 158.56 248.693 158.194ZM174.517 164.9H144.165L144.267 165.368H175.063L174.517 164.9ZM250.143 164.9H223.542L221.905 165.368H250.236C250.185 165.206 250.151 165.053 250.091 164.883L250.143 164.9ZM181.236 170.37H145.734C145.93 170.924 146.134 171.495 146.356 172.074H183.307L182.259 171.222L181.236 170.37ZM251.268 170.37H204.46L201.63 171.18L201.161 171.316L198.526 172.074H251.592C251.481 171.495 251.362 170.924 251.251 170.37H251.268ZM189.455 177.076H148.47C148.547 177.238 148.624 177.392 148.692 177.553H190L189.438 177.093L189.455 177.076ZM252.615 177.076H192.337L192.473 177.553H252.649C252.649 177.392 252.649 177.238 252.598 177.076H252.615ZM253.681 182.555H151.19C151.472 183.118 151.77 183.68 152.043 184.259H253.988C253.877 183.689 253.766 183.118 253.664 182.555H253.681ZM254.934 189.261H154.822L155.095 189.739H255.002C254.977 189.594 254.943 189.423 254.917 189.261H254.934ZM158.054 194.706C158.386 195.269 158.736 195.84 159.094 196.411H256.205C256.111 195.84 256.008 195.269 255.906 194.706H158.054ZM257.108 201.685V201.412H162.274C162.368 201.566 162.47 201.728 162.581 201.89H257.219C257.186 201.831 257.149 201.774 257.108 201.719V201.685ZM257.961 206.891H165.812C166.196 207.454 166.571 208.025 166.963 208.596H258.234C258.148 208.067 258.055 207.488 257.961 206.926V206.891ZM259.001 213.598H170.399C170.501 213.759 170.612 213.921 170.732 214.075H259.069C259.052 213.955 259.027 213.793 259.001 213.632V213.598ZM259.785 219.077H176.768V220.781H260.007L259.785 219.077ZM260.638 225.783H179.207L179.573 226.26H260.706C260.689 226.141 260.672 225.979 260.647 225.817L260.638 225.783ZM261.252 231.262H183.401L183.955 231.977C184.203 232.31 184.459 232.642 184.723 232.966H261.456C261.38 232.438 261.329 231.867 261.26 231.296L261.252 231.262ZM261.857 237.968H188.704L188.977 238.3V238.445H261.9L261.857 237.968ZM262.173 243.447H193.215L194.451 244.921V245.151H262.232C262.224 244.631 262.198 244.06 262.181 243.481L262.173 243.447ZM198.97 250.153C199.106 250.306 199.243 250.468 199.387 250.622H262.207C262.207 250.468 262.207 250.315 262.207 250.153H198.97ZM203.932 255.632C204.46 256.203 204.998 256.774 205.526 257.336H261.38C261.525 256.774 261.642 256.206 261.729 255.632H203.932ZM210.42 262.338C210.574 262.491 210.736 262.645 210.889 262.807H259.837C259.888 262.653 259.93 262.5 259.973 262.338H210.42ZM216.226 267.817C216.891 268.405 217.539 268.976 218.179 269.521H257.441C257.679 268.976 257.91 268.413 258.131 267.817H216.226ZM224.641 274.523L225.341 274.992H254.244C254.363 274.847 254.491 274.685 254.61 274.523H224.641Z" fill="black"/>
<path d="M248.951 172.391C245.302 173.882 241.559 175.075 237.808 176.26C231.2 178.348 224.533 180.222 217.874 182.097C214.506 183.043 211.121 183.895 207.728 184.738C204.335 185.582 200.95 186.187 197.608 187.039C197.531 187.039 197.497 186.945 197.608 186.92C199.517 186.425 201.393 185.769 203.277 185.173C205.162 184.576 206.986 184.005 208.853 183.469C215.487 181.483 222.145 179.6 228.787 177.632C232.138 176.643 235.497 175.689 238.856 174.726C242.215 173.763 245.524 172.843 248.908 172.102C248.941 172.107 248.971 172.122 248.994 172.145C249.017 172.168 249.032 172.198 249.036 172.231C249.041 172.263 249.035 172.296 249.02 172.325C249.005 172.354 248.98 172.377 248.951 172.391ZM224.746 262.876C221.915 257.764 219.34 252.609 216.808 247.385C214.276 242.162 211.982 236.947 209.783 231.655C205.34 221.02 201.514 210.137 198.324 199.062C197.471 195.969 196.619 192.859 195.766 189.749C194.913 186.638 194.214 183.383 193.447 180.188C193.336 179.728 193.131 179.728 193.208 180.188C194.172 185.897 195.016 191.819 196.491 197.409C197.966 202.999 199.645 208.563 201.504 214.051C203.363 219.538 205.426 224.958 207.677 230.292C209.928 235.626 212.298 240.909 215.001 246.022C218.044 251.765 221.233 257.406 224.618 262.962C224.678 263.055 224.788 262.979 224.746 262.876Z" fill="#263238"/>
<path opacity="0.1" d="M237.482 279.448C236.067 279.252 234.549 278.97 232.929 278.596C213.66 274.463 162.274 208.339 147.84 175.661C141.241 160.698 142.954 153.259 148.062 151.41C163.4 174.076 212.902 244.528 237.482 279.448Z" fill="black"/>
<path d="M185.453 280.01L60.8203 280.342C60.8203 280.342 74.9734 188.034 120.766 144.082C126.428 138.646 139.711 139.293 148.527 143.23C151.673 144.636 163.379 159.667 167.139 174.178C170.899 188.69 185.785 279.558 185.453 280.01Z" fill="#176B87"/>
<path opacity="0.1" d="M62.0484 273.381V280.342H60.8207L60.8718 280.036C60.9742 279.371 61.264 277.641 61.7244 275.025C61.7244 274.872 61.7841 274.718 61.8097 274.556C61.895 274.153 61.9745 273.761 62.0484 273.381ZM67.0617 250.186V280.325H67.5306V249.445C67.4624 249.692 67.4027 249.939 67.3345 250.186H67.0617ZM72.5439 231.295V280.308H74.2491V226.736C73.746 228.27 73.2515 229.795 72.7741 231.295H72.5439ZM79.2538 212.634V280.291H79.7227V211.398L79.2538 212.634ZM85.9638 196.444C85.546 197.373 85.1112 198.31 84.7275 199.239V280.283H86.4327V195.43C86.2792 195.762 86.1258 196.103 85.9638 196.41V196.444ZM91.8808 184.259C91.7358 184.54 91.5909 184.83 91.4374 185.111V280.257H91.9149V184.199L91.8808 184.259ZM96.9196 175.15V280.249H98.6248V172.295C98.045 173.241 97.4823 174.195 96.9196 175.15ZM103.63 280.231H104.107V163.859L103.63 164.558V280.231ZM109.112 157.051V280.214H110.817V154.955C110.271 155.619 109.674 156.361 109.112 157.051ZM115.822 149.118V280.197H116.299V148.598L115.822 149.118ZM121.304 143.588V280.18H123.009V142.437C122.406 142.763 121.835 143.146 121.304 143.579V143.588ZM128.014 140.529V280.163H128.491V140.529H128.014ZM133.496 140.137V280.146H135.201V140.171C134.63 140.171 134.059 140.171 133.496 140.171V140.137ZM140.206 140.742V280.129H140.683V140.827L140.206 140.742ZM145.688 142.139V280.112H147.393V142.727C146.839 142.54 146.268 142.335 145.688 142.139ZM152.398 146.834V280.095H152.901V147.397L152.398 146.834ZM157.88 154.248V280.087H159.585V156.991C159.023 156.046 158.452 155.125 157.88 154.248ZM164.59 166.825V280.07H165.059V167.975C164.914 167.592 164.752 167.208 164.59 166.825ZM171.547 196.41C171.445 195.839 171.334 195.268 171.232 194.706C170.914 192.967 170.607 191.3 170.311 189.704C170.311 189.542 170.251 189.388 170.217 189.227C170.183 189.065 170.124 188.707 170.072 188.443V280.053H171.778V197.679C171.658 197.262 171.658 196.853 171.547 196.41ZM176.774 226.327V280.01H177.243V229.071C177.098 228.159 176.936 227.239 176.774 226.327ZM183.919 269.546C183.833 269.001 183.74 268.438 183.654 267.842C183.398 266.291 183.134 264.612 182.802 262.831L182.725 262.363C182.563 261.332 182.392 260.275 182.213 259.184V280.027H183.919V269.546ZM138.893 140.529H128.014V140.665C127.536 140.759 127.067 140.87 126.616 140.997H141.519L140.666 140.827L140.189 140.742L138.893 140.529ZM152.876 147.397L152.398 146.834C152.142 146.545 151.904 146.263 151.665 145.982H118.797C118.243 146.536 117.697 147.098 117.152 147.686H153.131L152.876 147.397ZM156.866 152.714H112.65C112.514 152.867 112.377 153.021 112.249 153.182H157.164C157.07 153.029 156.968 152.867 156.866 152.714ZM160.276 158.193H108.234C107.807 158.747 107.381 159.318 106.955 159.897H161.248C160.933 159.309 160.617 158.747 160.293 158.193H160.276ZM103.391 164.882C103.289 165.035 103.178 165.189 103.075 165.351H163.985L163.78 164.882H103.391ZM165.954 170.352H99.8185C99.4604 170.915 99.1108 171.486 98.7612 172.057H166.543C166.338 171.503 166.15 170.932 165.954 170.369V170.352ZM167.787 177.058H95.7771C95.6834 177.212 95.5981 177.374 95.5043 177.536H167.873C167.864 177.391 167.83 177.229 167.787 177.076V177.058ZM168.93 182.538H92.776L91.9234 184.182V184.242H169.305C169.152 183.671 169.041 183.1 168.93 182.555V182.538ZM170.217 189.244H89.3571L89.1184 189.721H170.311C170.277 189.593 170.251 189.423 170.217 189.261V189.244ZM171.232 194.706H86.7481L86.4327 195.396C86.2792 195.728 86.1258 196.069 85.9638 196.41H171.547C171.445 195.873 171.334 195.302 171.232 194.706ZM172.451 201.412H83.7811L83.5765 201.889H172.511C172.511 201.761 172.511 201.599 172.451 201.446V201.412ZM173.423 206.891H81.4962L80.8056 208.595H173.739C173.619 208.058 173.525 207.487 173.423 206.925V206.891ZM174.591 213.597H78.8702L78.6911 214.074H174.676C174.651 213.946 174.625 213.784 174.591 213.631V213.597ZM175.546 219.076H76.858C76.6619 219.647 76.4573 220.218 76.2612 220.78H175.836C175.742 220.269 175.64 219.681 175.546 219.11V219.076ZM176.697 225.782H74.5475L74.394 226.259H176.774L176.697 225.782ZM177.626 231.261H72.5439V231.985L72.237 232.965H177.959C177.823 232.437 177.72 231.866 177.626 231.295V231.261ZM178.752 237.967H70.7193C70.7193 238.129 70.6255 238.291 70.5829 238.444H178.863C178.812 238.325 178.786 238.163 178.752 238.001V237.967ZM179.673 243.446H69.142C68.9886 244.017 68.8266 244.588 68.6731 245.15H179.954L179.673 243.446ZM180.79 250.152H67.0617V250.621H180.866L180.79 250.152ZM181.642 255.631H65.9363C65.7913 256.211 65.6549 256.773 65.5185 257.335H181.966L181.642 255.631ZM182.733 262.337H64.3675L64.2311 262.874H182.853L182.733 262.337ZM183.586 267.816H63.1653L62.8158 269.52H183.884C183.842 269.001 183.748 268.438 183.663 267.85L183.586 267.816ZM184.626 274.522H61.8182C61.8182 274.684 61.7671 274.838 61.733 274.991H184.78C184.754 274.872 184.737 274.718 184.703 274.556L184.626 274.522ZM60.8207 280.036L60.7695 280.342H62.0143H67.0276H67.4965H72.5098H74.215H79.2282H86.3986H91.4033H116.265H121.27H122.975H127.98H128.457H133.462H135.167H140.172H140.649H145.654H147.359H152.364H60.8207V280.036Z" fill="black"/>
<path d="M168.434 180.22C169.534 183.45 170.48 186.807 171.273 190.19C171.273 190.053 171.273 189.926 171.273 189.789C171.273 187.881 171.179 185.921 171.273 184.012C171.273 183.91 171.443 183.876 171.46 184.012C171.785 185.931 171.92 187.878 171.861 189.823C171.861 190.735 171.861 191.655 171.784 192.567C172.108 194.084 172.407 195.609 172.637 197.117C173.123 199.989 175.919 219.059 176.047 221.198C176.047 221.65 175.817 221.658 175.672 221.198C174.999 219.059 171.409 199.759 170.761 196.921C169.62 191.404 168.78 185.829 168.246 180.22C168.246 180.092 168.391 180.084 168.434 180.22Z" fill="#263238"/>
<path d="M146.435 172.483C138.805 172.926 128.198 159.531 124.822 149.595C124.592 148.913 126.698 142.522 128.889 134.641C130.202 129.86 131.549 124.492 132.419 119.516L162.345 132.587C162.345 132.587 157.442 142.488 155.967 151.18C155.858 151.87 155.809 152.569 155.822 153.268C155.822 153.361 155.822 153.481 155.822 153.608C155.763 157.605 153.81 172.048 146.435 172.483Z" fill="#EB9481"/>
<path d="M155.826 153.261C155.826 153.363 155.826 153.482 155.826 153.61C154.737 153.566 153.654 153.435 152.586 153.218C134.937 149.716 133.829 127.186 133.897 120.156L162.365 132.588C162.365 132.588 157.463 142.498 155.988 151.19C155.868 151.873 155.814 152.567 155.826 153.261Z" fill="#263238"/>
<path d="M182.942 86.6094C182.942 86.6094 190.573 93.6393 188.868 103.379C187.163 113.118 181.561 121.938 180.598 122.125C179.634 122.313 182.942 86.6094 182.942 86.6094Z" fill="#263238"/>
<path d="M138.721 82.7152C132.173 92.4803 128.43 125.32 133.989 134.549C142.046 147.961 159.942 154.428 172.526 143.675C184.727 133.245 188.845 90.3927 182.194 81.4711C172.407 68.4083 148.389 68.2805 138.721 82.7152Z" fill="#EB9481"/>
<path d="M158.014 103.336C158.96 102.987 159.889 102.816 160.861 102.561C161.833 102.305 162.797 101.93 163.914 102.322C164.218 102.464 164.466 102.702 164.62 102.999C164.774 103.297 164.826 103.637 164.766 103.967C164.425 105.364 163.172 106.054 161.867 106.446C160.565 106.894 159.143 106.843 157.877 106.302C157.597 106.16 157.364 105.94 157.206 105.67C157.048 105.399 156.972 105.088 156.986 104.775C157.001 104.462 157.105 104.159 157.287 103.904C157.47 103.649 157.722 103.452 158.014 103.336Z" fill="#263238"/>
<path d="M182.741 109.077C182.042 108.353 181.275 107.799 180.516 107.143C179.757 106.487 179.041 105.746 177.864 105.609C177.529 105.609 177.203 105.719 176.936 105.922C176.67 106.125 176.478 106.411 176.389 106.734C176.091 108.14 176.927 109.29 177.924 110.219C178.907 111.186 180.213 111.754 181.59 111.813C181.904 111.805 182.208 111.706 182.467 111.53C182.726 111.353 182.928 111.105 183.05 110.817C183.171 110.528 183.207 110.21 183.152 109.902C183.097 109.593 182.955 109.307 182.741 109.077Z" fill="#263238"/>
<path d="M157.255 131.268C157.698 131.873 158.108 132.666 158.9 132.853C159.72 132.968 160.554 132.907 161.347 132.674C161.364 132.669 161.382 132.67 161.398 132.676C161.414 132.682 161.427 132.693 161.436 132.708C161.445 132.723 161.449 132.74 161.446 132.757C161.444 132.774 161.436 132.79 161.424 132.802C161.043 133.186 160.565 133.458 160.041 133.59C159.516 133.722 158.966 133.709 158.449 133.552C158.017 133.367 157.651 133.057 157.397 132.662C157.144 132.267 157.014 131.806 157.025 131.337C157.008 131.209 157.161 131.183 157.255 131.268Z" fill="#263238"/>
<path d="M169.749 124.578C169.749 124.578 169.28 128.506 168.896 130.065C168.896 130.21 163.985 127.884 159.688 127.288C159.501 127.288 159.415 126.879 159.936 126.81C162.92 126.452 168.052 128.463 168.052 128.463C168.112 128.216 168.453 122.601 168.709 122.644C169.891 123.048 171.015 123.606 172.051 124.305C172.98 117.216 172.776 110.041 173.807 103.003C173.817 102.952 173.844 102.907 173.884 102.874C173.924 102.842 173.973 102.824 174.025 102.824C174.076 102.824 174.126 102.842 174.165 102.874C174.205 102.907 174.232 102.952 174.242 103.003C174.992 110.51 174.097 118.69 173.321 126.009C173.236 126.947 170.312 124.995 169.749 124.578Z" fill="#263238"/>
<path d="M163.343 112.778C163.343 112.693 163.156 112.855 163.147 112.94C162.832 115.164 162.107 117.661 159.984 118.052C159.916 118.052 159.907 118.172 159.984 118.172C162.482 118.248 163.412 114.934 163.343 112.778Z" fill="#263238"/>
<path d="M158.251 112.326C158.295 113.289 158.505 114.238 158.873 115.129C159.017 115.501 159.28 115.814 159.621 116.02C159.962 116.227 160.361 116.315 160.758 116.271C161.491 116.186 162.079 115.419 162.463 114.567C162.872 113.68 163.175 112.747 163.366 111.789C163.559 112.808 163.495 113.86 163.179 114.848C163.021 115.378 162.763 115.872 162.42 116.305C162.033 116.785 161.485 117.109 160.877 117.217C160.277 117.291 159.67 117.142 159.172 116.799C158.689 116.454 158.337 115.956 158.174 115.385C157.887 114.381 157.913 113.314 158.251 112.326Z" fill="#263238"/>
<path d="M175.432 114.361C175.432 114.284 175.585 114.488 175.577 114.582C175.21 116.798 175.159 119.388 177.077 120.394C177.137 120.394 177.077 120.538 177.077 120.513C174.63 119.848 174.724 116.397 175.432 114.361Z" fill="#263238"/>
<path d="M180.419 115.46C180.453 116.516 180.155 117.556 179.566 118.434C179.24 118.93 178.757 119.302 178.194 119.491C177.602 119.688 176.957 119.645 176.396 119.373C175.835 119.101 175.403 118.62 175.192 118.034C174.998 117.522 174.9 116.979 174.903 116.432C174.895 115.392 175.147 114.367 175.636 113.449C175.52 114.42 175.52 115.401 175.636 116.372C175.651 116.788 175.763 117.195 175.963 117.56C176.163 117.925 176.445 118.239 176.787 118.477C177.152 118.64 177.561 118.677 177.95 118.583C178.339 118.489 178.685 118.269 178.935 117.957C179.573 117.219 180.076 116.373 180.419 115.46Z" fill="#263238"/>
<path d="M136.52 109.343C142.565 110.817 148.405 83.9333 148.405 83.9333C148.405 83.9333 153.862 88.3387 158.849 89.9407C162.754 91.1446 166.78 91.9106 170.854 92.2243C171.758 92.2243 162.234 85.5183 162.234 85.5183C162.234 85.5183 187.394 96.8683 189.986 92.3351C190.89 90.7331 183.268 69.7543 164.741 66.5759C151.099 64.2326 140.194 76.2729 140.194 76.2729C140.194 76.2729 131.95 81.9309 131.217 86.234C130.245 91.9687 130.117 107.792 136.52 109.343Z" fill="#263238"/>
<path d="M138.225 110.222C138.225 110.222 133.962 98.1225 128.693 99.3581C123.424 100.594 124.584 116.741 129.418 120.26C130.004 120.756 130.683 121.128 131.416 121.354C132.15 121.58 132.921 121.656 133.684 121.576C134.447 121.497 135.186 121.263 135.857 120.891C136.527 120.518 137.116 120.014 137.586 119.408L138.225 110.222Z" fill="#EB9481"/>
<path d="M129.153 103.977C129.068 103.977 129.017 104.062 129.077 104.113C132.427 106.669 133.433 110.768 133.809 114.79C133.075 113.086 131.762 111.884 129.546 112.694C129.426 112.736 129.477 112.915 129.588 112.924C130.317 112.892 131.037 113.089 131.648 113.486C132.259 113.883 132.731 114.461 132.999 115.139C133.435 116.269 133.747 117.444 133.928 118.641C134.013 119.033 134.67 119.016 134.653 118.641C134.657 118.607 134.657 118.573 134.653 118.539C136.042 113.708 134.192 105.911 129.153 103.977Z" fill="#263238"/>
<path d="M184.188 115.036C183.071 119.56 182.023 124.111 180.718 128.593C179.607 132.614 177.882 136.439 175.602 139.934C174.977 140.839 174.282 141.694 173.522 142.49C172.746 143.343 170.871 144.979 170.964 144.927C171.723 144.314 172.567 143.82 173.317 143.223C174.077 142.588 174.786 141.896 175.44 141.153C176.777 139.655 177.922 137.998 178.851 136.219C180.965 132.146 182.023 127.587 182.918 123.114C183.446 120.438 183.898 117.737 184.393 115.044C184.393 115.031 184.391 115.017 184.387 115.005C184.382 114.992 184.375 114.98 184.366 114.971C184.357 114.961 184.346 114.953 184.334 114.947C184.321 114.941 184.308 114.938 184.295 114.938C184.281 114.937 184.268 114.939 184.255 114.944C184.243 114.948 184.231 114.955 184.221 114.965C184.211 114.974 184.203 114.985 184.198 114.997C184.192 115.009 184.189 115.022 184.188 115.036Z" fill="#263238"/>
<path d="M156.052 151.411L148.012 169.723L125.7 145.523L118.922 152.852C118.922 152.852 140.296 190.847 140.493 189.168L148.635 173.404L159.326 184.882V156.942L156.052 151.411Z" fill="#176B87"/>
<path d="M160.109 171.08C159.956 166.47 159.921 161.818 159.555 157.217C159.555 157.046 159.291 156.969 159.239 157.157C158.182 161.579 158.873 179.218 158.719 183.444L158.668 183.393C158.225 182.899 148.744 173.279 148.642 173.424C146.936 175.912 140.968 187.373 140.508 188.421C137.097 182.388 122.731 158.597 118.681 152.828C118.658 152.8 118.625 152.78 118.589 152.773C118.553 152.765 118.515 152.771 118.482 152.788C118.45 152.804 118.423 152.832 118.408 152.866C118.393 152.9 118.39 152.937 118.4 152.973C121.358 159.33 139.937 190.764 140.218 190.687C140.406 190.841 147.832 176.721 148.744 174.037C150.33 176.116 159.828 186.93 159.921 186.248C160.244 181.199 160.307 176.136 160.109 171.08Z" fill="#263238"/>
<path d="M66.0787 278.334C56.9132 283.736 42.3765 280.89 40.9441 268.194C36.161 225.588 70.785 140.003 76.8981 132.768C81.2975 127.613 122.802 155.699 120.841 162.669C117.686 173.917 86.4813 266.328 66.0787 278.334Z" fill="#EB9481"/>
<path d="M74.6289 138.467C74.6289 138.467 79.4035 117.949 85.2523 107.953C93.0791 94.5583 105.356 86.2162 110.711 83.0293C121.888 76.3829 153.511 68.0322 157.51 76.7152C161.125 84.5801 128.368 91.4822 128.368 91.4822C128.368 91.4822 160.605 78.9392 163.222 89.1985C165.84 99.4579 127.319 105.329 127.319 105.329C127.319 105.329 160.733 93.1779 161.747 104.187C162.523 112.512 127.959 119.772 127.959 119.772C127.959 119.772 156.751 109.547 157.919 118.068C159.198 127.441 127.72 136.184 127.72 136.184C127.021 158.338 117.617 168.623 110.063 175.133C108.264 176.693 74.6289 138.467 74.6289 138.467Z" fill="#EB9481"/>
<path d="M151.424 99.5429C153.266 98.8782 164.537 96.1856 163.718 89.5221C163.122 84.6055 157.46 85.2019 155.551 85.2105H155.815C156.216 85.2105 149.778 85.0485 140.05 87.2811C136.086 88.1928 132.172 89.3261 128.31 90.6043C124.448 91.8824 120.637 93.5355 116.945 95.146C116.851 95.146 116.885 95.325 116.945 95.2909C120.799 94.0212 124.721 92.9476 128.574 91.6779C132.428 90.4083 145.677 86.2671 155.082 85.2786C156.87 85.2421 158.646 85.5757 160.299 86.2585C161.011 86.5668 161.631 87.0522 162.101 87.6683C162.571 88.2844 162.876 89.0107 162.985 89.7777C163.284 93.3225 159.515 95.4443 156.864 96.8758C155.077 97.8714 153.216 98.7261 151.296 99.4321C151.287 99.4384 151.28 99.4467 151.275 99.4564C151.27 99.466 151.268 99.4767 151.268 99.4875C151.268 99.4983 151.27 99.509 151.275 99.5186C151.28 99.5283 151.287 99.5366 151.296 99.5429H150.725C150.668 99.536 150.611 99.536 150.554 99.5429C145.533 100.83 140.732 101.946 135.813 103.573C130.893 105.201 126.119 107.229 121.268 109.078C121.191 109.078 121.225 109.223 121.268 109.197C126.127 107.493 131.149 106.121 136.077 104.587C141.005 103.054 145.456 101.281 150.443 99.7985C150.57 99.7758 150.683 99.7057 150.759 99.6025C152.894 99.5263 155.03 99.7123 157.119 100.156C158.978 100.599 160.709 101.707 161.195 103.676C161.715 105.772 159.95 107.416 158.466 108.567C156.878 109.751 155.162 110.754 153.351 111.558C152.225 112.094 151.066 112.572 149.94 113.049C148.815 113.526 146.718 114.472 145.515 114.889C145.43 114.889 145.515 114.975 145.618 114.949C160.351 111.379 162.729 106.428 162.303 103.659C161.561 98.597 153.752 99.398 151.424 99.5429Z" fill="#263238"/>
<path d="M122.851 121.861C130.158 118.789 137.764 116.482 145.547 114.976C145.939 114.891 145.803 115.189 145.419 115.3C137.746 117.388 131.94 119.143 122.962 122.117C122.826 122.159 122.698 121.929 122.851 121.861Z" fill="#263238"/>
<path d="M157.272 115.572C154.364 113.143 147.714 114.592 145.583 114.958C145.472 114.958 145.497 115.188 145.583 115.171C147.427 114.889 149.294 114.781 151.159 114.848C152.766 114.843 154.361 115.131 155.865 115.7C156.495 115.951 157.031 116.392 157.4 116.961C157.601 117.34 157.723 117.756 157.758 118.184C157.793 118.612 157.741 119.042 157.604 119.449C157.134 120.961 156.247 122.31 155.046 123.343C147.723 130.083 127.661 136.039 127.61 136.056C127.559 136.073 127.243 141.714 126.936 144.262C126.783 145.498 126.587 146.725 126.357 147.943C126.183 149.232 125.898 150.504 125.504 151.744C125.504 151.82 125.606 151.863 125.632 151.744C126.015 150.491 126.536 149.29 126.911 148.037C127.283 146.788 127.585 145.519 127.814 144.237C128.148 141.626 128.293 138.995 128.249 136.363C163.351 127.075 159.864 117.745 157.272 115.572Z" fill="#263238"/>
<path d="M70.6482 134.285L122.784 169.903C122.784 169.903 83.386 278.01 61.3975 281.265C51.3369 282.748 45.6586 279.706 41.6258 272.744C37.593 265.782 32.3751 229.977 70.6482 134.285Z" fill="#176B87"/>
<path opacity="0.1" d="M80.4785 141.024H67.9965C68.0562 140.871 68.1159 140.709 68.1841 140.555H79.7879L80.4785 141.024ZM89.3882 147.108L87.8109 146.035H66.0611C65.8394 146.605 65.6263 147.168 65.4131 147.739H90.2919L89.3882 147.108ZM97.6242 152.741H63.3072V153.209H98.3319L97.6242 152.741ZM107.062 159.191L106.585 158.859L105.647 158.22H61.5168L60.9029 159.924H108.128L107.062 159.191ZM115.461 164.926H59.1125C59.0528 165.079 59.0016 165.241 58.9505 165.394H116.151L115.461 164.926ZM57.2367 170.371C57.0406 170.942 56.8445 171.513 56.657 172.075H121.983L122.614 170.371H57.2367ZM55.0029 177.077C54.9433 177.239 54.8921 177.401 54.8409 177.554H119.903C119.971 177.392 120.03 177.23 120.09 177.077H55.0029ZM53.2381 182.556C53.0931 183.007 52.9567 183.451 52.8118 183.894C52.8118 184.013 52.735 184.141 52.6924 184.26H117.302L117.976 182.556H53.2381ZM51.1663 189.262L51.1151 189.441C51.1151 189.543 51.0554 189.637 51.0298 189.739H115.137C115.196 189.577 115.264 189.415 115.324 189.262H51.1663ZM49.5634 194.707C49.3929 195.278 49.2309 195.849 49.0774 196.411H112.417L113.116 194.707H49.5634ZM47.6962 201.413C47.645 201.575 47.6024 201.737 47.5683 201.89H110.149L110.345 201.413H47.6962ZM46.2553 206.892L46.1018 207.497C46.008 207.872 45.9228 208.23 45.829 208.596H107.31C107.557 208.025 107.796 207.454 108.034 206.892H46.2553ZM44.6183 213.632C44.5757 213.794 44.5416 213.956 44.5075 214.109H104.922C104.991 213.956 105.067 213.794 105.127 213.632H44.6183ZM43.3991 219.111C43.2712 219.682 43.1518 220.253 43.0325 220.815H101.947L102.706 219.111H43.3991ZM42.0605 225.817C42.0605 225.979 42.0008 226.141 41.9667 226.294H99.4403C99.517 226.133 99.5937 225.979 99.6619 225.817H42.0605ZM41.0886 231.296C40.9948 231.876 40.9095 232.438 40.8243 233H96.243C96.5244 232.438 96.7972 231.867 97.0956 231.296H41.0886ZM40.0995 238.002C40.0995 238.164 40.0995 238.318 40.0399 238.48H93.6L93.8387 238.002H40.0995ZM39.5027 243.481C39.4516 244.061 39.3919 244.632 39.3407 245.186H90.2152L91.0678 243.481H39.5027ZM38.9997 250.187C38.9997 250.349 38.9997 250.503 38.9997 250.656H87.2481L87.5039 250.187H38.9997ZM38.8633 255.667C38.8633 256.246 38.8633 256.808 38.8633 257.371H83.4115C83.744 256.808 84.0765 256.246 84.4005 255.667H38.8633ZM39.1446 262.373C39.1446 262.534 39.1446 262.688 39.1446 262.841H80.0693L80.3677 262.373H39.1446ZM39.9461 267.852C40.0825 268.465 40.2189 269.028 40.3639 269.556H75.542V269.394C75.9171 268.894 76.2923 268.383 76.6674 267.86L39.9461 267.852ZM42.7852 274.558C42.8875 274.72 43.0069 274.873 43.1177 275.026H70.8612L71.2961 274.558H42.7852ZM48.9836 280.037C49.6853 280.376 50.4121 280.661 51.1577 280.889C51.7187 281.054 52.2879 281.191 52.8629 281.298C54.5163 281.595 56.1985 281.701 57.8762 281.613C58.0324 281.622 58.1889 281.622 58.3451 281.613C59.3171 281.562 60.3402 281.46 61.4145 281.298C62.081 281.194 62.7333 281.014 63.3584 280.761C63.8532 280.563 64.3345 280.332 64.7993 280.071L48.9836 280.037ZM40.091 238.002C40.091 238.164 40.091 238.318 40.0313 238.48C39.8097 240.218 39.6192 241.885 39.4601 243.481C39.4089 244.061 39.3493 244.632 39.2981 245.186C39.1532 246.949 39.0338 248.594 38.9571 250.187C38.9571 250.349 38.9571 250.503 38.9571 250.656V259.723C38.9997 260.66 39.0679 261.546 39.1361 262.373C39.1361 262.534 39.1361 262.688 39.1361 262.841C39.2986 264.524 39.5519 266.196 39.8949 267.852C40.0313 268.465 40.1678 269.028 40.3127 269.556C40.415 269.897 40.5088 270.22 40.6111 270.519V234.253C40.4235 235.54 40.253 236.792 40.091 238.002ZM45.829 208.63C45.7608 208.894 45.7011 209.159 45.6329 209.423V277.838C45.7864 277.983 45.9398 278.111 46.1018 278.239V207.514C46.008 207.906 45.9228 208.264 45.829 208.63ZM52.6498 184.26C52.1325 185.964 51.6238 187.631 51.1236 189.262L51.0725 189.441V280.88C51.6335 281.046 52.2026 281.182 52.7777 281.289V183.894C52.7777 184.013 52.735 184.141 52.6924 184.26H52.6498ZM57.7653 168.658V281.622C57.9215 281.63 58.0781 281.63 58.2343 281.622V167.295C58.132 167.755 57.9785 168.206 57.825 168.658H57.7653ZM63.4692 152.715H63.2475V280.77C63.7424 280.571 64.2237 280.34 64.6884 280.079H64.9442V148.855C64.5009 150.108 64.0149 151.42 63.5289 152.715H63.4692ZM70.0172 135.912V275.853L70.4861 275.376V135.52H70.1962L70.0172 135.912ZM75.4994 137.616V269.385C75.8745 268.886 76.2496 268.374 76.6248 267.852C76.8124 267.587 77.0085 267.323 77.196 267.051V138.758L75.4994 137.616ZM82.2093 142.2V259.365L82.6782 258.589V142.507L82.2093 142.2ZM87.683 145.941V249.898C88.2542 248.858 88.8169 247.802 89.3882 246.736V147.083L87.8109 146.009L87.683 145.941ZM94.3929 150.525V236.878C94.5464 236.554 94.7084 236.23 94.8704 235.906V150.832L94.3929 150.525ZM99.8751 154.266V225.383C100.443 224.144 101.012 222.906 101.58 221.667V155.416L99.8751 154.266ZM106.585 158.85V210.326L107.062 209.227V159.165L106.585 158.85ZM112.067 162.599V197.263C112.187 196.973 112.297 196.692 112.417 196.411L113.116 194.707C113.338 194.161 113.551 193.625 113.772 193.096V163.741L112.067 162.599ZM118.777 180.494L119.255 179.25V167.491L118.777 167.167V180.494Z" fill="black"/>
<path d="M123.826 169.997C123.826 170.04 122.922 172.187 122.513 173.218C119.248 181.594 115.692 189.851 112.094 198.091C108.496 206.331 104.881 214.511 101.113 222.657C97.3445 230.803 93.5248 238.924 89.5944 246.993C86.3801 253.58 83.0379 260.124 78.8005 266.123C76.7229 269.064 74.3798 271.808 71.8007 274.32C69.1982 276.757 66.3396 278.906 63.2747 280.728C63.2589 280.737 63.2401 280.74 63.2225 280.735C63.2049 280.73 63.19 280.718 63.1809 280.703C63.1719 280.687 63.1695 280.668 63.1743 280.65C63.1791 280.633 63.1907 280.618 63.2065 280.609C63.9941 280.132 64.7542 279.612 65.4829 279.05C70.9819 274.47 75.6687 268.997 79.3462 262.86C83.1935 256.432 86.6859 249.798 89.8075 242.988C93.684 234.945 97.4724 226.855 101.173 218.72C104.873 210.591 108.556 202.454 112.12 194.274C115.684 186.093 119.111 177.99 122.641 169.869C122.479 169.775 119.862 167.969 119.231 167.5C119.179 167.5 119.231 167.355 119.282 167.381C120.032 167.586 123.911 169.767 123.826 169.997ZM116.153 177.589C113.254 175.357 110.185 173.329 107.175 171.25C104.165 169.17 101.036 167.125 97.9498 165.097C91.8282 161.084 85.7662 156.985 79.636 152.98C77.9309 151.856 76.1745 150.756 74.4352 149.666C72.6959 148.575 70.8628 147.484 69.1576 146.257C69.1418 146.247 69.1226 146.244 69.1042 146.248C69.0858 146.252 69.0698 146.263 69.0596 146.279C69.0494 146.294 69.0459 146.314 69.0499 146.332C69.0539 146.35 69.0651 146.366 69.0809 146.377C72.0991 148.456 74.9041 150.842 77.8797 152.989C80.8553 155.136 83.8479 157.318 86.9343 159.397C92.9962 163.504 99.0582 167.611 105.257 171.514C108.769 173.738 112.291 175.936 115.974 177.853C116.011 177.868 116.053 177.868 116.091 177.855C116.129 177.842 116.161 177.815 116.182 177.781C116.202 177.746 116.209 177.705 116.203 177.665C116.196 177.626 116.175 177.59 116.144 177.564L116.153 177.589Z" fill="#263238"/>
<path d="M263.527 302.763L289.25 287.578L321.93 298.511L295.099 314.811L263.527 302.763Z" fill="white"/>
<path d="M294.074 310.592C295.652 309.425 297.289 308.334 298.925 307.26C300.562 306.187 302.225 305.156 303.888 304.133C305.55 303.111 307.247 302.114 309.003 301.168L311.561 299.745C312.414 299.293 313.266 298.824 314.178 298.398C313.386 298.986 312.576 299.532 311.774 300.103L309.327 301.73C307.69 302.812 306.028 303.843 304.357 304.866C302.685 305.888 300.997 306.877 299.284 307.831C297.57 308.786 295.839 309.74 294.074 310.592Z" fill="#DBDBDB"/>
<path d="M298.32 304.416C300.145 302.954 302.068 301.618 304.075 300.42C306.063 299.19 308.134 298.099 310.274 297.156C308.449 298.619 306.526 299.954 304.519 301.153C302.528 302.378 300.457 303.468 298.32 304.416Z" fill="#DBDBDB"/>
<path d="M286.324 308.116C287.902 306.948 289.539 305.866 291.175 304.792C292.812 303.719 294.475 302.679 296.138 301.657C297.8 300.634 299.497 299.637 301.211 298.691L303.768 297.268C304.621 296.817 305.474 296.348 306.386 295.922C305.601 296.51 304.783 297.055 303.982 297.626L301.535 299.254C299.898 300.336 298.235 301.358 296.564 302.381C294.893 303.403 293.205 304.4 291.491 305.346C289.777 306.292 288.089 307.255 286.324 308.116Z" fill="#DBDBDB"/>
<path d="M285.336 305.13C288.022 303.102 290.852 301.296 293.708 299.541C296.565 297.785 299.489 296.132 302.524 294.684C299.839 296.712 297.008 298.518 294.152 300.273C291.296 302.029 288.371 303.673 285.336 305.13Z" fill="#DBDBDB"/>
<path d="M288.695 299.515C291.706 297.029 295.06 294.991 298.654 293.465C297.167 294.733 295.575 295.873 293.896 296.873C292.239 297.896 290.499 298.78 288.695 299.515Z" fill="#DBDBDB"/>
<path d="M220.152 317.062L260.796 301.195L300.007 324.824L259.576 341.253L220.152 317.062Z" fill="white"/>
<path d="M259.008 336.436C261.651 335.175 264.337 333.999 267.022 332.832C269.708 331.665 272.419 330.54 275.122 329.424C277.825 328.307 280.561 327.234 283.298 326.203L287.416 324.66C288.798 324.175 290.17 323.663 291.568 323.203C290.247 323.842 288.9 324.43 287.57 325.052L283.546 326.816C280.86 327.983 278.157 329.1 275.446 330.224C272.735 331.349 270.006 332.414 267.269 333.445C264.533 334.477 261.787 335.499 259.008 336.436Z" fill="#DBDBDB"/>
<path d="M269.418 328.027C272.317 326.493 275.309 325.189 278.328 323.945C281.346 322.701 284.407 321.577 287.561 320.656C284.662 322.165 281.688 323.528 278.652 324.738C275.625 325.931 272.573 327.107 269.418 328.027Z" fill="#DBDBDB"/>
<path d="M255 329.707C257.311 328.582 259.664 327.534 262.017 326.503C264.37 325.472 266.74 324.492 269.119 323.512C271.498 322.532 273.885 321.594 276.289 320.7L279.904 319.362C281.124 318.944 282.326 318.51 283.553 318.109C282.402 318.68 281.226 319.2 280.066 319.745L276.528 321.313C274.175 322.344 271.805 323.324 269.426 324.304C267.047 325.284 264.66 326.213 262.256 327.108C259.851 328.002 257.447 328.906 255 329.707Z" fill="#DBDBDB"/>
<path d="M253.105 326.3C255.245 325.243 257.411 324.272 259.594 323.309C261.776 322.346 263.968 321.434 266.167 320.531C268.367 319.628 270.584 318.759 272.809 317.932L276.16 316.705C277.294 316.322 278.411 315.913 279.57 315.555C278.504 316.092 277.422 316.577 276.347 317.088L273.082 318.546C270.908 319.508 268.708 320.42 266.508 321.323C264.309 322.227 262.1 323.087 259.867 323.88C257.633 324.672 255.373 325.567 253.105 326.3Z" fill="#DBDBDB"/>
<path d="M242.977 326.23C245.628 324.96 248.314 323.784 251 322.617C253.685 321.45 256.388 320.333 259.099 319.209C261.81 318.084 264.53 317.027 267.276 315.996L271.394 314.454C272.775 313.968 274.147 313.448 275.537 312.988C274.216 313.627 272.877 314.224 271.547 314.837L267.523 316.601C264.837 317.777 262.134 318.885 259.423 320.01C256.712 321.134 253.984 322.191 251.247 323.222C248.51 324.253 245.765 325.293 242.977 326.23Z" fill="#DBDBDB"/>
<path d="M242.648 322.183C244.993 321.041 247.363 319.993 249.751 318.945C252.138 317.897 254.534 316.908 256.938 315.92C259.342 314.931 261.755 313.985 264.194 313.074L267.851 311.719C269.079 311.293 270.298 310.867 271.543 310.449C270.375 311.029 269.181 311.548 268.005 312.111L264.441 313.687C262.062 314.735 259.658 315.724 257.253 316.712C254.849 317.701 252.428 318.646 249.998 319.55C247.568 320.453 245.121 321.373 242.648 322.183Z" fill="#DBDBDB"/>
<path d="M234.973 321.125C237.616 319.855 240.301 318.679 242.987 317.512C245.673 316.344 248.384 315.228 251.095 314.103C253.807 312.978 256.526 311.913 259.272 310.891L263.381 309.34C264.762 308.854 266.135 308.343 267.533 307.883C266.212 308.522 264.873 309.11 263.543 309.732L259.519 311.496C256.833 312.672 254.122 313.779 251.411 314.904C248.699 316.029 245.98 317.086 243.234 318.117C240.489 319.148 237.752 320.179 234.973 321.125Z" fill="#DBDBDB"/>
<path d="M244.281 313.15C247.359 311.54 250.539 310.16 253.745 308.847C256.951 307.535 260.191 306.291 263.524 305.328C260.446 306.947 257.266 308.319 254.061 309.631C250.855 310.943 247.615 312.162 244.281 313.15Z" fill="#DBDBDB"/>
<path d="M83.875 304.723L203.469 289.07L253.601 324.791L135.611 348.002L83.875 304.723Z" fill="#455A64"/>
<path d="M91.1211 305.125L138.466 344.867L249.039 323.19L200.543 288.918C200.543 288.918 168.264 289.029 166.729 289.301C165.195 289.574 150.453 293.562 150.453 293.562C150.453 293.562 130.375 294.465 128.985 294.746C127.595 295.028 91.1211 305.125 91.1211 305.125Z" fill="white"/>
<path d="M150.457 293.586L156.229 298.477L161.967 303.411L173.358 313.363L184.655 323.427L190.265 328.497L195.841 333.618L190.06 328.735L184.331 323.793L172.94 313.84L161.643 303.777L156.024 298.707L150.457 293.586Z" fill="#DBDBDB"/>
<path d="M157.207 319.003C158.605 318.738 160.012 318.542 161.419 318.355C162.826 318.167 164.241 318.014 165.682 317.869C167.123 317.724 168.512 317.614 169.945 317.537C171.377 317.46 172.784 317.384 174.208 317.375C172.81 317.648 171.403 317.844 169.996 318.031C168.589 318.219 167.182 318.363 165.733 318.508C164.284 318.653 162.911 318.764 161.47 318.841C160.029 318.917 158.648 318.994 157.207 319.003Z" fill="#DBDBDB"/>
<path d="M131.785 329.773C135.494 328.563 139.22 327.413 142.946 326.279C146.672 325.146 150.431 324.064 154.174 322.973C156.05 322.419 157.926 321.917 159.827 321.431C160.313 321.306 160.81 321.227 161.311 321.192L162.769 321.039L165.693 320.817C169.581 320.511 173.469 320.212 177.365 320.008C173.494 320.502 169.615 320.911 165.744 321.346L162.837 321.652C161.876 321.718 160.922 321.852 159.981 322.053C158.105 322.539 156.238 323.101 154.353 323.612L143.091 326.765C139.322 327.771 135.562 328.802 131.785 329.773Z" fill="#DBDBDB"/>
<path d="M135.09 332.612C138.688 331.402 142.294 330.243 145.918 329.11C149.541 327.977 153.173 326.894 156.805 325.804C158.619 325.236 160.443 324.716 162.279 324.244C162.74 324.117 163.191 323.989 163.686 323.886C164.18 323.784 164.641 323.767 165.118 323.716L167.949 323.443C171.734 323.137 175.511 322.855 179.306 322.668C175.537 323.162 171.769 323.563 168 323.989L165.178 324.287C164.709 324.347 164.232 324.389 163.788 324.474C163.345 324.56 162.893 324.705 162.441 324.824L156.976 326.392C153.327 327.431 149.703 328.53 146.046 329.553C142.388 330.576 138.756 331.624 135.09 332.612Z" fill="#DBDBDB"/>
<path d="M138.406 335.032C142.055 333.959 145.713 332.945 149.379 331.956C153.045 330.968 156.729 330.022 160.403 329.067C162.253 328.599 164.069 328.122 165.979 327.747L171.615 326.895C175.383 326.383 179.143 325.864 182.92 325.438C179.194 326.162 175.443 326.792 171.7 327.431L166.073 328.284C164.257 328.65 162.398 329.136 160.557 329.596C156.865 330.49 153.19 331.453 149.473 332.331C145.756 333.209 142.132 334.189 138.406 335.032Z" fill="#DBDBDB"/>
<path d="M192.574 324.51C195.985 323.374 199.426 322.337 202.899 321.4C203.752 321.17 204.604 320.931 205.517 320.727C205.96 320.625 206.369 320.522 206.864 320.454L208.202 320.275L213.54 319.559C217.103 319.074 220.667 318.648 224.231 318.196C227.795 317.745 231.359 317.344 234.931 316.918C231.384 317.486 227.835 318.034 224.282 318.563C220.727 319.082 217.172 319.628 213.616 320.122L208.279 320.863L206.949 321.059C206.531 321.127 206.096 321.238 205.662 321.34L203.053 321.979C199.574 322.866 196.095 323.743 192.574 324.51Z" fill="#DBDBDB"/>
<path d="M189.434 321.338C192.793 320.4 196.172 319.565 199.571 318.833C201.276 318.458 202.981 318.057 204.687 317.827L209.853 317.103C213.264 316.609 216.742 316.174 220.187 315.714C223.631 315.254 227.084 314.862 230.537 314.41C227.127 314.99 223.674 315.56 220.238 316.114C216.802 316.668 213.366 317.197 209.93 317.691L204.772 318.458C203.919 318.568 203.067 318.756 202.214 318.926L199.656 319.429C196.288 320.111 192.87 320.767 189.434 321.338Z" fill="#DBDBDB"/>
<path d="M186.379 318.475C189.721 317.572 193.072 316.771 196.448 316.021C198.153 315.663 199.807 315.263 201.564 314.99L206.679 314.41C210.09 314.019 213.551 313.678 216.979 313.32C220.406 312.962 223.851 312.647 227.295 312.34C223.885 312.817 220.474 313.271 217.064 313.703C213.653 314.138 210.243 314.555 206.79 314.973C205.085 315.177 203.38 315.365 201.674 315.595L196.567 316.558C193.185 317.274 189.789 317.913 186.379 318.475Z" fill="#DBDBDB"/>
<path d="M183.742 316.31C186.991 315.066 190.299 314.027 193.658 313.089C194.076 312.979 194.51 312.868 194.928 312.783C195.363 312.687 195.805 312.625 196.25 312.595L198.85 312.365L204.034 311.93C210.957 311.394 217.88 310.882 224.812 310.465C217.906 311.198 210.991 311.837 204.085 312.476L198.901 312.944L196.344 313.192C195.497 313.288 194.661 313.459 193.845 313.703C190.461 314.563 187.136 315.543 183.742 316.31Z" fill="#DBDBDB"/>
<path d="M180.867 313.721C184.116 312.469 187.424 311.438 190.783 310.5C191.201 310.381 191.635 310.279 192.053 310.185C192.488 310.09 192.93 310.027 193.375 309.997L195.933 309.767L201.116 309.341C208.039 308.796 214.963 308.285 221.894 307.867C214.988 308.6 208.074 309.248 201.167 309.887L195.984 310.355L193.426 310.594C192.58 310.69 191.744 310.862 190.928 311.105C187.586 311.974 184.261 312.946 180.867 313.721Z" fill="#DBDBDB"/>
<path d="M177.992 311.123C181.241 309.879 184.549 308.839 187.899 307.902C188.326 307.791 188.752 307.68 189.178 307.595C189.613 307.5 190.055 307.437 190.5 307.408L193.058 307.178L198.241 306.743C205.164 306.206 212.088 305.695 219.019 305.277C212.113 306.002 205.199 306.649 198.293 307.288L193.109 307.757L190.551 308.004C189.705 308.101 188.869 308.272 188.053 308.515C184.711 309.376 181.386 310.356 177.992 311.123Z" fill="#DBDBDB"/>
<path d="M175.117 308.534C178.366 307.281 181.674 306.25 185.024 305.313C185.451 305.193 185.877 305.091 186.303 304.997C186.738 304.902 187.18 304.84 187.625 304.81L190.225 304.58L195.409 304.154C202.332 303.608 209.255 303.097 216.187 302.68C209.281 303.412 202.366 304.06 195.46 304.699L190.276 305.168L187.719 305.415C186.872 305.504 186.036 305.673 185.22 305.918C181.836 306.787 178.476 307.758 175.117 308.534Z" fill="#DBDBDB"/>
<path d="M171.273 306.248C174.522 305.004 177.83 303.964 181.189 303.027C181.607 302.908 182.042 302.805 182.46 302.72C182.897 302.621 183.342 302.556 183.79 302.524L186.347 302.303L191.54 301.868C198.454 301.331 205.377 300.82 212.309 300.402C205.403 301.127 198.497 301.774 191.582 302.413L186.398 302.882L183.841 303.129C182.994 303.22 182.157 303.391 181.343 303.64C178 304.501 174.667 305.481 171.273 306.248Z" fill="#DBDBDB"/>
<path d="M167.539 303.998C170.787 302.754 174.096 301.714 177.455 300.777C177.873 300.666 178.307 300.555 178.725 300.47C179.163 300.374 179.608 300.312 180.055 300.283L182.613 300.053L187.805 299.618C194.72 299.081 201.643 298.57 208.575 298.152C201.668 298.877 194.762 299.524 187.848 300.163L182.664 300.632L180.106 300.879C179.257 300.975 178.418 301.146 177.6 301.39C174.266 302.251 170.932 303.231 167.539 303.998Z" fill="#DBDBDB"/>
<path d="M164.668 301.408C167.908 300.164 171.216 299.124 174.567 298.187C174.984 298.076 175.419 297.965 175.837 297.88C176.274 297.78 176.719 297.717 177.167 297.692L179.725 297.505L184.909 297.164C191.832 296.747 198.746 296.363 205.678 296.082C198.772 296.679 191.857 297.19 184.951 297.71L179.767 298.084L177.21 298.289C176.366 298.382 175.532 298.553 174.72 298.8C171.378 299.661 168.053 300.632 164.668 301.408Z" fill="#DBDBDB"/>
<path d="M161.793 298.808C165.033 297.564 168.332 296.533 171.675 295.596C172.092 295.485 172.527 295.374 172.945 295.289C173.382 295.188 173.827 295.126 174.275 295.101L176.833 294.965L182.017 294.718C188.931 294.445 195.846 294.215 202.769 294.07C195.863 294.522 188.948 294.922 182.042 295.272L176.867 295.544L174.309 295.706C173.467 295.788 172.635 295.956 171.828 296.209C168.494 297.07 165.169 298.041 161.793 298.808Z" fill="#DBDBDB"/>
<path d="M158.922 296.221C162.153 294.977 165.444 293.945 168.778 293.017C169.204 292.897 169.63 292.787 170.048 292.701C170.487 292.595 170.936 292.535 171.387 292.522L173.945 292.454L179.128 292.386C182.539 292.344 186.034 292.386 189.487 292.386C192.94 292.386 196.385 292.386 199.838 292.48C192.94 292.684 186.034 292.821 179.137 292.966L173.962 293.076L171.404 293.162C170.564 293.237 169.735 293.403 168.931 293.656C165.606 294.482 162.281 295.454 158.922 296.221Z" fill="#DBDBDB"/>
<path d="M141.695 338.541C145.404 337.561 149.13 336.641 152.864 335.738C156.599 334.834 160.342 333.982 164.084 333.122C165.96 332.687 167.819 332.27 169.729 331.912L175.416 330.966C179.201 330.369 182.995 329.773 186.806 329.262C183.046 330.054 179.269 330.77 175.492 331.477L169.822 332.5C167.972 332.866 166.088 333.352 164.221 333.727L152.967 336.198C149.215 337.007 145.464 337.8 141.695 338.541Z" fill="#DBDBDB"/>
<path d="M194.832 327.515C198.575 326.612 202.335 325.769 206.103 324.959C209.872 324.15 213.64 323.357 217.409 322.573C219.302 322.181 221.177 321.815 223.104 321.483L228.817 320.63C232.636 320.111 236.49 319.591 240.284 319.156C236.498 319.881 232.696 320.511 228.893 321.142L223.181 322.045C221.314 322.377 219.421 322.803 217.537 323.161L206.197 325.394C202.412 326.135 198.626 326.859 194.832 327.515Z" fill="#DBDBDB"/>
<path d="M222.719 276.312H101.812V281.732H222.719V276.312Z" fill="#455A64"/>
<path d="M222.726 276.312H161.867V281.732H222.726V276.312Z" fill="#37474F"/>
<path d="M168.418 281.725H286.247L301.653 201.746H183.824L168.418 281.725Z" fill="#455A64"/>
<path d="M227.858 241.734C227.759 242.646 227.855 243.57 228.14 244.442C228.426 245.315 228.894 246.117 229.513 246.795C230.132 247.472 230.889 248.011 231.733 248.374C232.577 248.737 233.488 248.916 234.406 248.9C236.359 248.866 238.231 248.118 239.669 246.797C241.106 245.477 242.01 243.675 242.208 241.734C242.307 240.821 242.211 239.898 241.925 239.025C241.64 238.152 241.172 237.351 240.553 236.673C239.933 235.995 239.177 235.456 238.333 235.093C237.489 234.73 236.578 234.551 235.66 234.567C233.708 234.603 231.836 235.352 230.399 236.672C228.962 237.992 228.058 239.793 227.858 241.734Z" fill="#A6A6A6"/>
<path d="M291.777 253.008L286.244 281.724H194.871L291.777 253.008Z" fill="#37474F"/>
<path d="M315.938 193.857C330.245 207.857 332.649 229.5 329.631 248.468C329.554 248.894 328.889 248.775 328.889 248.374C328.889 244.054 329.017 239.777 329.009 235.516C328.923 235.32 328.864 235.133 328.778 234.937C325.053 232.227 321.617 229.159 319.494 224.967C317.106 220.272 316.169 214.972 314.378 210.072C314.208 209.603 314.711 209.74 315.043 209.978C323.74 216.395 326.511 223.297 329.009 232.517C328.956 227.694 328.448 222.886 327.491 218.159C325.615 209.407 321.898 200.733 315.606 194.24C315.333 194.001 315.691 193.618 315.938 193.857Z" fill="#263238"/>
<path d="M313.254 195.5C310.798 195.585 309.255 199.513 307.337 200.655C307.136 200.82 306.902 200.941 306.651 201.01C306.4 201.078 306.138 201.093 305.881 201.053C305.624 201.012 305.378 200.918 305.161 200.776C304.943 200.634 304.757 200.448 304.617 200.229C302.724 197.579 305.324 194.264 307.78 192.484C306.024 193.199 304.574 194.469 302.664 194.827C302.422 194.907 302.166 194.933 301.913 194.905C301.66 194.877 301.416 194.794 301.197 194.663C300.979 194.532 300.791 194.356 300.647 194.146C300.503 193.936 300.406 193.697 300.362 193.446C299.51 189.834 304.063 188.232 307.183 188.155C305.674 187.107 301.351 184.252 303.653 182.855C305.955 181.457 311.054 185.522 312.708 186.868C315.138 188.837 318.037 191.785 318.147 194.869C318.301 198.465 315.146 196.25 313.254 195.5Z" fill="#176B87"/>
<path opacity="0.1" d="M313.254 195.5C310.798 195.585 309.255 199.513 307.337 200.655C307.136 200.82 306.902 200.941 306.651 201.01C306.4 201.078 306.138 201.093 305.881 201.053C305.624 201.012 305.378 200.918 305.161 200.776C304.943 200.634 304.757 200.448 304.617 200.229C302.724 197.579 305.324 194.264 307.78 192.484C306.024 193.199 304.574 194.469 302.664 194.827C302.422 194.907 302.166 194.933 301.913 194.905C301.66 194.877 301.416 194.794 301.197 194.663C300.979 194.532 300.791 194.356 300.647 194.146C300.503 193.936 300.406 193.697 300.362 193.446C299.51 189.834 304.063 188.232 307.183 188.155C305.674 187.107 301.351 184.252 303.653 182.855C305.955 181.457 311.054 185.522 312.708 186.868C315.138 188.837 318.037 191.785 318.147 194.869C318.301 198.465 315.146 196.25 313.254 195.5Z" fill="black"/>
<path d="M313.967 196.108C310.821 194.677 304.776 196.739 304.265 195.546C303.225 193.126 308.05 191.464 310.659 191.14C308.255 190.493 303.66 189.436 303.796 187.144C303.966 184.315 310.855 186.743 314.334 189.419C318.725 192.776 318.699 196.023 317.975 196.67C316.977 197.565 314.488 196.347 313.967 196.108Z" fill="#176B87"/>
<path d="M348.514 192.484C333.687 205.922 330.465 227.463 332.758 246.525C332.818 246.96 333.483 246.866 333.5 246.465C333.662 242.154 333.696 237.868 333.875 233.607C333.96 233.42 334.028 233.241 334.114 233.045C337.95 230.488 341.497 227.549 343.782 223.424C346.34 218.832 347.482 213.574 349.494 208.743C349.682 208.282 349.179 208.402 348.847 208.623C339.903 214.707 336.91 221.499 334.028 230.616C334.262 225.799 334.95 221.014 336.083 216.326C338.3 207.652 342.341 199.122 348.872 192.876C349.119 192.638 348.77 192.246 348.514 192.484Z" fill="#263238"/>
<path d="M351.132 194.215C353.587 194.393 354.985 198.381 356.853 199.6C357.047 199.771 357.275 199.9 357.523 199.977C357.771 200.055 358.032 200.079 358.289 200.048C358.547 200.018 358.795 199.933 359.018 199.8C359.24 199.667 359.432 199.488 359.581 199.276C361.585 196.72 359.103 193.311 356.725 191.411C358.43 192.195 359.854 193.516 361.729 193.967C361.969 194.055 362.224 194.09 362.477 194.07C362.731 194.051 362.978 193.977 363.201 193.855C363.424 193.732 363.618 193.563 363.77 193.359C363.922 193.155 364.029 192.921 364.083 192.672C365.046 189.093 360.578 187.321 357.475 187.125C359.018 186.137 363.443 183.452 361.209 181.961C358.976 180.47 353.706 184.347 352.001 185.625C349.503 187.5 346.494 190.337 346.263 193.414C345.982 196.992 349.213 194.896 351.132 194.215Z" fill="#176B87"/>
<path opacity="0.1" d="M351.132 194.215C353.587 194.393 354.985 198.381 356.853 199.6C357.047 199.771 357.275 199.9 357.523 199.977C357.771 200.055 358.032 200.079 358.289 200.048C358.547 200.018 358.795 199.933 359.018 199.8C359.24 199.667 359.432 199.488 359.581 199.276C361.585 196.72 359.103 193.311 356.725 191.411C358.43 192.195 359.854 193.516 361.729 193.967C361.969 194.055 362.224 194.09 362.477 194.07C362.731 194.051 362.978 193.977 363.201 193.855C363.424 193.732 363.618 193.563 363.77 193.359C363.922 193.155 364.029 192.921 364.083 192.672C365.046 189.093 360.578 187.321 357.475 187.125C359.018 186.137 363.443 183.452 361.209 181.961C358.976 180.47 353.706 184.347 352.001 185.625C349.503 187.5 346.494 190.337 346.263 193.414C345.982 196.992 349.213 194.896 351.132 194.215Z" fill="black"/>
<path d="M350.404 194.795C353.601 193.483 359.561 195.775 360.124 194.599C361.258 192.221 356.492 190.381 353.9 189.955C356.33 189.401 360.959 188.54 360.908 186.223C360.84 183.394 353.874 185.558 350.293 188.089C345.775 191.284 345.681 194.531 346.38 195.204C347.343 196.133 349.85 195.008 350.404 194.795Z" fill="#176B87"/>
<path d="M333.358 227.941C332.352 235.129 330.813 242.233 328.754 249.193C328.727 249.331 328.646 249.452 328.529 249.53C328.413 249.609 328.27 249.637 328.132 249.61C327.994 249.583 327.872 249.502 327.794 249.386C327.716 249.269 327.687 249.126 327.714 248.988C328.694 242.436 330.468 236.011 331.44 229.458C332.503 222.834 332.883 216.118 332.574 209.417C331.951 198.382 328.959 186.64 321.754 178.008C321.592 177.803 321.925 177.514 322.095 177.701C336.513 194.513 334.219 215.126 334.211 216.966C336.248 210.013 338.354 202.037 346.079 194.948C346.411 194.641 346.676 194.786 346.616 195.306C345.235 208.215 341.645 214.955 334.16 221.849C333.949 223.928 333.682 225.959 333.358 227.941Z" fill="#263238"/>
<path d="M321.616 179.975C319.058 178.825 315.443 182.123 312.876 182.353C311.521 182.472 310.515 181.935 310.276 180.538C309.637 176.831 313.985 174.752 317.455 174.087C315.272 173.951 313.124 174.539 310.984 173.96C310.696 173.92 310.42 173.819 310.174 173.665C309.928 173.511 309.717 173.306 309.556 173.065C309.395 172.823 309.287 172.55 309.239 172.264C309.191 171.977 309.205 171.684 309.278 171.403C310.233 167.236 315.75 167.85 319.015 169.341C317.983 167.492 314.931 162.362 318.018 162.064C321.104 161.766 324.352 168.549 325.393 170.781C326.927 174.045 328.453 178.561 327.012 181.859C325.35 185.591 323.201 181.714 321.616 179.975Z" fill="#176B87"/>
<path opacity="0.1" d="M321.616 179.975C319.058 178.825 315.443 182.123 312.876 182.353C311.521 182.472 310.515 181.935 310.276 180.538C309.637 176.831 313.985 174.752 317.455 174.087C315.272 173.951 313.124 174.539 310.984 173.96C310.696 173.92 310.42 173.819 310.174 173.665C309.928 173.511 309.717 173.306 309.556 173.065C309.395 172.823 309.287 172.55 309.239 172.264C309.191 171.977 309.205 171.684 309.278 171.403C310.233 167.236 315.75 167.85 319.015 169.341C317.983 167.492 314.931 162.362 318.018 162.064C321.104 161.766 324.352 168.549 325.393 170.781C326.927 174.045 328.453 178.561 327.012 181.859C325.35 185.591 323.201 181.714 321.616 179.975Z" fill="black"/>
<path d="M322.053 180.965C319.495 177.897 312.206 176.994 312.274 175.494C312.41 172.461 318.242 173.168 321.124 174.148C318.958 172.265 314.712 168.874 316.008 166.547C317.611 163.701 323.528 169.683 325.805 174.216C328.661 179.908 326.998 183.266 325.915 183.589C324.44 183.99 322.471 181.468 322.053 180.965Z" fill="#176B87"/>
<path d="M342.848 231.86L349.209 280.43H310.492C311.294 276.127 318.498 231.801 318.498 231.801L342.848 231.86Z" fill="#176B87"/>
<path d="M57.739 314.02H36.3047V317.36H57.739V314.02Z" fill="#455A64"/>
<path d="M57.739 314.02H36.3047V316.226H57.739V314.02Z" fill="#263238"/>
<path d="M83.1916 305.029C81.8829 306.948 80.0498 308.45 77.9108 309.356C75.7717 310.262 73.4171 310.535 71.1273 310.142C70.3846 310.003 69.6566 309.795 68.9532 309.52C67.8834 309.107 66.8649 308.572 65.918 307.926L68.6463 303.887C69.1496 304.245 69.6864 304.553 70.2492 304.807C75.3647 307.117 78.5875 303.103 79.227 302.174C82.1599 298.05 83.2171 288.617 80.2331 284.996C80.037 284.723 79.1844 284.297 75.7228 285.039C75.0919 285.175 74.3672 285.337 73.5487 285.567C72.9138 285.783 72.2555 285.923 71.5877 285.984L71.5025 283.564L71.2637 281.144C71.4854 281.102 71.835 281.008 72.2869 280.88C73.883 280.414 75.5138 280.074 77.1637 279.866C79.7215 279.602 82.3646 279.909 83.9845 281.911C88.8358 287.876 86.8748 299.848 83.1916 305.029Z" fill="#455A64"/>
<path d="M68.6463 303.93C69.1496 304.287 69.6864 304.596 70.2492 304.85L68.9532 309.562C67.8834 309.15 66.8649 308.615 65.918 307.969L68.6463 303.93Z" fill="#263238"/>
<path d="M77.1656 279.918L75.7247 285.09C75.0938 285.227 74.3691 285.388 73.5506 285.619C72.9156 285.834 72.2574 285.974 71.5896 286.036L71.5044 283.616L71.2656 281.196C71.4873 281.154 71.8369 281.06 72.2887 280.932C73.8849 280.465 75.5156 280.126 77.1656 279.918Z" fill="#263238"/>
<path d="M18.5117 273.594C18.5117 273.594 21.0695 295.425 25.5286 304.619C29.9877 313.813 36.169 314.844 40.0227 314.844H54.0394C57.8846 314.844 64.0915 313.813 68.5336 304.619C72.9756 295.425 75.5419 273.594 75.5419 273.594H18.5117Z" fill="#455A64"/>
<path d="M21.3242 286.521C21.3226 286.247 21.4021 285.98 21.5529 285.751C21.7036 285.523 21.9187 285.345 22.171 285.239C22.4232 285.134 22.7012 285.105 22.9696 285.157C23.2381 285.21 23.485 285.34 23.6791 285.533C23.8731 285.726 24.0055 285.972 24.0595 286.24C24.1135 286.508 24.0866 286.786 23.9823 287.038C23.878 287.291 23.701 287.507 23.4737 287.659C23.2464 287.811 22.979 287.893 22.7055 287.893C22.3406 287.893 21.9906 287.748 21.7318 287.491C21.473 287.234 21.3265 286.885 21.3242 286.521ZM21.58 286.521C21.58 286.743 21.646 286.961 21.7697 287.146C21.8934 287.331 22.0691 287.475 22.2748 287.56C22.4804 287.645 22.7067 287.667 22.925 287.624C23.1433 287.58 23.3439 287.473 23.5012 287.316C23.6586 287.159 23.7658 286.958 23.8093 286.74C23.8527 286.522 23.8304 286.296 23.7452 286.09C23.66 285.885 23.5158 285.709 23.3307 285.586C23.1456 285.462 22.928 285.396 22.7055 285.396C22.4099 285.4 22.128 285.521 21.9207 285.731C21.7133 285.942 21.597 286.225 21.5971 286.521H21.58ZM61.9675 279.465C61.9675 279.194 62.048 278.929 62.1989 278.703C62.3497 278.477 62.5641 278.302 62.8149 278.198C63.0657 278.094 63.3417 278.067 63.608 278.12C63.8743 278.173 64.1189 278.303 64.3108 278.495C64.5028 278.687 64.6335 278.932 64.6865 279.198C64.7395 279.464 64.7123 279.74 64.6084 279.99C64.5045 280.241 64.3286 280.455 64.1028 280.606C63.8771 280.757 63.6117 280.837 63.3402 280.837C62.9762 280.837 62.627 280.693 62.3696 280.435C62.1121 280.178 61.9675 279.829 61.9675 279.465ZM62.2233 279.465C62.2233 279.688 62.2895 279.906 62.4136 280.091C62.5376 280.276 62.7139 280.42 62.92 280.505C63.1262 280.59 63.3529 280.612 63.5714 280.568C63.79 280.524 63.9905 280.416 64.1475 280.258C64.3046 280.099 64.4111 279.898 64.4536 279.679C64.496 279.461 64.4725 279.234 64.386 279.029C64.2995 278.824 64.154 278.648 63.9678 278.526C63.7816 278.403 63.5631 278.339 63.3402 278.34C63.1928 278.34 63.0469 278.37 62.9108 278.426C62.7747 278.483 62.6512 278.566 62.5474 278.67C62.4436 278.775 62.3615 278.899 62.3059 279.035C62.2502 279.172 62.2222 279.318 62.2233 279.465ZM59.9639 299.583C59.9622 299.31 60.042 299.042 60.1931 298.813C60.3443 298.585 60.5599 298.407 60.8126 298.301C61.0653 298.196 61.3438 298.168 61.6125 298.221C61.8812 298.274 62.1281 298.405 62.3218 298.599C62.5154 298.792 62.6472 299.039 62.7002 299.308C62.7532 299.576 62.7251 299.855 62.6195 300.107C62.5139 300.36 62.3356 300.575 62.1072 300.726C61.8787 300.877 61.6105 300.957 61.3366 300.955C60.9732 300.953 60.6254 300.808 60.3684 300.551C60.1115 300.294 59.9662 299.947 59.9639 299.583ZM60.2197 299.583C60.2197 299.806 60.2859 300.024 60.41 300.209C60.534 300.394 60.7103 300.539 60.9164 300.623C61.1226 300.708 61.3493 300.73 61.5678 300.686C61.7864 300.642 61.9869 300.534 62.1439 300.376C62.301 300.218 62.4075 300.016 62.45 299.798C62.4924 299.579 62.4689 299.353 62.3824 299.147C62.2959 298.942 62.1504 298.767 61.9642 298.644C61.778 298.522 61.5595 298.457 61.3366 298.459C61.1874 298.456 61.0392 298.484 60.9007 298.539C60.7622 298.595 60.6361 298.677 60.5298 298.782C60.4234 298.887 60.339 299.012 60.2814 299.149C60.2238 299.287 60.1941 299.434 60.1941 299.583H60.2197ZM71.1585 275.869C71.1568 275.596 71.2364 275.328 71.3871 275.1C71.5379 274.872 71.753 274.694 72.0052 274.588C72.2575 274.482 72.5354 274.454 72.8039 274.506C73.0724 274.558 73.3193 274.689 73.5133 274.882C73.7073 275.074 73.8397 275.32 73.8937 275.588C73.9477 275.856 73.9209 276.134 73.8166 276.387C73.7123 276.64 73.5353 276.856 73.308 277.008C73.0806 277.16 72.8133 277.241 72.5397 277.241C72.3569 277.245 72.1753 277.212 72.0053 277.144C71.8353 277.077 71.6804 276.977 71.5495 276.849C71.4187 276.721 71.3144 276.569 71.2429 276.401C71.1714 276.233 71.134 276.052 71.1329 275.869H71.1585ZM71.4143 275.869C71.4143 276.092 71.4803 276.309 71.604 276.494C71.7276 276.679 71.9034 276.823 72.109 276.909C72.3147 276.994 72.541 277.016 72.7593 276.973C72.9776 276.929 73.1781 276.822 73.3355 276.665C73.4929 276.507 73.6001 276.307 73.6435 276.089C73.687 275.871 73.6647 275.644 73.5795 275.439C73.4943 275.233 73.3501 275.058 73.165 274.934C72.9799 274.811 72.7623 274.745 72.5397 274.745C72.3898 274.741 72.2407 274.768 72.1012 274.823C71.9617 274.878 71.8346 274.96 71.7273 275.065C71.6201 275.17 71.5349 275.295 71.4768 275.433C71.4186 275.571 71.3887 275.72 71.3887 275.869H71.4143ZM52.0348 284.39C52.0331 284.117 52.1129 283.849 52.264 283.62C52.4151 283.392 52.6307 283.214 52.8835 283.108C53.1362 283.003 53.4146 282.975 53.6833 283.028C53.952 283.081 54.1989 283.212 54.3926 283.406C54.5863 283.599 54.718 283.846 54.771 284.115C54.8241 284.383 54.796 284.662 54.6904 284.914C54.5848 285.167 54.4064 285.382 54.178 285.533C53.9496 285.684 53.6814 285.764 53.4075 285.762C53.044 285.767 52.6934 285.628 52.4317 285.376C52.1699 285.124 52.0181 284.779 52.0092 284.416L52.0348 284.39ZM52.2906 284.39C52.2786 284.617 52.3352 284.841 52.453 285.034C52.5707 285.228 52.7441 285.381 52.9504 285.474C53.1568 285.568 53.3865 285.597 53.6096 285.557C53.8327 285.518 54.0387 285.412 54.2007 285.254C54.3628 285.096 54.4733 284.893 54.5179 284.671C54.5624 284.449 54.5389 284.219 54.4505 284.01C54.362 283.802 54.2127 283.625 54.022 283.503C53.8314 283.381 53.6083 283.319 53.3819 283.325C53.0945 283.332 52.8207 283.449 52.6174 283.652C52.4141 283.855 52.2971 284.129 52.2906 284.416V284.39ZM37.0802 299.013C37.0752 298.739 37.1518 298.469 37.3005 298.239C37.4491 298.008 37.663 297.828 37.9149 297.719C38.1668 297.611 38.4453 297.58 38.7149 297.63C38.9845 297.68 39.233 297.81 39.4287 298.002C39.6244 298.194 39.7585 298.44 39.8139 298.708C39.8693 298.977 39.8435 299.255 39.7398 299.509C39.636 299.763 39.459 299.98 39.2314 300.133C39.0037 300.286 38.7357 300.367 38.4614 300.367C38.0995 300.368 37.752 300.226 37.4937 299.972C37.2354 299.719 37.0869 299.374 37.0802 299.013ZM37.336 299.013C37.336 299.235 37.402 299.453 37.5257 299.637C37.6493 299.822 37.8251 299.967 38.0308 300.052C38.2364 300.137 38.4627 300.159 38.681 300.116C38.8993 300.072 39.0998 299.965 39.2572 299.808C39.4146 299.651 39.5218 299.45 39.5652 299.232C39.6087 299.014 39.5864 298.788 39.5012 298.582C39.416 298.377 39.2718 298.201 39.0867 298.077C38.9016 297.954 38.684 297.888 38.4614 297.888C38.163 297.888 37.8767 298.006 37.6656 298.217C37.4546 298.428 37.336 298.714 37.336 299.013ZM46.2115 275.869C46.2115 275.598 46.292 275.333 46.4429 275.107C46.5937 274.882 46.8081 274.706 47.0589 274.602C47.3097 274.498 47.5857 274.471 47.852 274.524C48.1183 274.577 48.3629 274.707 48.5548 274.899C48.7468 275.091 48.8776 275.336 48.9305 275.602C48.9835 275.868 48.9563 276.144 48.8524 276.394C48.7485 276.645 48.5726 276.859 48.3468 277.01C48.1211 277.161 47.8557 277.241 47.5842 277.241C47.2202 277.241 46.871 277.097 46.6136 276.839C46.3562 276.582 46.2115 276.233 46.2115 275.869ZM46.4588 275.869C46.4588 276.092 46.5248 276.309 46.6485 276.494C46.7721 276.679 46.9479 276.823 47.1535 276.909C47.3592 276.994 47.5855 277.016 47.8038 276.973C48.0221 276.929 48.2226 276.822 48.38 276.665C48.5374 276.507 48.6446 276.307 48.688 276.089C48.7314 275.871 48.7092 275.644 48.624 275.439C48.5388 275.233 48.3946 275.058 48.2095 274.934C48.0244 274.811 47.8068 274.745 47.5842 274.745C47.2857 274.745 46.9995 274.863 46.7884 275.074C46.5774 275.285 46.4588 275.571 46.4588 275.869ZM47.9082 293.551C47.9065 293.277 47.9861 293.009 48.1368 292.781C48.2876 292.553 48.5027 292.375 48.7549 292.269C49.0071 292.163 49.2851 292.135 49.5536 292.187C49.8221 292.239 50.069 292.37 50.263 292.563C50.457 292.756 50.5894 293.002 50.6434 293.27C50.6974 293.538 50.6706 293.816 50.5663 294.068C50.462 294.321 50.285 294.537 50.0577 294.689C49.8303 294.841 49.563 294.922 49.2894 294.922C48.9253 294.92 48.5765 294.775 48.3182 294.519C48.0599 294.262 47.9127 293.915 47.9082 293.551ZM48.164 293.551C48.164 293.773 48.23 293.991 48.3537 294.176C48.4773 294.36 48.6531 294.505 48.8587 294.59C49.0644 294.675 49.2907 294.697 49.509 294.654C49.7273 294.61 49.9278 294.503 50.0852 294.346C50.2426 294.189 50.3498 293.988 50.3932 293.77C50.4366 293.552 50.4144 293.326 50.3292 293.12C50.244 292.915 50.0997 292.739 49.9147 292.615C49.7296 292.492 49.512 292.426 49.2894 292.426C48.9909 292.426 48.7047 292.544 48.4936 292.755C48.2826 292.966 48.164 293.252 48.164 293.551ZM61.5242 309.971C61.5242 309.699 61.6047 309.434 61.7555 309.208C61.9063 308.983 62.1207 308.807 62.3716 308.703C62.6224 308.599 62.8984 308.572 63.1647 308.625C63.4309 308.678 63.6755 308.809 63.8675 309.001C64.0595 309.192 64.1902 309.437 64.2432 309.703C64.2961 309.969 64.2689 310.245 64.165 310.496C64.0612 310.746 63.8852 310.961 63.6595 311.111C63.4337 311.262 63.1684 311.343 62.8969 311.343C62.714 311.341 62.5332 311.304 62.3649 311.233C62.1967 311.161 62.0443 311.057 61.9166 310.926C61.7889 310.795 61.6884 310.641 61.6211 310.471C61.5537 310.301 61.5208 310.119 61.5242 309.937V309.971ZM61.78 309.971C61.78 310.193 61.8462 310.411 61.9702 310.596C62.0943 310.782 62.2706 310.926 62.4767 311.011C62.6828 311.096 62.9096 311.117 63.1281 311.073C63.3466 311.029 63.5472 310.921 63.7042 310.763C63.8613 310.605 63.9678 310.404 64.0102 310.185C64.0527 309.966 64.0292 309.74 63.9427 309.534C63.8562 309.329 63.7106 309.154 63.5244 309.031C63.3382 308.909 63.1198 308.844 62.8969 308.846C62.605 308.846 62.3247 308.96 62.116 309.164C61.9073 309.368 61.7866 309.645 61.78 309.937V309.971ZM28.1365 277.923C28.1382 277.652 28.2201 277.388 28.372 277.163C28.5238 276.939 28.7388 276.764 28.9898 276.662C29.2407 276.559 29.5164 276.533 29.7822 276.587C30.0479 276.641 30.2917 276.772 30.4828 276.964C30.6739 277.157 30.8038 277.401 30.8561 277.667C30.9083 277.933 30.8807 278.208 30.7765 278.458C30.6724 278.709 30.4965 278.922 30.2709 279.073C30.0454 279.223 29.7803 279.303 29.5092 279.303C29.1443 279.301 28.7952 279.155 28.538 278.896C28.2808 278.637 28.1365 278.288 28.1365 277.923ZM28.3923 277.923C28.3906 278.146 28.4554 278.365 28.5784 278.551C28.7014 278.737 28.8771 278.883 29.0831 278.969C29.2891 279.055 29.516 279.078 29.7351 279.035C29.9542 278.992 30.1556 278.885 30.3135 278.727C30.4714 278.569 30.5787 278.368 30.6219 278.149C30.665 277.93 30.642 277.703 30.5558 277.497C30.4696 277.291 30.324 277.116 30.1376 276.993C29.9512 276.87 29.7325 276.805 29.5092 276.807C29.2181 276.816 28.9418 276.937 28.7383 277.145C28.5348 277.353 28.4199 277.632 28.4178 277.923H28.3923ZM66.4437 289.776C66.442 289.502 66.5215 289.235 66.6723 289.007C66.823 288.778 67.0381 288.6 67.2904 288.494C67.5426 288.389 67.8206 288.36 68.0891 288.412C68.3575 288.465 68.6045 288.595 68.7985 288.788C68.9925 288.981 69.1249 289.227 69.1789 289.495C69.2329 289.763 69.206 290.041 69.1017 290.294C68.9974 290.546 68.8204 290.762 68.5931 290.914C68.3658 291.066 68.0984 291.148 67.8249 291.148C67.4607 291.145 67.1119 291 66.8536 290.744C66.5953 290.487 66.4481 290.14 66.4437 289.776ZM66.6994 289.776C66.6994 289.998 66.7654 290.216 66.8891 290.401C67.0128 290.586 67.1885 290.73 67.3942 290.815C67.5998 290.9 67.8261 290.922 68.0444 290.879C68.2627 290.836 68.4633 290.728 68.6207 290.571C68.7781 290.414 68.8852 290.213 68.9287 289.995C68.9721 289.777 68.9498 289.551 68.8646 289.345C68.7794 289.14 68.6352 288.964 68.4501 288.841C68.265 288.717 68.0475 288.651 67.8249 288.651C67.5264 288.651 67.2401 288.769 67.0291 288.98C66.818 289.191 66.6994 289.477 66.6994 289.776ZM38.3335 285.66C38.3335 285.389 38.4141 285.124 38.5649 284.898C38.7157 284.672 38.9301 284.496 39.1809 284.393C39.4317 284.289 39.7077 284.262 39.974 284.315C40.2403 284.368 40.4849 284.498 40.6769 284.69C40.8688 284.882 40.9996 285.126 41.0525 285.392C41.1055 285.659 41.0783 285.934 40.9744 286.185C40.8705 286.436 40.6946 286.65 40.4688 286.801C40.2431 286.952 39.9777 287.032 39.7062 287.032C39.3422 287.032 38.993 286.887 38.7356 286.63C38.4782 286.373 38.3335 286.024 38.3335 285.66ZM38.5808 285.66C38.5791 285.883 38.6437 286.101 38.7663 286.287C38.8889 286.473 39.0641 286.619 39.2696 286.705C39.4751 286.792 39.7016 286.815 39.9205 286.773C40.1394 286.73 40.3407 286.624 40.499 286.467C40.6572 286.31 40.7652 286.11 40.8094 285.891C40.8535 285.673 40.8317 285.446 40.7468 285.24C40.6619 285.034 40.5176 284.858 40.3324 284.734C40.1471 284.61 39.9292 284.544 39.7062 284.544C39.4092 284.544 39.1242 284.661 38.9134 284.87C38.7026 285.079 38.583 285.363 38.5808 285.66ZM47.9082 307.866C47.9065 307.593 47.9861 307.325 48.1368 307.097C48.2876 306.869 48.5027 306.69 48.7549 306.585C49.0071 306.479 49.2851 306.45 49.5536 306.503C49.8221 306.555 50.069 306.686 50.263 306.878C50.457 307.071 50.5894 307.317 50.6434 307.585C50.6974 307.853 50.6706 308.131 50.5663 308.384C50.462 308.636 50.285 308.853 50.0577 309.005C49.8303 309.157 49.563 309.238 49.2894 309.238C48.9246 309.238 48.5745 309.094 48.3158 308.837C48.057 308.58 47.9105 308.231 47.9082 307.866ZM48.164 307.866C48.164 308.088 48.23 308.306 48.3537 308.491C48.4773 308.676 48.6531 308.82 48.8587 308.905C49.0644 308.99 49.2907 309.013 49.509 308.969C49.7273 308.926 49.9278 308.819 50.0852 308.661C50.2426 308.504 50.3498 308.304 50.3932 308.085C50.4366 307.867 50.4144 307.641 50.3292 307.436C50.244 307.23 50.0997 307.054 49.9147 306.931C49.7296 306.807 49.512 306.741 49.2894 306.741C48.9909 306.741 48.7047 306.86 48.4936 307.071C48.2826 307.282 48.164 307.568 48.164 307.866ZM36.3555 312.825C36.3555 312.554 36.436 312.289 36.5869 312.063C36.7377 311.837 36.9521 311.662 37.2029 311.558C37.4537 311.454 37.7297 311.427 37.996 311.48C38.2623 311.533 38.5069 311.663 38.6988 311.855C38.8908 312.047 39.0215 312.291 39.0745 312.558C39.1275 312.824 39.1003 313.1 38.9964 313.35C38.8925 313.601 38.7166 313.815 38.4908 313.966C38.2651 314.117 37.9997 314.197 37.7282 314.197C37.3648 314.195 37.017 314.05 36.76 313.793C36.5031 313.536 36.3578 313.188 36.3555 312.825ZM36.6113 312.825C36.6113 313.048 36.6775 313.266 36.8016 313.451C36.9256 313.636 37.1019 313.78 37.308 313.865C37.5142 313.95 37.7409 313.972 37.9594 313.928C38.178 313.884 38.3785 313.776 38.5355 313.618C38.6926 313.459 38.7991 313.258 38.8416 313.039C38.884 312.821 38.8605 312.594 38.774 312.389C38.6875 312.183 38.542 312.008 38.3558 311.886C38.1696 311.763 37.9511 311.699 37.7282 311.7C37.5808 311.7 37.4349 311.73 37.2988 311.786C37.1627 311.843 37.0392 311.926 36.9354 312.03C36.8316 312.135 36.7495 312.259 36.6939 312.395C36.6382 312.532 36.6102 312.678 36.6113 312.825ZM28.1365 292.264C28.1365 291.993 28.217 291.727 28.3678 291.502C28.5187 291.276 28.733 291.1 28.9839 290.996C29.2347 290.893 29.5107 290.865 29.777 290.918C30.0432 290.971 30.2878 291.102 30.4798 291.294C30.6718 291.486 30.8025 291.73 30.8555 291.996C30.9084 292.262 30.8813 292.538 30.7774 292.789C30.6735 293.04 30.4975 293.254 30.2718 293.405C30.0461 293.555 29.7807 293.636 29.5092 293.636C29.1451 293.636 28.796 293.491 28.5385 293.234C28.2811 292.977 28.1365 292.628 28.1365 292.264ZM28.3923 292.264C28.3906 292.487 28.4554 292.706 28.5784 292.892C28.7014 293.078 28.8771 293.224 29.0831 293.31C29.2891 293.396 29.516 293.419 29.7351 293.376C29.9542 293.333 30.1556 293.226 30.3135 293.068C30.4714 292.91 30.5787 292.709 30.6219 292.49C30.665 292.271 30.642 292.044 30.5558 291.838C30.4696 291.632 30.324 291.457 30.1376 291.334C29.9512 291.211 29.7325 291.146 29.5092 291.148C29.2181 291.156 28.9418 291.278 28.7383 291.486C28.5348 291.694 28.4199 291.973 28.4178 292.264H28.3923ZM26.8917 304.628C26.8917 304.357 26.9722 304.091 27.123 303.866C27.2739 303.64 27.4883 303.464 27.7391 303.361C27.9899 303.257 28.2659 303.23 28.5322 303.282C28.7985 303.335 29.043 303.466 29.235 303.658C29.427 303.85 29.5577 304.094 29.6107 304.36C29.6637 304.626 29.6365 304.902 29.5326 305.153C29.4287 305.404 29.2527 305.618 29.027 305.769C28.8013 305.919 28.5359 306 28.2644 306C27.9003 306 27.5512 305.855 27.2937 305.598C27.0363 305.341 26.8917 304.992 26.8917 304.628ZM27.139 304.628C27.139 304.85 27.205 305.068 27.3286 305.253C27.4523 305.438 27.6281 305.582 27.8337 305.667C28.0393 305.752 28.2656 305.775 28.4839 305.731C28.7023 305.688 28.9028 305.581 29.0602 305.423C29.2176 305.266 29.3248 305.066 29.3682 304.847C29.4116 304.629 29.3893 304.403 29.3041 304.198C29.219 303.992 29.0747 303.816 28.8896 303.693C28.7046 303.569 28.487 303.503 28.2644 303.503C27.9659 303.503 27.6796 303.622 27.4686 303.833C27.2575 304.044 27.139 304.33 27.139 304.628Z" fill="white"/>
<path d="M186.864 28.0158C187.518 25.7616 187.361 23.3496 186.42 21.199C185.022 18.191 181.995 16.9384 178.917 16.2994C175.405 15.5922 171.825 15.2807 168.243 15.3706C161.102 15.5353 154.081 17.2416 147.661 20.3724C144.59 21.8071 141.756 23.7005 139.255 25.9878L138.982 26.252C138.283 26.7121 137.601 27.1893 136.944 27.6835C134.383 29.5296 132.169 31.8144 130.405 34.4322C129.887 35.2371 129.425 36.077 129.024 36.9459C128.34 38.1816 127.824 39.5025 127.489 40.8741C127.107 42.4031 127.156 44.0076 127.628 45.5111C128.1 47.0145 128.979 48.3585 130.166 49.3952C132.724 51.6788 136.134 52.4713 139.493 52.6246C142.378 52.7252 145.267 52.5912 148.13 52.2242C149.793 52.1304 151.438 51.96 153.033 51.7385C154.081 51.5936 155.121 51.4232 156.17 51.2528C156.656 55.4536 158.336 59.6119 159.896 63.472C159.896 63.5657 160.092 63.5231 160.049 63.4208C158.506 59.5182 156.955 55.3599 156.639 51.1675C161.969 50.3539 167.163 48.8203 172.08 46.6088C175.035 45.2311 177.756 43.3996 180.145 41.1809C182.157 39.2721 184.195 36.571 184.059 33.6482C185.003 32.587 185.766 31.3779 186.318 30.0694C186.585 29.4103 186.768 28.7204 186.864 28.0158ZM148.787 50.8693C144.166 51.1931 138.769 50.8693 134.531 48.6027C137.473 49.3524 140.485 49.795 143.518 49.9235C146.912 50.0675 150.313 49.8561 153.664 49.2929C154.039 49.2929 154.414 49.2929 154.772 49.2247C155.13 49.1566 155.625 49.1225 155.983 49.0628V49.719C154.192 50.1109 152.385 50.4347 150.577 50.6989C149.997 50.7585 149.392 50.8267 148.787 50.8693ZM166.077 19.8186C169.146 19.979 172.162 20.68 174.987 21.8892C177.468 23.0395 179.838 25.0335 179.83 27.9988C179.83 28.1266 179.83 28.2459 179.787 28.3737C178.845 27.9932 177.86 27.7271 176.854 27.5813C176.59 27.5386 176.317 27.5216 176.053 27.496C174.905 26.8415 173.679 26.3348 172.404 25.9878C170.72 23.9153 168.468 22.3785 165.924 21.5654C163.619 20.7868 161.204 20.384 158.771 20.3724C159.708 20.1509 160.638 19.9549 161.584 19.7674C163.082 19.6908 164.582 19.7079 166.077 19.8186ZM178.866 35.1565C178.616 34.8408 178.33 34.5549 178.014 34.3044C178.329 33.9635 178.619 33.5971 178.909 33.2137C179.009 33.8517 179.009 34.5014 178.909 35.1394L178.866 35.1565ZM159.444 48.4152C160.979 48.1198 162.508 47.7818 164.031 47.4012C161.593 48.2777 159.105 49.0061 156.579 49.5826C156.579 49.3781 156.579 49.1651 156.579 48.9606C157.543 48.7987 158.489 48.6027 159.444 48.4152ZM157.534 44.1036C157.551 44.0539 157.571 44.0054 157.594 43.9587C157.658 44.0349 157.744 44.0897 157.84 44.1156C157.936 44.1415 158.038 44.1373 158.131 44.1036C161.604 43.1068 165.019 41.9206 168.362 40.5503C171.529 39.2862 174.465 37.5068 177.05 35.2843C177.563 35.682 177.949 36.2211 178.159 36.8351C177.434 37.3038 176.684 37.7384 175.933 38.1559C170.089 41.321 163.8 43.5848 157.279 44.8705C157.364 44.6149 157.441 44.3592 157.534 44.1036ZM158.012 43.0299C159.127 40.7195 160.94 38.8178 163.196 37.5935C165.991 36.1725 168.982 35.1759 172.071 34.6367C173.382 34.2989 174.761 34.3343 176.053 34.7389C175.763 34.986 175.473 35.2246 175.2 35.4462C170.119 39.2295 163.98 41.1553 158.012 43.0299ZM159.146 45.7908C162.796 44.9773 166.375 43.8687 169.846 42.4761C166.757 44.1026 163.519 45.4294 160.177 46.4384C159.529 46.6343 158.873 46.8133 158.216 46.9922L156.81 47.2819H156.741C156.801 46.9155 156.861 46.5406 156.938 46.1657C157.671 46.0549 158.404 45.9186 159.129 45.7567L159.146 45.7908ZM156.059 47.495C155.037 47.6925 153.998 47.7923 152.956 47.7932C152.006 47.8065 151.067 47.5994 150.211 47.1882C152.214 47.0093 154.209 46.7536 156.179 46.4043C156.111 46.7025 156.076 47.0689 156.042 47.4353L156.059 47.495ZM176.632 39.826C176.53 39.9538 176.428 40.0902 176.326 40.2095C176.223 40.3288 175.967 40.5929 175.78 40.7804C175.379 41.0445 174.97 41.2916 174.595 41.5302C173.306 42.3477 171.951 43.0574 170.545 43.652L170.068 43.8309C172.339 42.622 174.527 41.2612 176.615 39.7578L176.632 39.826ZM177.136 33.7249L177.025 33.6653C175.323 33.0002 173.447 32.9222 171.696 33.4437C168.456 34.0898 165.337 35.24 162.454 36.8522C159.752 38.4186 157.717 40.9191 156.733 43.882C156.614 44.2655 156.511 44.6489 156.417 45.0324C153.963 45.5046 151.483 45.8402 148.991 46.0379C148.511 45.1926 148.373 44.1951 148.608 43.2515C148.963 41.806 149.643 40.46 150.594 39.3148C156.658 38.5106 162.495 36.4811 167.748 33.35C169.186 32.4909 170.568 31.5402 171.884 30.504C172.478 30.0755 172.934 29.4833 173.197 28.7998C174.164 28.7145 175.137 28.7145 176.104 28.7998C177.211 29.5293 178.077 30.57 178.593 31.7907C178.165 32.4602 177.671 33.0854 177.118 33.6568L177.136 33.7249ZM136.919 30.7L137.072 30.4528C141.307 27.0614 146.079 24.4003 151.191 22.5794C151.31 22.5283 151.438 22.4942 151.558 22.4516C156.503 21.3609 162.01 21.1819 166.666 23.2185C167.879 23.741 169.006 24.445 170.008 25.3061L170.23 25.5021C167.484 24.9689 164.679 24.8084 161.891 25.0249C155.715 25.5122 149.803 27.7367 144.839 31.4413C142.312 33.207 140.171 35.4684 138.547 38.0877C137.918 37.9462 137.333 37.6537 136.842 37.2356C134.923 35.6337 135.844 32.4894 136.902 30.6318L136.919 30.7ZM171.969 27.6409C169.974 27.9049 168.004 28.3295 166.077 28.9105C160.067 30.6147 153.868 33.2478 149.784 38.1814L149.682 38.3007C148.471 38.4456 147.252 38.5564 146.033 38.5905C144.426 38.6431 142.818 38.6061 141.216 38.4797C140.764 38.4797 140.269 38.4115 139.766 38.3604C140.244 37.5899 140.789 36.8629 141.395 36.1875C143.316 34.0526 145.539 32.2096 147.994 30.717C152.874 27.7293 158.471 26.1131 164.193 26.0389C166.692 25.994 169.187 26.2805 171.611 26.891C171.753 27.103 171.867 27.332 171.952 27.5727L171.969 27.6409ZM171.781 28.9787C171.28 29.474 170.715 29.9009 170.102 30.2483C169.428 30.7426 168.729 31.2197 168.021 31.6714C166.734 32.4994 165.402 33.2561 164.031 33.938C160.192 35.8578 156.089 37.1988 151.856 37.9173C152.433 37.3171 153.042 36.7482 153.681 36.2131C155.999 34.3608 158.587 32.8724 161.354 31.7992C164.212 30.6253 167.175 29.7265 170.204 29.115C170.707 29.0639 171.236 28.9872 171.764 28.9105L171.781 28.9787ZM139.178 39.4596C142.326 39.9236 145.521 39.9838 148.684 39.6385C147.371 41.6069 146.416 44.0354 147.312 46.2168L146.331 46.2679C144.072 46.3276 141.173 46.1401 139.51 44.3166C138.257 42.7828 138.402 41.019 139.161 39.3914L139.178 39.4596ZM178.67 29.7967C178.525 29.6093 178.363 29.4474 178.21 29.2769C178.672 29.4154 179.125 29.5833 179.565 29.7797C179.476 30.0705 179.368 30.3552 179.241 30.6318C179.072 30.314 178.876 30.0117 178.653 29.7286L178.67 29.7967ZM131.257 46.1572C130.271 45.1913 129.574 43.9696 129.245 42.6294C128.957 41.0585 129.238 39.4364 130.038 38.0536C131.342 35.831 133.017 33.8481 134.992 32.1911C134.858 32.6143 134.758 33.0474 134.693 33.4863C134.465 34.7013 134.638 35.9576 135.188 37.0652C135.501 37.5938 135.92 38.052 136.419 38.4113C136.918 38.7705 137.486 39.0229 138.087 39.1528C137.578 40.2878 137.42 41.5491 137.635 42.7743C137.783 43.4313 138.06 44.0526 138.449 44.6024C138.838 45.1522 139.332 45.6198 139.903 45.9782C142.23 47.5035 145.291 47.4524 147.96 47.3075H148.062C148.482 47.8127 148.998 48.2298 149.58 48.5345C147.22 48.7348 144.849 48.7604 142.486 48.6112C139.516 48.4085 136.575 47.8944 133.713 47.0774C132.948 46.887 132.198 46.6392 131.47 46.3361C131.377 46.2679 131.308 46.2168 131.257 46.1572ZM179.855 35.6422C180.122 34.4219 180.084 33.1547 179.744 31.9526C180.059 31.4116 180.319 30.8407 180.52 30.2483C181.036 30.5498 181.486 30.9518 181.844 31.4304C182.201 31.9091 182.458 32.4547 182.601 33.0347C181.904 33.825 181.158 34.5707 180.367 35.2672L179.855 35.6422ZM183.59 31.7992C183.016 30.5518 182.044 29.5299 180.827 28.8935C180.921 28.2579 180.921 27.6119 180.827 26.9763C180.367 24.0024 177.911 21.9914 175.311 20.824C172.981 19.8003 170.514 19.1228 167.987 18.8131L168.507 18.7534C171.824 18.4126 175.285 18.1058 178.551 18.9665C179.922 19.2761 181.21 19.8779 182.327 20.7309C183.444 21.5839 184.363 22.6678 185.022 23.9087C185.741 25.5009 185.811 27.31 185.218 28.9531C184.808 29.9628 184.275 30.9186 183.632 31.7992H183.59ZM151.668 19.8697C157.813 17.4742 164.38 16.3523 170.971 16.572C174.267 16.6 177.543 17.0788 180.708 17.9951C182.18 18.409 183.497 19.2478 184.493 20.4065C184.881 20.9084 185.197 21.462 185.431 22.0511C185.295 21.8636 185.176 21.6762 185.031 21.4887C180.512 16.0011 172.472 16.9129 166.205 17.7394C164.358 17.9894 162.508 18.299 160.655 18.6682C158.937 18.8053 157.229 19.0443 155.539 19.384C152.621 19.9879 149.766 20.8666 147.013 22.0085C148.538 21.206 150.106 20.4891 151.711 19.8612L151.668 19.8697ZM129.68 47.1371C129.518 46.9036 129.372 46.6587 129.245 46.4043C129.313 46.481 129.365 46.5577 129.433 46.6258C129.808 46.9682 130.23 47.2551 130.686 47.4779C131.38 48.1395 132.14 48.7277 132.954 49.2333C134.513 50.1814 136.197 50.9044 137.959 51.3806L137.405 51.3209C134.489 50.8267 131.488 49.6252 129.723 47.086L129.68 47.1371ZM175.072 43.4645C173.501 44.4468 171.853 45.3016 170.144 46.0208C170.86 45.6544 171.568 45.271 172.259 44.8449C172.821 44.5041 173.376 44.1292 173.964 43.7372C175.479 42.9373 176.89 41.9558 178.167 40.8145C178.672 40.4009 179.079 39.8809 179.359 39.2916C179.639 38.7023 179.785 38.0584 179.787 37.406H179.83L180 37.2612C180.896 36.6412 181.75 35.9637 182.558 35.2332C182.342 36.0037 182.021 36.7407 181.603 37.4231C180.077 39.8771 177.562 41.8455 175.115 43.4134L175.072 43.4645Z" fill="#263238"/>
</svg>
