          <svg
            className="w-full h-full"
            viewBox="0 0 593 420"
            fill="none"
            xmlns="http://www.w3.org/2000/svg"
          >
            <g clip-path="url(#clip0_109_3129)">
              <path
                opacity="0.1"
                d="M197.149 419.764C226.027 419.764 249.438 416.004 249.438 411.366C249.438 406.728 226.027 402.969 197.149 402.969C168.27 402.969 144.859 406.728 144.859 411.366C144.859 416.004 168.27 419.764 197.149 419.764Z"
                fill="#04364A"
              />
              <path
                opacity="0.1"
                d="M481.386 420C517.422 420 546.635 416.24 546.635 411.603C546.635 406.965 517.422 403.205 481.386 403.205C445.35 403.205 416.137 406.965 416.137 411.603C416.137 416.24 445.35 420 481.386 420Z"
                fill="#04364A"
              />
              <path
                opacity="0.1"
                d="M7.42674 181.471H61.8895V255.695H11.4139C11.2798 256.457 11.151 257.225 11.0114 257.992H61.8895V317.852C61.7983 317.826 61.7178 317.793 61.632 317.761C60.1938 317.192 58.7663 316.591 57.3389 315.948L56.4266 315.534C54.9956 314.858 53.5646 314.143 52.1336 313.388C51.6345 313.125 51.1354 312.852 50.6417 312.572C42.6973 308.123 35.4803 302.484 29.2408 295.853C29.0584 295.676 28.8867 295.488 28.7042 295.316C27.8349 294.372 26.9816 293.417 26.1552 292.44L25.2429 291.367C24.2663 290.17 23.3218 288.942 22.4041 287.697C22.27 287.514 22.1412 287.332 22.0017 287.16C18.2696 281.986 15.1709 276.384 12.7716 270.473C12.6965 270.296 12.6321 270.102 12.5623 269.936C11.8253 268.04 11.1724 266.126 10.6036 264.195C10.3568 263.385 10.1206 262.585 9.91672 261.743C9.84159 261.496 9.77719 261.254 9.71816 261.013C6.67009 249.117 6.31055 236.76 6.31055 224.488C6.31055 223.055 6.31055 221.617 6.31055 220.195C6.31055 215.232 6.36958 210.237 6.45544 205.246C6.45544 203.953 6.5091 202.665 6.53593 201.367C6.61106 198.072 6.71839 194.778 6.85791 191.483C6.89011 190.566 6.93304 189.654 6.98134 188.741C6.98134 188.215 7.00817 187.69 7.06183 187.164C7.19062 185.254 7.29795 183.359 7.42674 181.471Z"
                fill="#04364A"
              />
              <path
                opacity="0.1"
                d="M61.8899 98.8268H32.0156C36.8719 91.2266 42.1779 83.9233 47.9053 76.9559C52.3432 71.5043 57.0281 66.1922 61.8899 61.0732V98.8268Z"
                fill="#04364A"
              />
              <path
                opacity="0.1"
                d="M61.8907 101.123V179.173H7.59961C7.59961 178.948 7.63717 178.717 7.65327 178.492C7.70157 177.875 7.74986 177.258 7.80353 176.646C7.86256 175.927 7.92695 175.203 7.99672 174.5C8.06648 173.797 8.14161 172.938 8.2221 172.16C8.3026 171.382 8.37773 170.594 8.46895 169.816C8.56018 169.038 8.64068 168.26 8.73727 167.487C8.83386 166.714 8.91973 165.931 9.02169 165.158C9.10218 164.514 9.18804 163.876 9.2739 163.232C9.39732 162.325 9.52612 161.413 9.66564 160.511C9.66564 160.377 9.70321 160.238 9.72467 160.109C10.7041 153.51 12.0387 146.968 13.7226 140.513C15.4852 133.741 17.736 127.106 20.4573 120.66C23.3496 113.916 26.736 107.395 30.5889 101.15L61.8907 101.123Z"
                fill="#04364A"
              />
              <path
                opacity="0.1"
                d="M74.8926 181.465V255.695H191.218V181.465H74.8926ZM74.8926 257.987V321.732C75.558 321.871 76.2181 322.006 76.8728 322.118C77.7636 322.29 78.649 322.445 79.5559 322.58C79.7276 322.606 79.9047 322.633 80.0925 322.649C80.4467 322.708 80.8116 322.757 81.1658 322.805C82.062 322.928 82.9528 323.03 83.849 323.111C84.2729 323.154 84.7022 323.191 85.1315 323.224L86.1672 323.304C86.7307 323.347 87.2888 323.379 87.8415 323.395C88.1849 323.395 88.5284 323.427 88.8826 323.438C89.1509 323.438 89.4192 323.438 89.6983 323.438C89.9773 323.438 90.3744 323.438 90.7125 323.438C91.174 323.438 91.6355 323.438 92.0916 323.438H92.7088C93.1703 323.438 93.6318 323.438 94.0879 323.395H94.1201C94.4367 323.395 94.7587 323.395 95.0807 323.352C95.17 323.358 95.2596 323.358 95.349 323.352C95.6173 323.352 95.8856 323.352 96.1432 323.315H96.331L98.1287 323.175C98.719 323.122 99.3147 323.052 99.9157 322.987L101.139 322.843C106.117 322.145 111.039 321.098 115.87 319.709C126.721 316.683 137.335 312.449 148.18 309.348C162.203 305.35 177.695 303.386 191.245 308.275V257.987H74.8926ZM191.218 98.8272V0.0058454C178.483 -0.132121 165.782 1.35731 153.423 4.43797C123.968 11.8374 97.5385 27.8864 74.8926 48.3836V98.8218H80.7311V101.113H74.8926V179.174H191.218V101.118H104.702V98.8272H191.218ZM340.633 65.4467C333.345 65.1892 326.101 62.8819 319.549 59.319C307.018 52.5045 297.01 41.9822 285.827 33.1019C262.59 14.6061 233.773 3.4453 204.21 0.676566V98.8272H370.271L370.684 98.3925L340.633 65.4467ZM355.76 62.7639L371.8 80.3636V58.1493C366.429 58.8147 361.722 60.3976 355.782 62.7424L355.76 62.7639ZM371.8 337.561V257.987H337.622C337.531 257.648 337.44 257.305 337.333 256.962C337.434 257.305 337.52 257.648 337.617 257.987H204.232V315.534C205.498 316.473 206.748 317.461 207.988 318.464C209.324 319.537 210.644 320.669 211.97 321.78L213.306 322.885C213.945 323.422 214.589 323.959 215.238 324.463C216.526 325.508 217.826 326.538 219.139 327.554C219.789 328.09 220.454 328.573 221.114 329.078C231.593 337.089 242.647 344.318 254.187 350.707C256.773 352.138 259.383 353.535 262.016 354.898C263.771 355.794 265.536 356.684 267.307 357.548C269.969 358.847 272.652 360.099 275.357 361.304C300.292 372.497 326.66 380.177 353.705 384.125C359.712 385.012 365.742 385.71 371.795 386.218V337.555H372.332L371.8 337.561ZM204.232 101.118V179.174H371.822V101.118H204.232ZM204.232 181.465V255.695H371.822V181.465H204.232ZM384.83 58.0527V82.8318L405.302 60.3707C398.519 59.2761 391.695 58.4945 384.83 58.0259V58.0527ZM384.83 181.492V255.695H547.832V181.465L384.83 181.492ZM547.236 343.452L547.81 257.987H384.83V387.071C395.329 387.512 405.844 387.386 416.33 386.695H416.513C421.521 386.38 426.506 385.923 431.469 385.322H431.581C458.054 382.241 483.939 375.335 508.427 364.819M579.262 193.689C578.651 192.245 578.012 190.813 577.363 189.396C576.15 186.713 574.867 184.105 573.547 181.498H560.829V255.695H592.984C592.968 234.683 587.65 213.22 579.278 193.662L579.262 193.689ZM560.829 258.013V331.524C569.887 322.843 577.54 312.911 583.051 301.557C589.678 287.885 592.71 273.08 592.957 258.003L560.829 258.013ZM560.829 159.863V179.18H572.356C568.869 172.53 565.026 166.073 560.845 159.836L560.829 159.863ZM450.283 72.6154C449.435 72.2935 448.587 71.9661 447.734 71.6496C438.735 68.3267 429.539 65.5634 420.199 63.3756L388.871 97.754L388.27 98.3925L388.672 98.8325H500.174C484.645 88.1442 467.903 79.3347 450.299 72.5886L450.283 72.6154ZM503.442 101.145H387.116L384.83 103.238V179.174H404.868H404.9H547.853V142.392C534.922 126.754 519.996 112.878 503.458 101.118L503.442 101.145Z"
                fill="#04364A"
              />
              <path
                opacity="0.1"
                d="M61.8907 140.492V179.174H7.59961C7.59961 178.949 7.63717 178.718 7.65327 178.493C7.70157 177.875 7.74986 177.258 7.80353 176.647C7.86256 175.928 7.92695 175.203 7.99672 174.5C8.06648 173.798 8.14161 172.939 8.2221 172.161C8.3026 171.383 8.37773 170.594 8.46895 169.816C8.56018 169.038 8.64068 168.26 8.73727 167.487C8.83386 166.715 8.91973 165.931 9.02169 165.159C9.10218 164.515 9.18804 163.876 9.2739 163.232C9.39732 162.325 9.52612 161.413 9.66564 160.512C9.66564 160.378 9.70321 160.238 9.72467 160.109C10.7041 153.51 12.0387 146.969 13.7226 140.514L61.8907 140.492Z"
                fill="#04364A"
              />
              <path
                opacity="0.1"
                d="M7.42674 181.471H61.8895V255.695H11.4139C11.2798 256.457 11.151 257.225 11.0114 257.992H61.8895V317.852C61.7983 317.826 61.7178 317.793 61.632 317.761C60.1938 317.192 58.7663 316.591 57.3389 315.948L56.4266 315.534C54.9956 314.858 53.5646 314.143 52.1336 313.388C51.6345 313.125 51.1354 312.852 50.6417 312.572C42.6973 308.123 35.4803 302.484 29.2408 295.853C29.0584 295.676 28.8867 295.488 28.7042 295.316C27.8349 294.372 26.9816 293.417 26.1552 292.44L25.2429 291.367C24.2663 290.17 23.3218 288.942 22.4041 287.697C22.27 287.514 22.1412 287.332 22.0017 287.16C18.2696 281.986 15.1709 276.384 12.7716 270.473C12.6965 270.296 12.6321 270.102 12.5623 269.936C11.8253 268.04 11.1724 266.126 10.6036 264.195C10.3568 263.385 10.1206 262.585 9.91672 261.743C9.84159 261.496 9.77719 261.254 9.71816 261.013C6.67009 249.117 6.31055 236.76 6.31055 224.488C6.31055 223.055 6.31055 221.617 6.31055 220.195C6.31055 215.232 6.36958 210.237 6.45544 205.246C6.45544 203.953 6.5091 202.665 6.53593 201.367C6.61106 198.072 6.71839 194.778 6.85791 191.483C6.89011 190.566 6.93304 189.654 6.98134 188.741C6.98134 188.215 7.00817 187.69 7.06183 187.164C7.19062 185.254 7.29795 183.359 7.42674 181.471Z"
                fill="#04364A"
              />
              <path
                opacity="0.1"
                d="M115.843 112.295V179.174H74.8926V112.295H80.7311V89.6514H104.697V112.295H115.843Z"
                fill="#04364A"
              />
              <path
                opacity="0.1"
                d="M115.843 181.465H74.8984V255.689H115.843V181.465Z"
                fill="#04364A"
              />
              <path
                opacity="0.1"
                d="M74.8926 257.991H115.843V319.698C111.012 321.085 106.09 322.131 101.112 322.826L99.8889 322.976C99.2879 323.046 98.6922 323.105 98.1019 323.164C97.5116 323.223 96.8999 323.266 96.3042 323.303H96.1164C95.8588 323.303 95.5797 323.336 95.3275 323.341H95.0538C94.7319 323.341 94.4099 323.373 94.0879 323.384C93.6318 323.411 93.1756 323.416 92.7088 323.421C92.5102 323.421 92.3224 323.421 92.1238 323.421C91.6623 323.421 91.2062 323.421 90.7447 323.421H89.7305C89.4568 323.421 89.1938 323.421 88.9094 323.421L87.8737 323.384C87.3371 323.384 86.7575 323.325 86.1994 323.287L85.1691 323.212L83.8865 323.094C82.985 323.014 82.0888 322.912 81.2034 322.788L80.1301 322.638L79.5935 322.563C78.6973 322.423 77.8119 322.273 76.9103 322.101C76.2503 321.989 75.5956 321.849 74.9301 321.715L74.8926 257.991Z"
                fill="#04364A"
              />
              <path
                opacity="0.1"
                d="M371.822 104.396H338.057V179.168H371.822V104.396Z"
                fill="#04364A"
              />
              <path
                opacity="0.1"
                d="M371.826 181.465V255.695H204.23V223.677H293.499V242.565H338.056V181.465H371.826Z"
                fill="#04364A"
              />
              <path
                opacity="0.1"
                d="M372.359 337.577H371.823V386.271C365.777 385.759 359.748 385.064 353.738 384.184C326.679 380.223 300.301 372.526 275.358 361.315C268.156 358.074 261.101 354.536 254.193 350.701C242.653 344.309 231.598 337.08 221.115 329.072C218.482 327.054 215.883 324.99 213.318 322.88C211.541 321.415 209.776 319.913 207.989 318.453C206.749 317.45 205.499 316.462 204.232 315.518V257.992H337.612C337.521 257.648 337.43 257.305 337.333 256.967C337.435 257.305 337.532 257.648 337.623 257.992H371.823V337.545C372.005 337.55 372.182 337.566 372.359 337.577Z"
                fill="#04364A"
              />
              <path
                opacity="0.1"
                d="M459.883 98.827H437.881V91.991H447.744V71.6279C448.599 71.9391 449.451 72.2593 450.299 72.5884V91.991H459.883V98.827Z"
                fill="#04364A"
              />
              <path
                opacity="0.1"
                d="M512.892 179.173H404.879C404.879 179.173 404.879 179.173 404.916 179.2L404.868 179.173H384.83V104.402H390.508V159.669H416.454V126.938H437.887V101.123H459.889V126.959H481.322V159.69H512.892V179.173Z"
                fill="#04364A"
              />
              <path
                opacity="0.1"
                d="M384.83 181.465V255.695H512.892V181.465H384.83ZM547.655 343.071L547.832 284.316H512.892V258.024H384.83V387.07C395.329 387.511 405.845 387.386 416.33 386.695H416.513C421.521 386.38 426.507 385.922 431.469 385.321H431.581C458.054 382.24 483.939 375.334 508.427 364.818"
                fill="#04364A"
              />
              <path
                opacity="0.1"
                d="M563.103 257.991H592.978C592.715 273.064 589.688 287.868 583.066 301.54C577.555 312.899 569.897 322.831 560.85 331.508V284.289H563.103V257.991Z"
                fill="#04364A"
              />
              <path
                opacity="0.1"
                d="M592.994 255.695H563.104V193.661H579.278C587.649 213.219 592.967 234.682 592.994 255.695Z"
                fill="#04364A"
              />
              <path
                opacity="0.1"
                d="M371.826 125.184H353.736V148.627H371.826V125.184Z"
                fill="#04364A"
              />
              <path
                opacity="0.1"
                d="M371.826 173.775H353.736V179.173H371.826V173.775Z"
                fill="#04364A"
              />
              <path
                opacity="0.1"
                d="M371.826 181.465H353.736V197.213H371.826V181.465Z"
                fill="#04364A"
              />
              <path
                opacity="0.1"
                d="M371.826 222.368H353.736V245.811H371.826V222.368Z"
                fill="#04364A"
              />
              <path
                opacity="0.1"
                d="M371.826 270.961H353.736V294.404H371.826V270.961Z"
                fill="#04364A"
              />
              <path
                opacity="0.1"
                d="M371.821 337.544C372.003 337.544 372.18 337.544 372.357 337.576H371.821V343.023H353.736V319.553H371.821V337.544Z"
                fill="#04364A"
              />
              <path
                opacity="0.1"
                d="M371.821 368.135V386.244C365.775 385.733 359.747 385.037 353.736 384.157V368.135H371.821Z"
                fill="#04364A"
              />
              <path
                opacity="0.1"
                d="M281.758 253.973H204.23V255.695H281.758V253.973Z"
                fill="#04364A"
              />
              <path
                opacity="0.1"
                d="M281.758 257.986H204.23V264.586H281.758V257.986Z"
                fill="#04364A"
              />
              <path
                opacity="0.1"
                d="M281.758 286.221H204.23V296.834H281.758V286.221Z"
                fill="#04364A"
              />
              <path
                opacity="0.1"
                d="M281.753 318.469V329.082H221.114C218.481 327.072 215.88 325.008 213.311 322.89C211.535 321.425 209.775 319.923 207.982 318.469H281.753Z"
                fill="#04364A"
              />
              <path
                opacity="0.1"
                d="M281.753 350.711V361.314H275.351C268.156 358.07 261.103 354.53 254.191 350.695L281.753 350.711Z"
                fill="#04364A"
              />
              <path
                opacity="0.1"
                d="M431.598 188.66H416.336V203.92H431.598V188.66Z"
                fill="#04364A"
              />
              <path
                opacity="0.1"
                d="M101.15 117.559H85.8887V132.819H101.15V117.559Z"
                fill="#04364A"
              />
              <path
                opacity="0.1"
                d="M101.15 153.005H85.8887V168.265H101.15V153.005Z"
                fill="#04364A"
              />
              <path
                opacity="0.1"
                d="M101.15 188.451H85.8887V203.711H101.15V188.451Z"
                fill="#04364A"
              />
              <path
                opacity="0.1"
                d="M101.15 223.892H85.8887V239.152H101.15V223.892Z"
                fill="#04364A"
              />
              <path
                opacity="0.1"
                d="M101.15 259.338H85.8887V274.598H101.15V259.338Z"
                fill="#04364A"
              />
              <path
                opacity="0.1"
                d="M101.15 294.784H85.8887V310.044H101.15V294.784Z"
                fill="#04364A"
              />
              <path
                opacity="0.1"
                d="M489.859 188.66H474.598V203.92H489.859V188.66Z"
                fill="#04364A"
              />
              <path
                opacity="0.1"
                d="M431.598 226.301H416.336V241.561H431.598V226.301Z"
                fill="#04364A"
              />
              <path
                opacity="0.1"
                d="M489.859 226.301H474.598V241.561H489.859V226.301Z"
                fill="#04364A"
              />
              <path
                opacity="0.1"
                d="M431.598 263.937H416.336V279.197H431.598V263.937Z"
                fill="#04364A"
              />
              <path
                opacity="0.1"
                d="M489.859 263.937H474.598V279.197H489.859V263.937Z"
                fill="#04364A"
              />
              <path
                opacity="0.1"
                d="M431.598 301.577H416.336V316.837H431.598V301.577Z"
                fill="#04364A"
              />
              <path
                opacity="0.1"
                d="M489.859 301.577H474.598V316.837H489.859V301.577Z"
                fill="#04364A"
              />
              <path
                opacity="0.1"
                d="M431.598 339.219H416.336V354.479H431.598V339.219Z"
                fill="#04364A"
              />
              <path
                opacity="0.1"
                d="M489.859 339.219H474.598V354.479H489.859V339.219Z"
                fill="#04364A"
              />
              <path
                opacity="0.1"
                d="M416.336 386.694V376.854H431.592V385.294L416.336 386.694Z"
                fill="#04364A"
              />
              <path
                opacity="0.1"
                d="M9.66016 160.099V168.829H61.8906V160.099H9.66016ZM14.8655 168.281H10.6046V160.635H14.8977L14.8655 168.281ZM20.0655 168.281H15.7724V160.635H20.0655V168.281ZM25.2547 168.281H20.9616V160.635H25.2547V168.281ZM30.4547 168.281H26.167V160.635H30.46L30.4547 168.281ZM35.6493 168.281H31.3562V160.635H35.6493V168.281ZM40.8492 168.281H36.5562V160.635H40.8492V168.281ZM46.0492 168.281H41.7561V160.635H46.0492V168.281ZM51.2438 168.281H46.9507V160.635H51.2438V168.281ZM56.4384 168.281H52.1453V160.635H56.4384V168.281ZM61.633 168.281H57.3399V160.635H61.633V168.281Z"
                fill="#04364A"
              />
              <path
                opacity="0.1"
                d="M9.66016 185.5V194.23H61.8906V185.5H9.66016ZM14.8655 193.677H10.6046V186.053H14.8977L14.8655 193.677ZM20.0655 193.677H15.7724V186.053H20.0655V193.677ZM25.2547 193.677H20.9616V186.053H25.2547V193.677ZM30.4547 193.677H26.167V186.053H30.46L30.4547 193.677ZM35.6493 193.677H31.3562V186.053H35.6493V193.677ZM40.8492 193.677H36.5562V186.053H40.8492V193.677ZM46.0492 193.677H41.7561V186.053H46.0492V193.677ZM51.2438 193.677H46.9507V186.053H51.2438V193.677ZM56.4384 193.677H52.1453V186.053H56.4384V193.677ZM61.633 193.677H57.3399V186.053H61.633V193.677Z"
                fill="#04364A"
              />
              <path
                opacity="0.1"
                d="M9.66016 210.912V219.658H61.8906V210.912H9.66016ZM14.8655 219.09H10.6046V211.459H14.8977L14.8655 219.09ZM20.0655 219.09H15.7724V211.459H20.0655V219.09ZM25.2547 219.09H20.9616V211.459H25.2547V219.09ZM30.4547 219.09H26.167V211.459H30.46L30.4547 219.09ZM35.6493 219.09H31.3562V211.459H35.6493V219.09ZM40.8492 219.09H36.5562V211.459H40.8492V219.09ZM46.0492 219.09H41.7561V211.459H46.0492V219.09ZM51.2438 219.09H46.9507V211.459H51.2438V219.09ZM56.4384 219.09H52.1453V211.459H56.4384V219.09ZM61.633 219.09H57.3399V211.459H61.633V219.09Z"
                fill="#04364A"
              />
              <path
                opacity="0.1"
                d="M9.66016 236.324V245.044H61.8906V236.324H9.66016ZM14.8655 244.502H10.6046V236.866H14.8977L14.8655 244.502ZM20.0655 244.502H15.7724V236.866H20.0655V244.502ZM25.2547 244.502H20.9616V236.866H25.2547V244.502ZM30.4547 244.502H26.167V236.866H30.46L30.4547 244.502ZM35.6493 244.502H31.3562V236.866H35.6493V244.502ZM40.8492 244.502H36.5562V236.866H40.8492V244.502ZM46.0492 244.502H41.7561V236.866H46.0492V244.502ZM51.2438 244.502H46.9507V236.866H51.2438V244.502ZM56.4384 244.502H52.1453V236.866H56.4384V244.502ZM61.633 244.502H57.3399V236.866H61.633V244.502Z"
                fill="#04364A"
              />
              <path
                opacity="0.1"
                d="M9.88477 261.731C10.0941 262.552 10.3302 263.373 10.577 264.184V262.279H14.8701V269.909H12.5733C12.6431 270.086 12.7128 270.279 12.7826 270.445H61.8898V261.731H9.88477ZM20.0808 269.909H15.7877V262.279H20.0808V269.909ZM25.27 269.909H20.977V262.279H25.27V269.909ZM30.47 269.909H26.1662V262.279H30.4592L30.47 269.909ZM35.6646 269.909H31.3715V262.279H35.6646V269.909ZM40.8645 269.909H36.5715V262.279H40.8645V269.909ZM46.0645 269.909H41.7714V262.279H46.0645V269.909ZM51.2591 269.909H46.966V262.279H51.2591V269.909ZM56.4537 269.909H52.1606V262.279H56.4537V269.909ZM61.6483 269.909H57.3552V262.279H61.6483V269.909Z"
                fill="#04364A"
              />
              <path
                opacity="0.1"
                d="M22.0117 287.144C22.1459 287.315 22.2747 287.508 22.4142 287.68H25.253V291.345C25.5589 291.71 25.8594 292.075 26.1706 292.418V287.659H30.4637V295.316H28.725C28.8967 295.493 29.0631 295.68 29.2616 295.852H61.905V287.144H22.0117ZM35.6475 295.316H31.3545V287.691H35.6475V295.316ZM40.8475 295.316H36.5545V287.691H40.8475V295.316ZM46.0475 295.316H41.7544V287.691H46.0475V295.316ZM51.2421 295.316H46.949V287.691H51.2421V295.316ZM56.4367 295.316H52.1436V287.691H56.4367V295.316ZM61.6313 295.316H57.3382V287.691H61.6313V295.316Z"
                fill="#04364A"
              />
              <path
                opacity="0.1"
                d="M50.6641 312.551C51.1524 312.83 51.6515 313.087 52.1559 313.366V313.098H56.449V315.513L57.3612 315.937V313.098H61.6543V317.739C61.7366 317.78 61.8229 317.813 61.9119 317.836V312.551H50.6641Z"
                fill="#04364A"
              />
              <path
                opacity="0.1"
                d="M337.332 256.961C337.434 257.305 337.52 257.648 337.616 257.986C337.53 257.648 337.439 257.305 337.332 256.961ZM80.752 98.8105V101.102H104.723V98.8105H80.752ZM337.332 256.961C337.434 257.305 337.52 257.648 337.616 257.986C337.53 257.648 337.439 257.305 337.332 256.961ZM337.332 256.961C337.434 257.305 337.52 257.648 337.616 257.986C337.53 257.648 337.439 257.305 337.332 256.961Z"
                fill="#04364A"
              />
              <path
                d="M247.71 203.722C247.71 203.722 245.595 203.427 245.595 200.347C245.595 197.267 244.082 191.515 244.082 191.515C244.082 191.488 242.773 181.497 240.964 179.909C239.156 178.321 236.832 168.995 236.832 168.995C236.832 168.995 236.435 163.935 235.625 162.846C234.814 161.757 233.72 159.09 232.105 155.285C230.489 151.481 223.755 148.846 223.755 148.846C223.755 148.846 211.578 141.785 208.128 139.483C207.814 139.294 207.521 139.073 207.253 138.823C206.652 138.034 204.033 138.018 204.033 138.018C203.76 136.291 203.497 134.305 203.411 132.508C203.411 132.315 203.411 132.121 203.384 131.928C207.232 129.654 210.13 126.069 211.546 121.83C211.611 121.626 211.664 121.411 211.723 121.207C211.954 121.131 212.166 121.008 212.346 120.846C212.526 120.683 212.671 120.485 212.77 120.263C213.081 119.571 213.086 118.761 213.473 118.117C213.923 117.355 214.782 116.947 215.458 116.373C217.165 114.924 217.605 112.483 217.524 110.261C217.471 108.464 217.181 106.65 217.293 104.863L217.326 104.413C217.358 104.144 217.395 103.876 217.444 103.618C217.707 102.288 218.281 101.032 218.603 99.7122C218.925 98.3922 218.957 96.9059 218.206 95.7683C217.106 94.0996 214.814 93.7669 212.802 93.5952C210.521 93.402 208.482 93.6542 207.022 91.7601C206.339 90.7701 205.571 89.8419 204.726 88.986C204.425 88.707 201.506 86.9255 201.506 86.8075C198.657 85.488 195.427 85.2403 192.41 86.11C190.897 86.5499 189.469 87.269 187.934 87.6285C184.623 88.4119 180.813 87.5641 178.001 89.4582C176.434 90.5313 175.495 92.2377 174.615 93.901C173.9 95.2711 173.173 96.6394 172.436 98.0059C171.25 100.254 170.043 102.54 169.544 105.03C169.439 105.571 169.374 106.12 169.351 106.672V106.698C169.351 106.897 169.351 107.095 169.351 107.294V107.546C169.351 107.734 169.351 107.916 169.383 108.083C169.415 108.249 169.41 108.303 169.426 108.415C169.442 108.528 169.469 108.78 169.501 108.952C169.533 109.124 169.598 109.424 169.662 109.66C169.689 109.762 169.726 109.859 169.759 109.955C169.812 110.138 169.877 110.315 169.946 110.492C169.984 110.583 170.022 110.68 170.064 110.771C170.145 110.959 170.242 111.141 170.338 111.308C170.381 111.383 170.413 111.452 170.456 111.522C170.606 111.772 170.771 112.012 170.95 112.241C172.098 113.674 173.789 114.586 175.039 115.928C175.039 115.981 175.039 116.035 175.039 116.083C175.039 116.233 175.039 116.378 175.039 116.528C175.105 119.52 175.902 122.45 177.359 125.064C178.816 127.678 180.89 129.896 183.4 131.526C183.4 131.73 183.427 131.939 183.437 132.143C183.542 133.736 183.522 135.334 183.378 136.924C183.16 136.666 182.886 136.461 182.578 136.324C182.27 136.187 181.934 136.12 181.597 136.13C181.366 136.118 181.135 136.138 180.91 136.189L180.861 136.151V136.199C179.681 136.489 178.227 137.718 176.837 141.211C176.837 141.211 172.608 145.976 169.388 145.777C166.169 145.579 158.017 150.735 158.017 150.735C158.017 150.735 150.064 155.897 148.358 161.156C147.404 164.137 146.26 167.055 144.934 169.891L135.103 190.147L133.289 206.217C133.289 206.217 134.293 213.364 134.094 214.454C133.895 215.543 138.221 225.368 138.221 225.368C138.221 225.368 152.511 250.474 158.35 251.762L158.768 251.467C159.018 251.597 159.283 251.696 159.557 251.762L160.759 250.914C160.831 251.859 160.801 252.809 160.668 253.747C159.863 256.226 160.969 272.404 162.375 275.575C163.781 278.746 163.281 320.326 163.281 320.326L163.083 323.996C163.083 323.996 163.083 324.114 163.131 324.318L163.083 325.187L163.228 325.262C163.378 326.426 163.329 327.608 163.083 328.755C162.578 330.365 162.375 334.915 162.375 334.915C162.375 334.915 158.355 360.606 160.26 365.768C162.165 370.93 163.786 376.586 163.786 376.586C163.786 376.586 165.798 383.025 163.882 384.125C161.967 385.225 156.52 387.07 157.641 389.753C158.661 392.232 162.53 398.875 163.104 399.846L163.056 400.356L162.267 408.904C162.395 410.032 162.701 411.134 163.174 412.166C164.038 414.028 165.718 415.96 168.911 415.75C169.447 415.713 170.07 415.648 170.671 415.568C176.515 414.785 183.711 412.177 183.711 412.177C183.337 411.94 182.995 411.657 182.691 411.334C182.404 411.056 182.177 410.722 182.023 410.353C181.868 409.984 181.791 409.588 181.795 409.188C181.881 407.632 178.967 400.217 178.243 398.392C178.13 398.129 178.071 397.979 178.071 397.979C178.071 397.979 184.715 391.036 183.609 384.881C183.609 384.881 176.257 380.589 178.677 378.233C181.098 375.877 185.423 369.111 185.423 369.111C185.423 369.111 185.621 343.812 185.423 340.034C185.216 337.412 185.34 334.775 185.793 332.184C185.874 331.792 185.97 331.411 186.072 331.036C189.419 331.535 192.798 331.792 196.182 331.803C197.417 331.803 198.672 331.803 199.939 331.728C199.939 332.086 199.955 332.472 199.987 332.887C200.266 339.154 200.787 350.143 201.211 354.227C201.812 360.081 205.133 375.856 205.133 375.856C205.133 375.856 198.796 379.923 206.239 389.946C206.239 389.946 206.239 393.579 205.745 394.105C205.218 395.824 204.793 397.573 204.473 399.342C204.162 401.231 204.033 403.141 204.538 404.134C205.745 406.505 212.99 406.312 212.99 406.312L213.167 406.28C214.534 406.138 215.917 406.27 217.233 406.667C218.549 407.064 219.774 407.719 220.835 408.592C223.588 410.803 234.036 409.832 239.692 409.129C241.909 408.85 243.39 408.592 243.39 408.592C243.462 408.342 243.487 408.08 243.465 407.82C243.406 406.43 242.317 403.382 234.933 400.662C234.933 400.662 227.989 395.994 228.085 391.926H227.94H227.135C227.72 391.894 228.096 391.926 228.096 391.926C228.096 391.926 225.375 382 226.486 381.195C227.597 380.39 224.27 369.39 224.27 369.39C224.27 369.39 222.365 350.932 222.263 349.639C222.267 348.529 222.435 347.426 222.762 346.366L222.263 336.246C222.263 336.246 222.166 332.882 222.263 331.787C222.246 330.837 222.169 329.889 222.032 328.948C221.984 328.573 221.935 328.181 221.882 327.795C224.484 327.135 226.175 326.523 226.175 326.523L225.874 291.297C228.085 287.004 228.493 277.587 228.482 270.907C228.482 266.614 228.289 263.438 228.289 263.438L231.31 258.507C231.31 258.507 232.008 252.604 230.902 251.311C230.414 250.726 230.634 250.12 231.037 249.621C231.246 249.455 231.466 249.305 231.697 249.17C231.697 249.17 231.664 249.122 231.627 249.052C231.838 248.876 232.062 248.716 232.298 248.575C232.298 248.575 231.224 246.911 232.185 246.208C233.087 246.82 233.891 247.281 234.503 247.657C234.46 248.049 234.417 248.274 234.417 248.274L234.675 247.738C235.265 248.07 235.625 248.274 235.625 248.274C235.625 248.274 240.358 238.846 240.256 237.457C240.154 236.067 243.476 230.213 243.476 230.213C243.476 230.213 243.878 227.138 245.692 225.851C247.506 224.563 247.098 215.232 247.098 215.232C247.098 215.232 247.602 210.37 248.81 208.385C250.017 206.4 247.71 203.722 247.71 203.722ZM157.148 199.585L157.239 201.833C156.702 200.97 156.316 200.347 156.316 200.347L157.148 199.585Z"
                fill="url(#paint0_linear_109_3129)"
              />
              <path
                d="M235.883 244.201L234.724 249.138C234.724 249.138 225.44 244.4 223.766 238.379C222.091 232.359 226.567 230.073 226.567 230.073L235.217 233.738L235.883 244.201Z"
                fill="white"
              />
              <path
                opacity="0.1"
                d="M235.883 244.201L234.724 249.138C234.724 249.138 225.44 244.4 223.766 238.379C222.091 232.359 226.567 230.073 226.567 230.073L235.217 233.738L235.883 244.201Z"
                fill="black"
              />
              <path
                d="M183.781 412.209C183.781 412.209 175.195 415.364 169.292 415.761C166.158 415.97 164.511 414.049 163.663 412.198C163.2 411.169 162.901 410.073 162.777 408.952L163.545 400.447L163.953 395.918L176.494 392.661L178.27 398.091L178.436 398.504C179.15 400.318 182.01 407.696 181.924 409.236C181.921 409.63 181.997 410.021 182.148 410.385C182.299 410.75 182.523 411.08 182.804 411.355C183.092 411.68 183.421 411.967 183.781 412.209Z"
                fill="white"
              />
              <path
                d="M242.428 407.884C242.45 408.142 242.424 408.402 242.353 408.651C242.353 408.651 223.99 411.715 220.233 408.651C219.174 407.756 217.94 407.092 216.609 406.702C215.278 406.312 213.88 406.205 212.506 406.387C212.506 406.387 205.401 406.58 204.215 404.24C203.721 403.258 203.85 401.354 204.156 399.476C204.468 397.716 204.883 395.976 205.401 394.265L205.685 394.04L207.375 392.683L227.166 392.098H227.317C227.22 396.143 234.035 400.785 234.035 400.785C241.274 403.468 242.342 406.499 242.428 407.884Z"
                fill="white"
              />
              <path
                opacity="0.1"
                d="M242.429 407.884C242.448 408.142 242.421 408.402 242.349 408.651C242.349 408.651 223.991 411.715 220.234 408.651C219.176 407.757 217.942 407.093 216.612 406.703C215.283 406.313 213.886 406.206 212.512 406.387C212.512 406.387 205.402 406.58 204.221 404.24C203.727 403.253 203.851 401.354 204.157 399.476C206.894 399.749 211.213 400.431 212.909 402.057C215.474 404.53 219.821 406.998 222.488 407.192C224.576 407.326 237.063 407.723 242.429 407.884Z"
                fill="black"
              />
              <path
                opacity="0.1"
                d="M183.781 412.209C183.781 412.209 175.195 415.364 169.292 415.761C166.158 415.971 164.51 414.05 163.668 412.193C165.852 412.928 168.884 413.701 170.478 412.993C172.367 412.155 179.064 411.614 182.82 411.383C183.106 411.696 183.429 411.973 183.781 412.209Z"
                fill="black"
              />
              <path
                d="M196.52 157.952C189.437 155.2 180.325 146.105 182.6 141.855C183.105 140.783 183.405 139.625 183.485 138.442C183.632 136.837 183.653 135.222 183.55 133.613C183.39 130.978 183.073 128.355 182.6 125.758C182.6 125.758 204.714 126.257 203.427 129.514C203.051 130.469 202.992 132.127 203.094 133.984C203.196 135.84 203.464 137.938 203.743 139.714C204.13 142.15 204.516 144.007 204.516 144.007C204.516 144.007 203.164 145.901 202.369 146.003C201.575 146.105 206.684 161.875 196.52 157.952Z"
                fill="#CF6F80"
              />
              <path
                opacity="0.1"
                d="M178.419 398.504L178.253 398.687C171.641 390.692 163.645 400.656 163.645 400.656L163.527 400.447L163.935 395.918L176.476 392.661L178.253 398.091L178.419 398.504Z"
                fill="black"
              />
              <path
                opacity="0.1"
                d="M227.324 392.661C227.324 392.661 222.494 392.559 219.918 394.834C217.342 397.109 204.892 395.328 205.429 394.834C205.588 394.59 205.684 394.309 205.708 394.019L207.398 392.661L227.189 392.076C227.265 392.436 227.324 392.661 227.324 392.661Z"
                fill="black"
              />
              <path
                d="M186.647 329.877C186.287 330.766 186.014 331.688 185.831 332.629C185.383 335.208 185.259 337.832 185.461 340.442C185.659 344.198 185.461 369.369 185.461 369.369C185.461 369.369 181.216 376.081 178.849 378.448C176.483 380.814 183.679 385.064 183.679 385.064C184.752 391.181 178.248 398.092 178.248 398.092C171.637 390.097 163.641 400.066 163.641 400.066C163.641 400.066 159.294 392.554 158.21 389.871C157.126 387.188 162.455 385.332 164.328 384.243C166.201 383.153 164.237 376.731 164.237 376.731C164.237 376.731 162.654 371.102 160.776 365.967C158.897 360.832 162.847 335.269 162.847 335.269C162.847 335.269 163.051 330.73 163.539 329.147C163.786 328.005 163.835 326.829 163.684 325.67C163.652 325.278 163.614 324.951 163.588 324.731C163.561 324.511 163.539 324.409 163.539 324.409L163.614 324.28L166.298 319.279C166.298 319.279 187.935 326.727 186.647 329.877Z"
                fill="#04364A"
              />
              <path
                d="M227.323 392.072C227.323 392.072 222.493 391.97 219.917 394.218C217.342 396.466 204.892 394.712 205.428 394.218C205.965 393.724 205.922 390.07 205.922 390.07C198.619 380.101 204.849 376.055 204.849 376.055C204.849 376.055 201.586 360.36 200.996 354.538C200.583 350.471 200.073 339.541 199.799 333.3C199.681 330.617 199.611 328.772 199.611 328.772L205.579 327.57L206.346 327.414L220.739 324.527C220.739 324.527 221.136 327.21 221.404 329.405C221.538 330.342 221.613 331.286 221.629 332.233C221.533 333.306 221.629 336.665 221.629 336.665L222.118 346.736C221.799 347.793 221.634 348.89 221.629 349.993C221.726 351.276 223.599 369.637 223.599 369.637C223.599 369.637 226.856 380.594 225.745 381.383C224.634 382.172 227.323 392.072 227.323 392.072Z"
                fill="#04364A"
              />
              <path
                opacity="0.1"
                d="M203.426 129.514C203.051 130.469 202.992 132.127 203.094 133.984C200.131 135.767 196.726 136.679 193.269 136.614C189.812 136.55 186.443 135.512 183.549 133.619C183.39 130.982 183.073 128.357 182.6 125.758C182.6 125.758 204.714 126.246 203.426 129.514Z"
                fill="black"
              />
              <path
                d="M211.975 117.655C211.979 119.589 211.675 121.51 211.073 123.348C209.729 127.466 206.972 130.975 203.29 133.257C199.608 135.538 195.237 136.445 190.951 135.816C186.666 135.188 182.74 133.064 179.868 129.822C176.996 126.579 175.364 122.425 175.259 118.095C175.259 117.945 175.259 117.805 175.259 117.655C175.217 115.218 175.661 112.796 176.565 110.533C177.469 108.269 178.815 106.207 180.524 104.469C182.233 102.731 184.271 101.35 186.52 100.407C188.768 99.4649 191.181 98.9795 193.619 98.9795C196.057 98.9795 198.471 99.4649 200.719 100.407C202.968 101.35 205.006 102.731 206.715 104.469C208.424 106.207 209.77 108.269 210.674 110.533C211.578 112.796 212.022 115.218 211.98 117.655H211.975Z"
                fill="#CF6F80"
              />
              <path
                opacity="0.1"
                d="M196.52 157.952C189.437 155.2 180.325 146.105 182.6 141.855C183.105 140.783 183.405 139.625 183.485 138.442L193.182 146.411L199.182 151.331L203.743 139.719C204.13 142.155 204.516 144.012 204.516 144.012C204.516 144.012 203.164 145.906 202.369 146.008C201.575 146.11 206.684 161.875 196.52 157.952Z"
                fill="black"
              />
              <path
                d="M221.597 193.167L213.499 329.19L202.939 329.882L175.592 251.01L180.078 157.372L181.023 137.589L193.183 147.575L199.188 152.495L203.883 140.545L212.614 148.154L221.597 193.167Z"
                fill="#04364A"
              />
              <path
                opacity="0.1"
                d="M186.647 329.877C186.287 330.766 186.014 331.688 185.831 332.629C178.147 331.443 170.683 329.112 163.69 325.713L163.545 325.638L163.593 324.774L163.62 324.323L166.303 319.322C166.303 319.322 187.935 326.727 186.647 329.877Z"
                fill="black"
              />
              <path
                opacity="0.1"
                d="M205.701 332.65C203.737 332.984 201.755 333.21 199.766 333.326C199.648 330.643 199.578 328.798 199.578 328.798L205.545 327.596L205.701 332.65Z"
                fill="black"
              />
              <path
                opacity="0.1"
                d="M221.372 329.431C217.557 330.424 211.665 331.54 206.39 330.842L206.314 327.44L220.707 324.554C220.707 324.554 221.104 327.21 221.372 329.431Z"
                fill="black"
              />
              <path
                opacity="0.1"
                d="M206.293 331.465C184.291 335.221 164.14 324.452 164.14 324.452L164.333 320.803C164.333 320.803 164.832 279.439 163.448 276.268C162.063 273.096 160.985 257.015 161.768 254.547C162.552 252.079 158.908 215.066 158.908 215.066L158.318 200.041L136.713 191.29L146.372 171.157C147.677 168.335 148.799 165.431 149.732 162.465C151.411 157.239 159.209 152.104 159.209 152.104C159.209 152.104 167.204 146.974 170.365 147.167C173.526 147.36 177.669 142.628 177.669 142.628C180.727 134.831 183.496 138.362 183.496 138.362C183.496 138.732 183.496 138.362 183.346 139.516C182.273 148.074 200.701 175.117 200.964 175.595L202.719 218.339L204.495 272.431L206.293 331.465Z"
                fill="black"
              />
              <path
                d="M205.701 331.465C183.699 335.221 163.543 324.452 163.543 324.452L163.742 320.803C163.742 320.803 164.241 279.439 162.851 276.267C161.461 273.096 160.388 257.015 161.177 254.547C161.966 252.079 158.317 215.066 158.317 215.066L157.721 200.041L136.105 191.258L145.765 171.125C147.067 168.301 148.189 165.398 149.124 162.433C150.798 157.206 158.601 152.071 158.601 152.071C158.601 152.071 166.597 146.942 169.752 147.135C172.908 147.328 177.056 142.596 177.056 142.596C180.12 134.799 183.495 138.33 183.495 138.33C183.495 138.7 183.173 138.866 183.345 139.483C185.706 147.784 200.11 175.085 200.373 175.563L202.149 218.306L203.925 272.399L205.701 331.465Z"
                fill="white"
              />
              <path
                opacity="0.1"
                d="M199.773 176.78C197.406 175.793 184.87 161.482 184.87 161.482V158.225C184.414 157.152 181.704 157.807 179.504 158.558L180.448 138.774L181.522 139.665C183.872 147.961 199.499 176.303 199.773 176.78Z"
                fill="black"
              />
              <path
                d="M200.368 175.595C197.996 174.607 185.46 160.297 185.46 160.297V157.04C185.004 155.967 182.294 156.621 180.094 157.372L181.044 137.589L182.117 138.48C184.473 146.775 200.105 175.122 200.368 175.595Z"
                fill="white"
              />
              <path
                opacity="0.1"
                d="M164.139 246.965C164.434 246.965 179.438 245.388 179.438 245.388C179.438 245.388 188.524 263.25 187.928 267.597C187.332 271.943 186.254 275.79 182.599 275.109C178.945 274.427 162.932 275.645 162.932 275.645L164.139 246.965Z"
                fill="black"
              />
              <path
                d="M163.543 245.779C163.839 245.779 178.843 244.201 178.843 244.201C178.843 244.201 187.923 262.069 187.332 266.41C186.742 270.751 185.653 274.604 182.004 273.922C178.354 273.241 162.336 274.459 162.336 274.459L163.543 245.779Z"
                fill="white"
              />
              <path
                d="M174.852 237.393C174.852 237.393 188.622 244.792 188.917 247.051C189.212 249.31 181.908 246.064 180.331 245.672C179.292 245.422 178.235 245.257 177.17 245.178L166.646 245.463L174.852 237.393Z"
                fill="#CF6F80"
              />
              <path
                opacity="0.1"
                d="M195.929 177.703C196.73 177.703 197.378 177.055 197.378 176.254C197.378 175.454 196.73 174.806 195.929 174.806C195.129 174.806 194.48 175.454 194.48 176.254C194.48 177.055 195.129 177.703 195.929 177.703Z"
                fill="black"
              />
              <path
                d="M195.929 177.113C196.73 177.113 197.378 176.465 197.378 175.665C197.378 174.864 196.73 174.216 195.929 174.216C195.129 174.216 194.48 174.864 194.48 175.665C194.48 176.465 195.129 177.113 195.929 177.113Z"
                fill="#3F3D56"
              />
              <path
                opacity="0.1"
                d="M198.597 240.419C199.398 240.419 200.046 239.77 200.046 238.97C200.046 238.17 199.398 237.521 198.597 237.521C197.797 237.521 197.148 238.17 197.148 238.97C197.148 239.77 197.797 240.419 198.597 240.419Z"
                fill="black"
              />
              <path
                d="M198.597 239.823C199.398 239.823 200.046 239.175 200.046 238.375C200.046 237.574 199.398 236.926 198.597 236.926C197.797 236.926 197.148 237.574 197.148 238.375C197.148 239.175 197.797 239.823 198.597 239.823Z"
                fill="#3F3D56"
              />
              <path
                opacity="0.1"
                d="M197.373 209.061C198.173 209.061 198.822 208.412 198.822 207.612C198.822 206.812 198.173 206.163 197.373 206.163C196.573 206.163 195.924 206.812 195.924 207.612C195.924 208.412 196.573 209.061 197.373 209.061Z"
                fill="black"
              />
              <path
                d="M197.373 208.471C198.173 208.471 198.822 207.822 198.822 207.022C198.822 206.222 198.173 205.573 197.373 205.573C196.573 205.573 195.924 206.222 195.924 207.022C195.924 207.822 196.573 208.471 197.373 208.471Z"
                fill="#3F3D56"
              />
              <path
                d="M230.774 244.878C230.774 244.878 231.761 246.359 230.774 247.051C229.786 247.743 230.87 249.417 230.87 249.417C230.87 249.417 228.407 250.861 229.491 252.159C230.575 253.458 229.888 259.322 229.888 259.322L226.926 264.227C226.926 264.227 227.103 267.387 227.114 271.658C227.114 278.323 226.722 287.691 224.554 291.962L224.855 327.006C224.855 327.006 214.482 330.794 205.799 329.641L204.511 273.408C204.511 273.408 206.389 241.519 207.082 235.402C207.487 232.226 207.652 229.024 207.575 225.824C207.575 225.824 207.28 216.251 206.287 211.809C206.287 211.809 205.214 192.562 205.107 187.233C205.058 184.685 205.193 177.248 205.343 170.176C205.509 162.443 205.697 155.151 205.697 155.151L203.738 139.655C203.738 139.655 205.697 139.457 206.287 140.245C206.552 140.492 206.839 140.713 207.146 140.905C210.527 143.191 222.472 150.22 222.472 150.22C222.472 150.22 229.083 152.849 230.666 156.616C232.25 160.383 233.35 163.055 234.117 164.128C234.884 165.201 235.303 170.245 235.303 170.245C235.303 170.245 237.578 179.528 239.355 181.1C241.131 182.672 242.429 192.674 242.429 192.674L226.733 205.015C226.733 205.015 225.354 225.545 225.059 226.339C224.764 227.133 230.774 244.878 230.774 244.878Z"
                fill="white"
              />
              <path
                d="M231.368 244.878C231.368 244.878 232.35 246.359 231.368 247.051C230.386 247.743 231.459 249.417 231.459 249.417C231.459 249.417 229.012 250.877 230.085 252.175C231.159 253.474 230.483 259.339 230.483 259.339L227.52 264.243C227.52 264.243 227.697 267.403 227.714 271.674C227.714 278.339 227.322 287.707 225.154 291.978L225.449 327.022C225.449 327.022 215.06 330.811 206.388 329.657L205.105 273.424C205.105 273.424 206.983 241.535 207.676 235.418C208.081 232.242 208.244 229.04 208.164 225.84C208.164 225.84 207.869 216.267 206.881 211.825C206.881 211.825 205.808 192.578 205.695 187.249C205.647 184.701 205.787 177.264 205.932 170.192C206.098 162.46 206.286 155.168 206.286 155.168L203.699 139.462C203.699 139.462 206.286 139.462 206.881 140.261C207.143 140.511 207.431 140.733 207.74 140.921C211.121 143.207 223.072 150.236 223.072 150.236C223.072 150.236 229.678 152.866 231.261 156.632C232.844 160.399 233.944 163.071 234.717 164.144C235.489 165.218 235.897 170.261 235.897 170.261C235.897 170.261 238.172 179.544 239.949 181.116C241.725 182.689 243.008 192.669 243.008 192.669L227.311 205.01C227.311 205.01 225.932 225.54 225.631 226.334C225.331 227.128 231.368 244.878 231.368 244.878Z"
                fill="white"
              />
              <path
                opacity="0.1"
                d="M212.57 159.723L213.986 163.854L206.527 171.366C206.694 163.64 206.881 156.342 206.881 156.342L204.295 140.637C204.295 140.637 206.881 140.637 207.477 141.436C207.738 141.685 208.026 141.905 208.336 142.091L214.679 160.388L212.57 159.723Z"
                fill="black"
              />
              <path
                d="M211.974 158.537L213.396 162.669L205.937 170.181C206.103 162.449 206.291 155.157 206.291 155.157L203.699 139.451C203.699 139.451 206.291 139.451 206.881 140.251C207.145 140.499 207.432 140.72 207.74 140.911L214.088 159.203L211.974 158.537Z"
                fill="white"
              />
              <path
                opacity="0.1"
                d="M211.975 117.655C211.979 119.589 211.675 121.51 211.073 123.348C210.972 123.364 210.868 123.359 210.769 123.334C210.669 123.309 210.576 123.265 210.494 123.203C210.354 118.374 207.977 113.84 205.052 109.982C204.231 108.817 203.236 107.786 202.101 106.923C200.954 106.062 199.526 105.658 198.098 105.791C196.488 106.011 195.066 107.106 193.44 107.245C191.293 107.423 189.372 105.936 187.242 105.861C186.375 105.869 185.521 106.062 184.735 106.427C183.95 106.791 183.251 107.319 182.686 107.975C181.566 109.299 180.735 110.841 180.244 112.504C179.4 115.025 178.941 117.659 178.881 120.316C178.854 121.819 178.709 123.702 177.314 124.25C177.419 123.145 177.293 122.03 176.945 120.976C176.597 119.922 176.033 118.952 175.291 118.127L175.259 118.095C175.259 117.945 175.259 117.805 175.259 117.655C175.217 115.218 175.661 112.796 176.565 110.533C177.469 108.269 178.815 106.207 180.524 104.469C182.233 102.731 184.271 101.35 186.52 100.407C188.768 99.4649 191.181 98.9795 193.619 98.9795C196.057 98.9795 198.471 99.4649 200.719 100.407C202.968 101.35 205.006 102.731 206.715 104.469C208.424 106.207 209.77 108.269 210.674 110.533C211.578 112.796 212.022 115.218 211.98 117.655H211.975Z"
                fill="black"
              />
              <path
                d="M201.221 88.5032C198.433 87.1916 195.261 86.9435 192.302 87.8056C190.816 88.2456 189.415 88.9593 187.907 89.3188C184.688 90.0968 180.931 89.2544 178.168 91.1378C176.633 92.2109 175.71 93.9065 174.851 95.5538L172.705 99.6425C171.535 101.88 170.354 104.155 169.866 106.618C169.377 109.081 169.673 111.839 171.234 113.819C172.372 115.262 174.052 116.169 175.286 117.527C176.025 118.352 176.586 119.322 176.933 120.374C177.281 121.427 177.407 122.54 177.304 123.644C178.704 123.107 178.838 121.218 178.871 119.716C178.93 117.058 179.39 114.424 180.234 111.903C180.723 110.24 181.555 108.698 182.675 107.375C183.241 106.719 183.94 106.192 184.726 105.827C185.511 105.463 186.365 105.269 187.231 105.26C189.378 105.336 191.304 106.817 193.429 106.639C195.039 106.505 196.467 105.405 198.087 105.191C199.516 105.056 200.944 105.459 202.091 106.323C203.225 107.184 204.219 108.215 205.037 109.381C207.967 113.239 210.344 117.763 210.484 122.603C211.09 123.048 211.965 122.468 212.265 121.782C212.566 121.095 212.576 120.29 212.957 119.635C213.397 118.879 214.24 118.476 214.9 117.908C216.574 116.464 216.993 114.034 216.928 111.828C216.864 109.623 216.435 107.385 216.853 105.218C217.106 103.887 217.674 102.642 217.986 101.327C218.297 100.013 218.334 98.5372 217.599 97.405C216.526 95.7416 214.267 95.4143 212.297 95.2587C210.06 95.0655 208.058 95.3124 206.63 93.429C205.96 92.4461 205.206 91.5233 204.377 90.671C204.092 90.3919 201.221 88.6212 201.221 88.5032Z"
                fill="#512E4E"
              />
              <path
                opacity="0.1"
                d="M142.894 201.657L137.286 191.29L135.51 207.285C135.51 207.285 136.497 214.39 136.299 215.479C136.1 216.568 140.345 226.334 140.345 226.334C140.345 226.334 154.367 251.306 160.093 252.594L179.438 238.772L174.308 232.258C174.308 232.258 172.532 231.565 172.087 232.258C172.087 232.258 162.561 215.871 161.574 214.685C160.587 213.499 160.78 211.133 160.78 211.133C160.78 211.133 159.299 209.555 159.792 208.074C160.286 206.593 156.932 201.458 156.932 201.458L159.991 198.598L142.894 201.657Z"
                fill="black"
              />
              <path
                d="M137.582 190.109L136.1 191.29L134.324 207.285C134.324 207.285 135.312 214.389 135.113 215.479C134.915 216.568 139.165 226.334 139.165 226.334C139.165 226.334 153.181 251.306 158.907 252.594L178.258 238.772L173.123 232.257C173.123 232.257 171.346 231.565 170.901 232.257C170.901 232.257 161.376 215.87 160.388 214.685C159.401 213.499 159.6 211.132 159.6 211.132C159.6 211.132 158.118 209.555 158.612 208.074C159.106 206.593 155.747 201.458 155.747 201.458L158.805 198.598L137.582 190.109Z"
                fill="white"
              />
              <path
                opacity="0.1"
                d="M229.49 252.77C230.564 254.074 229.888 259.928 229.888 259.928L226.925 264.833C226.925 264.833 227.102 267.998 227.113 272.264L222.133 273.82C221.683 273.961 221.206 273.992 220.742 273.91C220.277 273.829 219.839 273.638 219.463 273.353C219.088 273.068 218.786 272.697 218.583 272.271C218.38 271.846 218.282 271.378 218.296 270.907L219.155 243.214L230.773 247.657C229.786 248.344 230.87 250.028 230.87 250.028C230.87 250.028 228.406 251.466 229.49 252.77Z"
                fill="black"
              />
              <path
                d="M230.086 252.175C231.159 253.479 230.483 259.338 230.483 259.338L227.52 264.243C227.52 264.243 227.698 267.403 227.714 271.674L222.643 273.257C222.202 273.394 221.735 273.424 221.28 273.344C220.826 273.264 220.397 273.076 220.029 272.797C219.662 272.518 219.366 272.155 219.167 271.738C218.969 271.322 218.872 270.864 218.886 270.403L219.75 242.624L231.374 247.067C230.381 247.754 231.465 249.433 231.465 249.433C231.465 249.433 229.012 250.877 230.086 252.175Z"
                fill="white"
              />
              <path
                d="M233.933 238.975C233.933 238.975 233.144 244.013 231.169 244.308C229.195 244.604 228.309 252.459 226.34 252.18C224.37 251.901 225.674 244.877 225.744 243.514C225.814 242.151 223.598 236.507 225.256 235.224C226.914 233.942 232.162 235.224 232.162 235.224L233.933 238.975Z"
                fill="#CF6F80"
              />
              <path
                opacity="0.1"
                d="M238.136 200.175L241.86 192.663C241.86 192.663 243.341 198.388 243.341 201.447C243.341 204.505 245.412 204.806 245.412 204.806C245.412 204.806 247.682 207.489 246.486 209.442C245.289 211.395 244.806 216.256 244.806 216.256C244.806 216.256 245.198 225.534 243.422 226.816C241.645 228.099 241.275 231.162 241.275 231.162C241.275 231.162 238.012 236.984 238.114 238.369C238.216 239.753 233.574 249.127 233.574 249.127C233.574 249.127 235.844 237.478 222.616 232.445C222.616 232.445 222.514 228.49 223.502 227.406C224.489 226.323 226.029 225.829 225.063 220.35C224.097 214.872 224.784 208.326 224.784 207.011C224.784 205.697 227.746 197.498 227.746 197.498L238.136 200.175Z"
                fill="black"
              />
              <path
                d="M239.747 191.59L242.999 192.663C242.999 192.663 244.485 198.388 244.485 201.447C244.485 204.505 246.557 204.806 246.557 204.806C246.557 204.806 248.826 207.489 247.63 209.442C246.433 211.395 245.955 216.256 245.955 216.256C245.955 216.256 246.347 225.534 244.571 226.816C242.795 228.099 242.398 231.162 242.398 231.162C242.398 231.162 239.14 236.984 239.242 238.369C239.344 239.753 234.697 249.127 234.697 249.127C234.697 249.127 236.972 237.478 223.739 232.445C223.739 232.445 223.642 228.49 224.63 227.406C225.617 226.322 227.157 225.829 226.191 220.35C225.225 214.872 225.912 208.326 225.912 207.011C225.912 205.696 228.874 197.498 228.874 197.498L239.747 191.59Z"
                fill="white"
              />
              <path
                opacity="0.1"
                d="M167.918 386.297C167.918 386.297 173.102 383.04 176.504 385.407C179.906 387.773 167.918 386.297 167.918 386.297Z"
                fill="black"
              />
              <path
                opacity="0.1"
                d="M208.197 376.226C208.197 376.226 212.785 375.636 216.638 379.784C220.492 383.931 208.197 376.226 208.197 376.226Z"
                fill="black"
              />
              <g opacity="0.1">
                <path
                  d="M214.912 116.732C214.252 117.301 213.404 117.709 212.964 118.465C212.588 119.115 212.578 119.914 212.277 120.612C211.977 121.309 211.102 121.878 210.495 121.438C210.356 116.609 207.973 112.075 205.049 108.211C204.231 107.045 203.237 106.014 202.102 105.153C200.954 104.289 199.524 103.886 198.094 104.021C196.484 104.241 195.067 105.335 193.441 105.469C191.295 105.652 189.368 104.166 187.238 104.09C186.372 104.099 185.518 104.293 184.733 104.658C183.948 105.024 183.251 105.553 182.687 106.21C181.567 107.531 180.735 109.072 180.245 110.733C179.402 113.254 178.943 115.888 178.882 118.546C178.85 120.043 178.711 121.91 177.326 122.468C177.358 122.865 177.358 123.263 177.326 123.659C178.721 123.123 178.861 121.234 178.893 119.732C178.953 117.074 179.412 114.44 180.256 111.919C180.746 110.256 181.578 108.714 182.698 107.39C183.263 106.735 183.961 106.207 184.745 105.843C185.53 105.478 186.383 105.285 187.249 105.276C189.395 105.351 191.327 106.832 193.452 106.655C195.062 106.521 196.489 105.421 198.105 105.206C199.535 105.071 200.965 105.475 202.113 106.339C203.248 107.199 204.242 108.231 205.059 109.397C207.984 113.255 210.367 117.778 210.506 122.618C211.113 123.064 211.987 122.484 212.288 121.797C212.588 121.111 212.599 120.306 212.975 119.651C213.415 118.895 214.263 118.492 214.923 117.923C216.597 116.48 217.015 114.049 216.951 111.844C216.951 111.774 216.951 111.704 216.951 111.64C216.849 113.55 216.339 115.498 214.912 116.732Z"
                  fill="black"
                />
                <path
                  d="M175.297 116.352C174.063 114.994 172.378 114.087 171.246 112.649C170.292 111.376 169.748 109.844 169.684 108.255C169.515 110.241 170.07 112.221 171.246 113.83C172.378 115.273 174.063 116.18 175.297 117.538C176.482 118.866 177.194 120.549 177.32 122.324C177.402 121.244 177.266 120.158 176.918 119.132C176.57 118.105 176.019 117.16 175.297 116.352Z"
                  fill="black"
                />
                <path
                  d="M217.997 100.152C217.681 101.467 217.117 102.717 216.86 104.042C216.707 104.928 216.651 105.828 216.693 106.725C216.711 106.214 216.767 105.705 216.86 105.201C217.117 103.871 217.681 102.626 217.997 101.311C218.182 100.586 218.242 99.835 218.174 99.0898C218.141 99.4478 218.082 99.8029 217.997 100.152Z"
                  fill="black"
                />
              </g>
              <path
                opacity="0.1"
                d="M71.2269 408.115C100.106 408.115 123.516 404.356 123.516 399.718C123.516 395.08 100.106 391.32 71.2269 391.32C42.3483 391.32 18.9375 395.08 18.9375 399.718C18.9375 404.356 42.3483 408.115 71.2269 408.115Z"
                fill="#04364A"
              />
              <path
                d="M72.9116 238.852H69.5469V314.6H72.9116V238.852Z"
                fill="#535461"
              />
              <path
                d="M94.0546 314.37L93.8453 317.783L93.5448 322.612L93.4214 324.619L93.1262 329.448L92.9974 331.454L92.6969 336.284L89.3054 391.052C89.158 393.409 88.1181 395.62 86.3974 397.237C84.6766 398.854 82.4044 399.755 80.0431 399.755H62.4094C60.0486 399.754 57.777 398.854 56.0572 397.237C54.3373 395.62 53.2986 393.408 53.1525 391.052L49.7771 336.246L49.4765 331.417L49.3531 329.41L49.0526 324.581L48.9292 322.574L48.6287 317.745L48.414 314.332C48.3767 313.676 48.474 313.018 48.7 312.4C48.926 311.782 49.2758 311.217 49.7281 310.739C50.1803 310.261 50.7254 309.881 51.33 309.621C51.9345 309.362 52.5858 309.228 53.2437 309.229H89.3107C89.9662 309.235 90.6136 309.375 91.2129 309.641C91.8121 309.906 92.3507 310.292 92.7952 310.773C93.2397 311.255 93.5808 311.823 93.7974 312.441C94.014 313.06 94.1015 313.716 94.0546 314.37Z"
                fill="#3F3D56"
              />
              <path
                d="M93.8455 317.782L93.545 322.595H48.9079L48.6074 317.782H93.8455Z"
                fill="#9D9CB5"
              />
              <path
                d="M93.4215 324.602L93.1263 329.42H49.3318L49.0312 324.602H93.4215Z"
                fill="#9D9CB5"
              />
              <path
                d="M92.9974 331.433L92.7023 336.246H49.7556L49.4551 331.433H92.9974Z"
                fill="#9D9CB5"
              />
              <path
                d="M43.4723 267.242C63.0648 281.418 71.243 303.59 71.243 303.59C71.243 303.59 47.6312 302.779 28.0334 288.603C8.43561 274.427 0.273438 252.261 0.273438 252.261C0.273438 252.261 23.8745 253.066 43.4723 267.242Z"
                fill="#04364A"
              />
              <path
                d="M0.257812 252.261C0.257812 252.261 24.7712 265.863 32.6328 277.126C40.4945 288.388 71.2435 303.59 71.2435 303.59"
                stroke="#535461"
                stroke-width="2"
                stroke-miterlimit="10"
              />
              <path
                d="M56.1207 238.685C66.7836 246.396 71.243 258.463 71.243 258.463C71.243 258.463 58.3906 258.023 47.7224 250.313C37.0541 242.602 32.6055 230.529 32.6055 230.529C32.6055 230.529 45.4524 230.969 56.1207 238.685Z"
                fill="#04364A"
              />
              <path
                d="M32.6055 230.529C32.6055 230.529 45.9461 237.934 50.2231 244.062C54.5001 250.189 71.243 258.463 71.243 258.463"
                stroke="#535461"
                stroke-width="2"
                stroke-miterlimit="10"
              />
              <path
                d="M86.7261 257.852C74.4747 271.314 71.8828 288.909 71.8828 288.909C71.8828 288.909 89.157 284.67 101.398 271.202C113.638 257.734 116.241 240.145 116.241 240.145C116.241 240.145 98.9774 244.389 86.7261 257.852Z"
                fill="#04364A"
              />
              <path
                d="M116.252 240.15C116.252 240.15 100.292 253.951 96.2352 263.459C92.1782 272.967 71.8828 288.909 71.8828 288.909"
                stroke="#535461"
                stroke-width="2"
                stroke-miterlimit="10"
              />
              <path
                d="M536.455 253.114C536.455 253.114 527.596 209.039 530.987 203.556C530.987 203.556 531.111 198.458 530.907 191.96C530.907 191.713 530.907 191.466 530.907 191.214C531.503 191.612 532.125 191.971 532.769 192.287C535.894 193.893 539.481 194.356 542.911 193.597L540.228 190.608C539.584 189.894 538.913 189.122 538.774 188.177C538.634 187.233 539.021 186.39 539.353 185.548C541.902 179.109 542.036 171.012 537.126 166.097C532.978 161.966 531.969 156.632 527.467 152.86C524.177 150.096 522.369 146.045 520.662 142.128C519.219 138.818 517.765 135.48 516.938 131.971C516.294 129.229 516.037 126.39 515.151 123.713C514.266 121.035 512.607 118.433 510.016 117.236C509.093 116.813 508.068 116.571 507.225 116.008C506.12 115.262 505.454 114.049 504.655 112.987C500.592 107.621 486.989 110.781 480.549 112.96C478.798 113.509 477.177 114.407 475.784 115.6L475.843 115.503C475.891 115.423 475.95 115.342 476.004 115.262C475.299 115.832 474.69 116.511 474.201 117.274C473.262 118.76 472.87 120.494 472.086 122.103C471.142 124.008 465.888 129.326 468.148 131.467C468.306 131.61 468.487 131.726 468.684 131.81C469.532 132.163 470.466 132.256 471.367 132.078L471.271 132.309C470.499 134.198 470.104 136.219 470.106 138.26C470.106 147.076 477.378 154.223 486.355 154.223C488.043 154.224 489.721 153.966 491.33 153.455C491.368 153.659 491.4 153.863 491.437 154.067C491.437 154.148 491.464 154.228 491.475 154.309L491.19 154.706C491.176 154.681 491.16 154.658 491.142 154.636L482.717 166.408C481.429 167.315 474.013 172.681 473.594 176.705C473.154 181.111 472.714 186.267 472.714 186.267L472.655 187.372C472.287 187.68 471.856 187.904 471.393 188.029C470.93 188.154 470.445 188.177 469.972 188.097C467.343 187.668 467.343 197.755 467.343 197.755C467.343 197.755 465.593 199.365 464.391 197.97C463.189 196.575 460.012 201.302 460.012 201.302L440.103 202.16L439.647 202.187L438.574 198.866C438.458 198.516 438.209 198.225 437.881 198.057C437.552 197.889 437.17 197.858 436.819 197.97C436.736 197.997 436.655 198.031 436.577 198.072L436.502 198.115L436.363 198.211L436.293 198.276C436.255 198.311 436.219 198.348 436.186 198.388L436.121 198.463L436.089 198.496C435.965 198.667 435.883 198.865 435.85 199.074C435.816 199.282 435.832 199.496 435.896 199.698L436.819 202.547C432.977 203.319 429.048 205.498 432.252 211.497L416.014 208.497L421.267 212.908L448.389 218.505C448.029 219.148 448.265 220.082 449.387 221.397C454.217 227.068 463.017 228.608 466.559 229.005C467.494 231.098 468.663 233.077 470.042 234.908L469.736 240.558C469.736 240.558 460.769 283.624 459.127 285.807C459.956 284.868 460.714 283.869 461.397 282.819C458.794 291.667 455.156 303.777 454.2 305.591C452.666 308.489 451.244 320.213 452.993 320.964C453.53 321.195 455.064 321.082 457.254 320.916V321.887L457.157 358.691C457.157 358.691 457.597 381.264 456.39 383.416C455.182 385.568 454.86 390.08 454.86 390.08C454.86 390.08 450.031 398.982 446.205 402.561C446.179 402.589 446.15 402.614 446.119 402.636L446.001 401.799C446.001 401.799 441.402 407.605 431.227 407.278C431.227 407.278 425.104 411.259 434.184 411.474C443.264 411.688 454.86 411.152 454.86 411.152C454.86 411.152 462.958 398.81 469.741 400.42V409.773H471.818V400.27C472.781 399.636 473.605 398.813 474.241 397.851C474.877 396.889 475.31 395.808 475.515 394.673C475.693 393.504 475.563 392.308 475.138 391.205C474.712 390.101 474.006 389.127 473.09 388.379C472.678 388.007 472.348 387.554 472.12 387.048C471.892 386.542 471.771 385.994 471.764 385.439L471.689 385.503C471.689 385.316 471.641 385.122 471.62 384.924C471.024 380.095 470.278 370.13 472.913 362.758C476.524 352.649 477.619 338.569 474.99 330.188C474.141 327.509 473.444 324.784 472.902 322.026C472.838 321.678 472.779 321.345 472.725 321.034C474.522 321.277 476.302 321.635 478.054 322.107C484.145 323.786 497.469 324.098 508.846 324.006C508.873 324.317 508.905 324.645 508.942 324.972C509.145 327.247 509.569 329.497 510.209 331.69C511.636 335.983 512.291 354.908 512.291 354.908C512.291 354.908 514.132 370.468 513.128 376.8C512.591 380.32 512.055 383.856 511.749 387.408V387.478C511.749 387.478 508.733 396.063 506.527 400.726C506.474 400.844 506.415 400.962 506.361 401.075C505.773 401.128 505.194 401.256 504.638 401.456C504.638 401.456 501.682 407.358 498.736 408.335C495.789 409.311 496.766 412.525 503.436 411.345C510.107 410.164 520.179 409.199 520.179 409.199L520.614 403.178L522.664 400.613L522.127 406.618L524.311 406.188L524.022 398.886L527.376 394.69C527.376 394.69 531.427 391.084 525.406 383.99V384.146C525.342 384.044 525.283 383.937 525.213 383.835V383.802C524.215 382.257 523.421 379.376 524.875 374.262C527.504 365.022 529.034 356.636 529.034 356.636C529.034 356.636 534.905 334.169 527.848 323.539H528.159C527.436 322.044 526.925 320.454 526.64 318.818C526.605 318.624 526.572 318.426 526.544 318.222C531.765 317.922 536.89 316.977 541.07 314.938C541.054 314.917 538.538 261.602 536.455 253.114ZM470.165 215.929V216.036L469.092 216.09L470.165 215.929ZM466.484 216.439C466.307 216.478 466.142 216.557 466.001 216.67C465.54 217.322 465.25 218.081 465.158 218.875L463.484 218.499C463.484 218.499 462.309 218.247 460.619 217.963L459.819 217.158C462.019 216.975 464.305 216.707 466.484 216.439Z"
                fill="url(#paint1_linear_109_3129)"
              />
              <path
                d="M521.881 398.961L521.242 406.564L523.383 406.135L523.061 397.888L521.881 398.961Z"
                fill="#1D2366"
              />
              <path
                d="M473.03 362.86C470.449 370.211 471.179 380.132 471.759 384.95C471.973 386.732 472.172 387.816 472.172 387.816C472.172 387.816 468.313 396.605 467.991 396.938C467.669 397.27 456.636 404.004 456.636 404.004L448.925 408.506C448.925 408.506 441.101 405.077 444.852 403.897C445.618 403.589 446.309 403.119 446.875 402.518C450.631 398.95 455.348 390.08 455.348 390.08C455.348 390.08 455.67 385.578 456.851 383.437C458.032 381.296 457.602 358.798 457.602 358.798L457.693 322.123V317.342L472.37 317.449C472.463 319.072 472.675 320.686 473.004 322.278C473.53 325.026 474.213 327.742 475.048 330.413C477.635 338.778 476.561 352.788 473.03 362.86Z"
                fill="#FFB0B1"
              />
              <path
                opacity="0.1"
                d="M472.172 387.817C472.172 387.817 468.313 396.606 467.991 396.938C467.669 397.271 456.636 404.005 456.636 404.005L448.925 408.507C448.925 408.507 441.101 405.078 444.852 403.898C445.618 403.59 446.309 403.12 446.875 402.519L447.208 404.864L449.778 404.756L471.78 384.962C471.973 386.733 472.172 387.817 472.172 387.817Z"
                fill="black"
              />
              <path
                d="M471.904 385.461L449.779 405.389L447.208 405.497L446.671 401.741C446.671 401.741 442.174 407.525 432.182 407.203C432.182 407.203 426.183 411.168 435.075 411.383C443.967 411.598 455.322 411.061 455.322 411.061C455.322 411.061 463.253 398.72 469.891 400.329V409.65H471.931V400.244C472.879 399.605 473.688 398.782 474.31 397.823C474.931 396.864 475.352 395.789 475.548 394.663C475.724 393.503 475.599 392.318 475.185 391.22C474.77 390.122 474.08 389.15 473.181 388.396C472.779 388.02 472.459 387.565 472.239 387.06C472.02 386.556 471.906 386.011 471.904 385.461Z"
                fill="#1D2366"
              />
              <path
                d="M523.92 374.321C522.492 379.419 523.271 382.289 524.247 383.829V383.861C525.5 385.763 526.371 387.89 526.812 390.123L526.898 390.606L516.831 405.282L511.368 407.428C511.368 407.428 502.583 404.428 504.188 403.57C504.59 403.361 505.218 402.245 505.937 400.705C508.084 396.063 511.046 387.499 511.046 387.499V387.43C511.357 383.894 511.851 380.368 512.398 376.859C513.38 370.544 511.577 355.042 511.577 355.042C511.577 355.042 510.933 336.192 509.538 331.905C508.908 329.725 508.49 327.49 508.288 325.23C507.998 322.547 507.934 320.336 507.934 320.336C507.934 320.336 513.719 312.287 524.322 320.98C525.17 321.673 525.916 322.483 526.539 323.384C533.864 333.804 527.966 356.759 527.966 356.759C527.966 356.759 526.49 365.108 523.92 374.321Z"
                fill="#FFB0B1"
              />
              <path
                opacity="0.1"
                d="M526.914 390.606L516.847 405.281L511.384 407.428C511.384 407.428 502.599 404.428 504.204 403.57C504.606 403.36 505.234 402.244 505.953 400.704C509.672 400.672 511.598 404.214 511.598 404.214L516.31 403.462C516.31 403.462 522.524 391.25 523.919 390.504C525.315 389.758 524.134 384.929 524.134 384.929V383.7C524.172 383.743 524.204 383.791 524.247 383.834V383.867C525.5 385.768 526.371 387.895 526.812 390.128L526.914 390.606Z"
                fill="black"
              />
              <path
                d="M511.92 404.53C511.92 404.53 509.237 399.605 504.096 401.424C504.096 401.424 501.204 407.326 498.311 408.281C495.419 409.236 496.385 412.456 502.921 411.281C509.457 410.105 519.31 409.134 519.31 409.134L519.739 403.13L526.383 394.668C526.383 394.668 530.343 391.078 524.451 384.012V385.241C524.451 385.241 525.631 390.07 524.236 390.816C522.841 391.561 516.648 403.779 516.648 403.779L511.92 404.53Z"
                fill="#1D2366"
              />
              <path
                opacity="0.1"
                d="M472.386 317.438C472.479 319.061 472.691 320.675 473.02 322.268C466.977 321.382 461.369 321.822 457.693 322.112V317.331L472.386 317.438Z"
                fill="black"
              />
              <path
                opacity="0.1"
                d="M527.134 324.72C527.134 324.72 518.548 325.139 508.309 325.225C508.019 322.542 507.955 320.331 507.955 320.331C507.955 320.331 513.74 312.283 524.344 320.975C525.192 321.668 525.938 322.478 526.56 323.379C526.726 323.836 526.918 324.284 527.134 324.72Z"
                fill="black"
              />
              <path
                d="M527.134 323.754C527.134 323.754 489.526 325.573 478.064 322.359C466.601 319.145 455.241 321.93 453.529 321.184C451.817 320.438 453.207 308.757 454.71 305.864C456.212 302.972 464.455 273.724 464.455 273.724L472.386 232.375L480.742 230.073L481.332 229.907L495.891 225.893L506.559 222.947C506.559 222.947 527.772 305.757 525.953 311.863C525.292 314.202 525.186 316.662 525.642 319.048C525.92 320.678 526.422 322.262 527.134 323.754Z"
                fill="#1D2366"
              />
              <path
                d="M444.738 204.098C444.738 204.098 437.225 212.146 442.914 216.632C448.602 221.118 452.342 217.061 452.342 217.061L444.738 204.098Z"
                fill="#C7DAF5"
              />
              <path
                opacity="0.1"
                d="M444.738 204.098C444.738 204.098 437.225 212.146 442.914 216.632C448.602 221.118 452.342 217.061 452.342 217.061L444.738 204.098Z"
                fill="black"
              />
              <path
                d="M505.437 151.181C505.437 151.181 504.557 152.018 503.232 153.252C501.343 155.017 498.547 157.598 496.068 159.761C492.633 162.749 489.8 164.944 490.814 163.071C491.828 161.199 491.635 157.936 491.131 154.883C491.093 154.679 491.061 154.475 491.023 154.277C490.606 152.035 490.052 149.82 489.365 147.645C489.365 147.645 494.914 140.476 497.984 137.648C499.127 136.575 499.926 136.135 499.974 136.881C500.028 137.884 500.779 140.1 501.713 142.451C501.74 142.526 501.767 142.596 501.799 142.671C502.422 144.28 503.125 145.933 503.742 147.36C504.686 149.55 505.437 151.181 505.437 151.181Z"
                fill="#FFB0B1"
              />
              <path
                opacity="0.1"
                d="M501.799 142.67C501.278 145.475 500.012 148.087 498.136 150.236C496.259 152.384 493.84 153.989 491.131 154.883C490.704 152.433 490.114 150.015 489.365 147.644C489.365 147.644 499.813 134.149 499.974 136.881C500.012 137.916 500.828 140.213 501.799 142.67Z"
                fill="black"
              />
              <path
                opacity="0.1"
                d="M490.09 158.489L491.442 156.584C491.442 156.584 492.338 162.046 495.633 159.637C498.928 157.228 499.089 177.768 499.089 177.768L495.552 230.637L469.998 229.108L470.722 203.561L473.615 190.683L480.768 171.962L485.024 165.776L490.09 158.489Z"
                fill="black"
              />
              <path
                d="M499.088 178.096L495.869 225.899L495.531 230.965L481.283 230.111L480.746 230.079L470.014 229.435L470.738 203.884L473.631 191.006L480.784 172.285L485.039 166.098L490.105 158.784L491.458 156.885C491.458 156.885 492.354 162.347 495.649 159.938L495.718 159.89C498.938 157.851 499.088 178.096 499.088 178.096Z"
                fill="#1D2366"
              />
              <path
                d="M473.991 186.53C473.991 186.53 472.708 189.213 470.132 188.779C467.556 188.344 467.562 198.437 467.562 198.437C467.562 198.437 465.85 200.047 464.669 198.652C463.489 197.256 460.376 201.973 460.376 201.973L440.875 202.831C440.875 202.831 449.552 206.797 447.851 218.795C447.851 218.795 477.312 216.97 478.278 214.185C479.244 211.401 473.991 186.53 473.991 186.53Z"
                fill="white"
              />
              <path
                opacity="0.03"
                d="M473.991 186.53C473.991 186.53 472.708 189.213 470.132 188.779C467.556 188.344 467.562 198.437 467.562 198.437C467.562 198.437 465.85 200.047 464.669 198.652C463.489 197.256 460.376 201.973 460.376 201.973L440.875 202.831C440.875 202.831 449.552 206.797 447.851 218.795C447.851 218.795 477.312 216.97 478.278 214.185C479.244 211.401 473.991 186.53 473.991 186.53Z"
                fill="black"
              />
              <path
                d="M417.316 209.136L422.457 213.525L464.776 222.416L459.528 217.061L417.316 209.136Z"
                fill="white"
              />
              <path
                d="M490.171 160.179C489.468 161.252 487.456 166.747 485.776 171.544C484.376 175.541 483.206 179.056 483.206 179.056C483.206 179.056 480.475 196.838 479.079 200.052C477.684 203.266 478.441 215.801 478.441 215.801L473.241 246.756C473.241 246.756 470.885 262.719 467.247 272.254C463.656 281.639 459.659 286.039 459.535 286.178C461.145 284 469.919 241.106 469.919 241.106L472.817 187.008C472.817 187.008 473.241 181.868 473.67 177.473C474.099 173.078 482.793 167.079 482.793 167.079L491.175 155.162C492.018 156.289 491.454 158.253 490.171 160.179Z"
                fill="white"
              />
              <path
                d="M468.313 229.703C468.313 229.703 455.97 229.167 449.992 221.988C444.014 214.808 463.81 219.122 463.81 219.122L468.957 220.303L468.313 229.703Z"
                fill="#FFB0B1"
              />
              <path
                opacity="0.1"
                d="M525.953 311.869C525.293 314.207 525.186 316.667 525.642 319.054C512.178 320.009 497.775 316.371 497.775 316.371C495.092 318.839 488.024 322.477 488.024 322.477L484.171 274.722C481.708 268.283 480.742 234.549 480.742 234.549C480.742 234.549 480.962 232.783 481.279 230.138C481.279 230.073 481.279 230.004 481.306 229.939C482.266 222.551 484.171 208.68 485.105 206.808C486.393 204.232 481.145 197.38 481.145 197.38L483.533 177.017L483.822 174.559C488.856 172.311 492.714 165.132 492.714 165.132L495.677 159.943C498.896 157.877 499.063 178.122 499.063 178.122L495.843 225.926L506.511 222.98C506.511 222.98 527.773 305.763 525.953 311.869Z"
                fill="black"
              />
              <path
                d="M539.772 315.169C525.095 322.456 498.419 315.706 498.419 315.706C495.736 318.174 488.669 321.812 488.669 321.812L484.81 274.056C482.353 267.618 481.387 233.883 481.387 233.883C481.387 233.883 484.488 208.712 485.776 206.142C486.152 205.391 485.97 204.275 485.524 203.073C483.334 197.352 482.529 191.194 483.174 185.103L484.204 176.351L484.488 173.899C489.527 171.645 493.386 164.466 493.386 164.466L496.069 159.766L501.006 151.105L503.346 147.006L503.743 147.365L506.775 150.113C506.775 150.113 508.063 151.186 509.995 152.796C514.196 156.337 521.457 162.572 525.203 166.387C528.498 169.746 529.539 182.812 529.839 192.647C530.038 199.124 529.92 204.2 529.92 204.2C526.598 209.667 535.286 253.565 535.286 253.565C537.309 262.048 539.772 315.169 539.772 315.169Z"
                fill="white"
              />
              <path
                opacity="0.03"
                d="M511.599 164.358C511.599 164.358 501.526 183.53 502.696 190.817C503.866 198.104 507.193 206.351 505.589 208.277C505.037 209.007 504.325 209.599 503.506 210.008C502.688 210.417 501.786 210.63 500.872 210.633C499.262 210.74 494.969 213.74 494.969 214.061C494.969 214.383 491.003 214.383 487.456 215.886C483.909 217.388 478.671 218.241 478.671 218.241C478.671 218.241 468.475 217.919 467.525 218.885C466.576 219.851 465.599 225.63 467.633 230.239C469.667 234.848 471.926 238.288 473.632 238.916C475.339 239.544 486.168 235.916 494.953 235.058C503.737 234.199 513.273 227.24 513.273 227.24C513.273 227.24 523.775 223.484 525.616 217.168C527.456 210.853 523.367 176.142 523.367 176.142C523.367 176.142 520.276 159.964 511.599 164.358Z"
                fill="black"
              />
              <path
                opacity="0.03"
                d="M510.31 162.749C510.31 162.749 500.237 181.927 501.418 189.208C502.599 196.489 505.915 204.742 504.305 206.674C503.756 207.404 503.044 207.997 502.227 208.406C501.409 208.815 500.508 209.028 499.593 209.029C497.984 209.137 493.69 212.136 493.69 212.458C493.69 212.78 489.725 212.78 486.178 214.277C482.631 215.774 477.393 216.632 477.393 216.632C477.393 216.632 467.197 216.311 466.253 217.276C465.308 218.242 464.321 224.027 466.36 228.63C468.399 233.234 470.653 236.679 472.359 237.307C474.066 237.935 484.895 234.307 493.68 233.454C502.464 232.601 512 225.631 512 225.631C512 225.631 522.497 221.875 524.316 215.565C526.135 209.255 522.068 174.533 522.068 174.533C522.068 174.533 518.987 158.36 510.31 162.749Z"
                fill="black"
              />
              <path
                d="M511.282 163.393C511.282 163.393 501.209 182.57 502.39 189.852C503.57 197.133 506.887 205.385 505.282 207.312C504.733 208.044 504.021 208.639 503.202 209.048C502.383 209.458 501.481 209.672 500.565 209.673C498.955 209.78 494.662 212.779 494.662 213.096C494.662 213.413 490.702 213.418 487.149 214.92C483.597 216.423 478.365 217.276 478.365 217.276C478.365 217.276 468.169 216.954 467.219 217.92C466.269 218.886 465.292 224.67 467.326 229.274C469.36 233.878 471.619 237.322 473.326 237.95C475.032 238.578 485.861 234.951 494.646 234.092C503.431 233.234 512.967 226.274 512.967 226.274C512.967 226.274 523.469 222.518 525.309 216.203C527.15 209.887 523.088 175.176 523.088 175.176C523.088 175.176 519.954 159.025 511.282 163.393Z"
                fill="white"
              />
              <path
                opacity="0.1"
                d="M511.061 214.83C511.061 214.83 503.011 213.22 505.813 215.903C508.614 218.586 508.598 220.936 512.027 220.828C515.456 220.721 511.061 214.83 511.061 214.83Z"
                fill="black"
              />
              <path
                opacity="0.1"
                d="M524.665 272.554C524.665 272.554 521.027 275.017 527.987 280.694C534.947 286.371 524.665 272.554 524.665 272.554Z"
                fill="black"
              />
              <path
                opacity="0.1"
                d="M517.721 292.799C517.721 293.121 516.433 304.604 521.252 307.474C526.071 310.345 517.721 292.799 517.721 292.799Z"
                fill="black"
              />
              <path
                d="M441.209 202.805C437.323 202.939 428.931 204.125 433.283 212.243C437.13 219.428 443.597 214.625 447.235 210.982C446.348 207.585 444.191 204.658 441.209 202.805Z"
                fill="#FFB0B1"
              />
              <path
                opacity="0.1"
                d="M509.994 153.123C505.872 155.94 502.416 158.317 501.74 158.81C499.894 160.179 496.374 168.211 494.104 172.311C492.296 175.611 486.419 176.458 484.203 176.668L484.488 174.215C489.527 171.962 493.385 164.782 493.385 164.782L503.345 147.322L506.774 150.44C506.774 150.44 508.062 151.513 509.994 153.123Z"
                fill="black"
              />
              <path
                d="M509.994 152.801C505.872 155.618 502.416 157.995 501.74 158.494C499.894 159.857 496.374 167.89 494.104 171.989C492.296 175.289 486.419 176.137 484.203 176.346L484.488 173.894C489.527 171.641 493.385 164.461 493.385 164.461L503.345 147.001L506.774 150.108C506.774 150.108 508.062 151.17 509.994 152.801Z"
                fill="#DCE7FF"
              />
              <path
                d="M502.062 139.129C502.064 142.35 501.087 145.496 499.26 148.149C497.103 151.286 493.893 153.546 490.212 154.518C486.531 155.491 482.623 155.112 479.197 153.45C475.772 151.788 473.055 148.954 471.541 145.461C470.027 141.968 469.815 138.048 470.945 134.412C472.074 130.776 474.469 127.666 477.695 125.645C480.922 123.624 484.766 122.826 488.531 123.397C492.295 123.967 495.73 125.868 498.213 128.755C500.695 131.641 502.061 135.322 502.062 139.129Z"
                fill="#FFB0B1"
              />
              <path
                opacity="0.1"
                d="M529.838 192.653C527.659 191.312 525.884 189.406 524.703 187.137C523.806 185.366 523.211 183.321 521.681 182.066C520.302 180.939 518.462 180.665 516.744 180.161C511.099 178.492 506.366 173.341 506.189 167.46C506.103 164.691 506.967 161.928 506.575 159.186C506.352 157.634 505.735 156.166 504.783 154.92C504.31 154.325 503.791 153.767 503.232 153.252C502.481 152.543 501.692 151.857 501.005 151.105C500.572 150.64 500.194 150.127 499.878 149.576C499.623 149.125 499.416 148.649 499.261 148.154C498.188 144.87 499.164 140.975 497.984 137.653L497.919 137.471C497.474 136.29 496.567 135.11 495.306 135.019C494.045 134.928 492.966 135.974 491.764 136.441C489.247 137.417 486.532 135.754 484.434 134.058C482.335 132.363 479.969 130.426 477.302 130.801C475.536 131.053 474.141 132.255 472.515 132.878C472.148 133.02 471.769 133.13 471.383 133.205C472.759 129.774 475.287 126.929 478.533 125.159C481.779 123.389 485.54 122.804 489.17 123.506C492.801 124.207 496.073 126.151 498.426 129.003C500.778 131.855 502.064 135.437 502.062 139.134C502.064 140.251 501.947 141.364 501.713 142.456C501.74 142.531 501.767 142.601 501.799 142.676C502.422 144.285 503.125 145.938 503.742 147.365L506.774 150.113C506.774 150.113 508.062 151.186 509.993 152.796C514.195 156.337 521.456 162.572 525.202 166.387C528.497 169.757 529.527 182.817 529.838 192.653Z"
                fill="black"
              />
              <path
                d="M472.328 123.074C473.096 121.513 473.477 119.764 474.394 118.283C475.741 116.136 478.092 114.763 480.507 113.931C486.812 111.758 500.137 108.603 504.118 113.931C504.902 115.004 505.551 116.195 506.635 116.936C507.462 117.499 508.46 117.741 509.367 118.165C511.905 119.356 513.526 121.953 514.39 124.604C515.254 127.254 515.511 130.098 516.144 132.829C516.955 136.333 518.377 139.655 519.793 142.955C521.462 146.85 523.233 150.89 526.453 153.643C530.848 157.399 531.819 162.717 535.898 166.838C540.728 171.731 540.572 179.807 538.082 186.219C537.755 187.061 537.384 187.941 537.513 188.837C537.642 189.733 538.307 190.549 538.935 191.263L541.575 194.241C535.329 195.748 528.262 192.486 525.353 186.761C524.457 184.99 523.861 182.951 522.326 181.69C520.953 180.563 519.107 180.295 517.395 179.791C511.749 178.116 507.016 172.96 506.839 167.079C506.753 164.316 507.617 161.552 507.226 158.816C507.008 157.253 506.388 155.774 505.428 154.523C503.952 152.597 501.725 151.304 500.523 149.157C498.489 145.568 500.035 140.905 498.57 137.052C498.119 135.872 497.217 134.691 495.956 134.6C494.695 134.509 493.617 135.555 492.409 136.022C489.898 136.999 487.182 135.34 485.084 133.64C482.986 131.939 480.619 130.007 477.947 130.388C476.181 130.635 474.792 131.837 473.166 132.464C471.963 132.926 469.527 133.339 468.475 132.325C466.254 130.281 471.4 124.985 472.328 123.074Z"
                fill="#591D4B"
              />
              <path
                opacity="0.1"
                d="M526.843 184.99C525.942 183.22 525.352 181.181 523.817 179.925C522.443 178.798 520.597 178.525 518.88 178.02C513.24 176.351 508.507 171.195 508.324 165.314C508.238 162.551 509.102 159.782 508.716 157.045C508.491 155.493 507.872 154.025 506.918 152.78C505.437 150.853 503.21 149.56 502.013 147.414C499.98 143.83 501.525 139.167 500.055 135.309C499.609 134.134 498.702 132.953 497.447 132.857C496.191 132.76 495.102 133.817 493.899 134.284C491.388 135.26 488.667 133.597 486.574 131.901C484.482 130.206 482.104 128.269 479.437 128.644C477.672 128.897 476.277 130.099 474.656 130.721C473.454 131.182 471.012 131.601 469.96 130.587C467.749 128.441 472.896 123.155 473.819 121.256C474.586 119.689 474.967 117.945 475.89 116.464C475.938 116.384 475.992 116.303 476.046 116.223C475.355 116.795 474.759 117.472 474.28 118.229C473.363 119.71 472.982 121.449 472.214 123.021C471.286 124.921 466.14 130.222 468.356 132.352C469.429 133.372 471.844 132.953 473.046 132.492C474.656 131.864 476.062 130.662 477.827 130.415C480.511 130.034 482.872 131.971 484.965 133.667C487.057 135.362 489.794 137.026 492.295 136.049C493.497 135.582 494.549 134.531 495.837 134.627C497.125 134.724 497.983 135.899 498.45 137.079C499.915 140.932 498.37 145.595 500.403 149.185C501.606 151.293 503.833 152.613 505.308 154.55C506.269 155.802 506.888 157.281 507.106 158.843C507.498 161.579 506.634 164.343 506.72 167.106C506.897 173.009 511.63 178.144 517.275 179.818C518.976 180.322 520.833 180.59 522.207 181.717C523.747 182.978 524.353 185.017 525.233 186.788C528.142 192.513 535.209 195.775 541.456 194.268L540.211 192.862C534.796 192.942 529.317 189.862 526.843 184.99Z"
                fill="black"
              />
              <path
                opacity="0.1"
                d="M489.848 160.5C489.145 161.573 487.133 167.068 485.453 171.865C483.881 171.253 482.453 167.352 482.453 167.352L490.835 155.43C491.694 156.61 491.13 158.569 489.848 160.5Z"
                fill="black"
              />
              <path
                d="M490.17 160.179C489.467 161.252 487.455 166.746 485.775 171.543C484.203 170.937 482.775 167.031 482.775 167.031L491.158 155.113C492.016 156.288 491.453 158.252 490.17 160.179Z"
                fill="#DCE7FF"
              />
              <path
                d="M441.433 214.995L436.786 200.341C436.731 200.17 436.71 199.989 436.725 199.81C436.741 199.63 436.791 199.455 436.874 199.295C436.956 199.135 437.07 198.993 437.208 198.877C437.346 198.761 437.505 198.673 437.677 198.619C438.023 198.511 438.397 198.544 438.719 198.711C439.04 198.878 439.283 199.165 439.394 199.51L444.041 214.148L443.58 217.211L441.433 214.995Z"
                fill="#BE8B87"
              />
              <path
                opacity="0.1"
                d="M437.226 199.054C437.572 198.944 437.948 198.976 438.271 199.143C438.594 199.31 438.838 199.598 438.948 199.944L443.596 214.582L443.247 216.879L443.585 217.233L444.046 214.169L439.372 199.531C439.261 199.186 439.019 198.899 438.697 198.732C438.375 198.566 438.001 198.533 437.655 198.641C437.364 198.735 437.113 198.924 436.941 199.177C437.033 199.128 437.128 199.087 437.226 199.054Z"
                fill="white"
              />
              <path
                d="M441.434 214.995L444.042 214.169L443.661 216.68L443.58 217.233L442.818 216.439L441.434 214.995Z"
                fill="#EFC8C4"
              />
              <path
                d="M442.818 216.439C442.864 216.381 442.92 216.334 442.985 216.299C443.022 216.275 443.066 216.263 443.111 216.263C443.155 216.263 443.199 216.275 443.237 216.299C443.273 216.343 443.304 216.392 443.328 216.444C443.364 216.503 443.412 216.554 443.47 216.592C443.527 216.63 443.592 216.655 443.661 216.664L443.58 217.201L442.818 216.439Z"
                fill="#727A9C"
              />
              <path
                d="M436.76 205.547C436.76 205.547 446.081 205.493 443.886 209.459C441.691 213.424 438.262 213.901 438.262 213.901L436.76 205.547Z"
                fill="#FFB0B1"
              />
              <path
                d="M378.788 27.5908H378.385C362.372 27.5908 348.211 36.0634 340.065 48.5656C331.918 36.0634 317.757 27.5908 301.744 27.5908H301.341C289.324 27.7053 277.837 32.5574 269.377 41.0926C260.918 49.6277 256.169 61.1563 256.162 73.173C256.162 88.0952 262.698 109.269 275.443 126.691C299.726 159.889 340.065 188.934 340.065 188.934C340.065 188.934 380.403 159.895 404.68 126.691C417.431 109.269 423.962 88.0952 423.962 73.173C423.955 61.1572 419.207 49.6295 410.748 41.0944C402.29 32.5594 390.804 27.7067 378.788 27.5908ZM373.03 129.245C371.206 129.238 369.427 128.68 367.926 127.644C366.426 126.608 365.273 125.142 364.621 123.44H355.047C354.417 123.436 353.803 123.235 353.293 122.866C352.782 122.496 352.399 121.976 352.198 121.379L349.257 112.52L339.952 145.031C339.771 145.657 339.391 146.207 338.871 146.599C338.35 146.991 337.716 147.203 337.065 147.204H336.877C336.197 147.172 335.549 146.906 335.041 146.453C334.533 146 334.196 145.386 334.086 144.715L324.497 87.0435L317.488 121.17C317.328 121.818 316.954 122.394 316.428 122.805C315.902 123.217 315.253 123.44 314.585 123.44H301.1C300.695 123.457 300.292 123.392 299.913 123.249C299.535 123.106 299.189 122.888 298.897 122.608C298.605 122.328 298.372 121.992 298.214 121.62C298.055 121.248 297.973 120.847 297.973 120.443C297.973 120.038 298.055 119.638 298.214 119.266C298.372 118.894 298.605 118.557 298.897 118.277C299.189 117.997 299.535 117.779 299.913 117.637C300.292 117.494 300.695 117.429 301.1 117.446H312.224L322.152 71.5633C322.315 70.8849 322.708 70.2842 323.265 69.8639C323.822 69.4435 324.508 69.2297 325.205 69.2588C325.902 69.288 326.567 69.5583 327.087 70.0237C327.607 70.489 327.949 71.1205 328.055 71.8101L337.848 130.64L346.187 101.553C346.361 100.94 346.728 100.4 347.234 100.013C347.74 99.6262 348.357 99.4134 348.994 99.4062H349.053C349.684 99.4064 350.298 99.6058 350.809 99.9757C351.32 100.346 351.701 100.868 351.897 101.467L357.215 117.462H364.503C365.021 115.888 365.964 114.488 367.228 113.416C368.491 112.344 370.027 111.642 371.664 111.387C373.302 111.133 374.978 111.336 376.507 111.973C378.037 112.611 379.361 113.659 380.332 115.002C381.304 116.344 381.885 117.929 382.013 119.581C382.141 121.233 381.809 122.888 381.056 124.364C380.302 125.84 379.155 127.079 377.742 127.944C376.328 128.809 374.703 129.267 373.046 129.267L373.03 129.245Z"
                fill="#04364A"
              />
            </g>
            <defs>
              <linearGradient
                id="paint0_linear_109_3129"
                x1="191.219"
                y1="415.777"
                x2="191.219"
                y2="85.6002"
                gradientUnits="userSpaceOnUse"
              >
                <stop stop-color="#808080" stop-opacity="0.25" />
                <stop offset="0.54" stop-color="#808080" stop-opacity="0.12" />
                <stop offset="1" stop-color="#808080" stop-opacity="0.1" />
              </linearGradient>
              <linearGradient
                id="paint1_linear_109_3129"
                x1="479.444"
                y1="411.602"
                x2="479.444"
                y2="110.046"
                gradientUnits="userSpaceOnUse"
              >
                <stop stop-color="#808080" stop-opacity="0.25" />
                <stop offset="0.54" stop-color="#808080" stop-opacity="0.12" />
                <stop offset="1" stop-color="#808080" stop-opacity="0.1" />
              </linearGradient>
              <clipPath id="clip0_109_3129">
                <rect width="593" height="420" fill="white" />
              </clipPath>
            </defs>
          </svg>
        