<svg width="565" height="421" viewBox="0 0 565 421" fill="none" xmlns="http://www.w3.org/2000/svg">
<path d="M565 369.961H0V370.243H565V369.961Z" fill="#EBEBEB"/>
<path d="M267.81 319.564H49.63C47.9188 319.564 46.2776 318.884 45.0676 317.674C43.8575 316.464 43.1777 314.823 43.1777 313.112V6.3958C43.1926 4.69435 43.879 3.06766 45.0874 1.86982C46.2959 0.671969 47.9285 -6.52303e-05 49.63 4.74888e-09H267.81C269.522 4.7489e-09 271.163 0.679794 272.373 1.88984C273.583 3.09988 274.263 4.74104 274.263 6.4523V313.112C274.263 314.823 273.583 316.464 272.373 317.674C271.163 318.884 269.522 319.564 267.81 319.564ZM49.63 0.226001C47.9946 0.228988 46.427 0.879977 45.2706 2.03639C44.1142 3.19281 43.4632 4.76038 43.4602 6.3958V313.112C43.4632 314.747 44.1142 316.315 45.2706 317.471C46.427 318.628 47.9946 319.279 49.63 319.281H267.81C269.446 319.279 271.013 318.628 272.17 317.471C273.326 316.315 273.977 314.747 273.98 313.112V6.3958C273.977 4.76038 273.326 3.19281 272.17 2.03639C271.013 0.879977 269.446 0.228988 267.81 0.226001H49.63Z" fill="#EBEBEB"/>
<path d="M512.239 319.564H294.036C292.326 319.561 290.687 318.88 289.477 317.671C288.268 316.461 287.587 314.822 287.584 313.112V6.3958C287.602 4.69528 288.289 3.0703 289.497 1.87308C290.705 0.675863 292.336 0.00287957 294.036 0H512.239C513.937 0.00588108 515.564 0.680542 516.767 1.87775C517.971 3.07496 518.654 4.69826 518.669 6.3958V313.112C518.669 314.819 517.992 316.457 516.787 317.666C515.582 318.876 513.947 319.558 512.239 319.564ZM294.036 0.226001C292.401 0.228988 290.833 0.879977 289.677 2.03639C288.52 3.19281 287.869 4.76038 287.866 6.3958V313.112C287.869 314.747 288.52 316.315 289.677 317.471C290.833 318.628 292.401 319.279 294.036 319.281H512.239C513.875 319.279 515.442 318.628 516.599 317.471C517.755 316.315 518.406 314.747 518.409 313.112V6.3958C518.406 4.76038 517.755 3.19281 516.599 2.03639C515.442 0.879977 513.875 0.228988 512.239 0.226001H294.036Z" fill="#EBEBEB"/>
<path d="M87.3273 380.721H57.9473V381.003H87.3273V380.721Z" fill="#EBEBEB"/>
<path d="M214.903 377.658H164.02V377.941H214.903V377.658Z" fill="#EBEBEB"/>
<path d="M157.15 391.217H88.457V391.499H157.15V391.217Z" fill="#EBEBEB"/>
<path d="M507.054 389.318H485.324V389.601H507.054V389.318Z" fill="#EBEBEB"/>
<path d="M475.255 389.318H412.777V389.601H475.255V389.318Z" fill="#EBEBEB"/>
<path d="M374.618 384.551H290.467V384.833H374.618V384.551Z" fill="#EBEBEB"/>
<path d="M191.693 271.958H130.018L126.277 228.758H187.953L191.693 271.958Z" fill="#E6E6E6"/>
<path d="M194.892 271.958H133.216L129.465 228.758H191.14L194.892 271.958Z" fill="#F0F0F0"/>
<path d="M141.644 262.68L139.588 238.035H182.709L184.765 262.68H141.644Z" fill="white"/>
<path d="M231.209 271.957H222.406V369.962H231.209V271.957Z" fill="#E6E6E6"/>
<path d="M233.979 271.957H227.865V369.962H233.979V271.957Z" fill="#F0F0F0"/>
<path d="M148.765 282.771H233.979V271.957H148.765V282.771Z" fill="#F0F0F0"/>
<path d="M151.781 282.771H142.979V369.962H151.781V282.771Z" fill="#E6E6E6"/>
<path d="M154.561 282.771H148.447V369.962H154.561V282.771Z" fill="#F0F0F0"/>
<path d="M89.1113 282.771H80.3086V369.962H89.1113V282.771Z" fill="#E6E6E6"/>
<path d="M91.8906 282.771H85.7773V369.962H91.8906V282.771Z" fill="#F0F0F0"/>
<path d="M175.488 282.771H166.686V369.962H175.488V282.771Z" fill="#E6E6E6"/>
<path d="M178.27 282.771H172.156V369.962H178.27V282.771Z" fill="#F0F0F0"/>
<path d="M148.764 271.957H80.3086V282.771H148.764V271.957Z" fill="#E6E6E6"/>
<path d="M333.62 30.9844H77.9805V177.636H333.62V30.9844Z" fill="#E6E6E6"/>
<path d="M340.446 30.9844H81.168V177.636H340.446V30.9844Z" fill="#F0F0F0"/>
<path d="M333.62 177.637H77.9805V190.338H333.62V177.637Z" fill="#E6E6E6"/>
<path d="M351.825 177.637H92.5469V190.338H351.825V177.637Z" fill="#F0F0F0"/>
<path d="M330.875 168.065V40.5449L90.7274 40.5449V168.065H330.875Z" fill="#FAFAFA"/>
<path d="M108.379 168.065L164.517 40.5449H191.027L134.877 168.065H108.379Z" fill="white"/>
<path d="M95.1678 158.551C95.0773 158.551 94.9877 158.533 94.904 158.498C94.8204 158.464 94.7444 158.413 94.6804 158.349C94.6164 158.285 94.5656 158.209 94.531 158.125C94.4963 158.042 94.4785 157.952 94.4785 157.861V46.7711C94.4999 46.605 94.5811 46.4523 94.707 46.3416C94.8328 46.231 94.9946 46.1699 95.1622 46.1699C95.3297 46.1699 95.4915 46.231 95.6174 46.3416C95.7432 46.4523 95.8244 46.605 95.8458 46.7711V157.861C95.8458 158.042 95.7748 158.216 95.6479 158.345C95.5211 158.474 95.3487 158.548 95.1678 158.551Z" fill="#F0F0F0"/>
<path d="M140.572 168.065L196.722 40.5449H207.05L150.912 168.065H140.572Z" fill="white"/>
<path d="M330.875 168.065V40.5449H329.655V168.065H330.875Z" fill="#E6E6E6"/>
<path opacity="0.6" d="M342.707 54.9741H87.0674L86.1973 44.2617H341.826L342.707 54.9741Z" fill="#EBEBEB"/>
<path opacity="0.6" d="M342.707 72.5234H87.0674L86.1973 61.8223H341.826L342.707 72.5234Z" fill="#EBEBEB"/>
<path opacity="0.6" d="M342.707 90.0839H87.0674L86.1973 79.3828H341.826L342.707 90.0839Z" fill="#EBEBEB"/>
<path opacity="0.6" d="M342.707 107.644H87.0674L86.1973 96.9316H341.826L342.707 107.644Z" fill="#EBEBEB"/>
<path opacity="0.6" d="M342.707 125.205H87.0674L86.1973 114.492H341.826L342.707 125.205Z" fill="#EBEBEB"/>
<path opacity="0.6" d="M342.707 142.754H87.0674L86.1973 132.053H341.826L342.707 142.754Z" fill="#EBEBEB"/>
<path d="M412.924 99.8125L481.764 99.8125V30.9729L412.924 30.9729V99.8125Z" fill="#EBEBEB"/>
<path d="M412.924 30.9844H409.873V99.824H412.924V30.9844Z" fill="#E0E0E0"/>
<path d="M422.258 90.4902H472.441V40.3069L422.258 40.3069V90.4902Z" fill="white"/>
<path d="M447.347 82.1902L464.143 65.3945L447.347 48.5989L430.551 65.3945L447.347 82.1902Z" fill="#F5F5F5"/>
<path d="M389.205 190.326H458.045V121.487L389.205 121.487V190.326Z" fill="#EBEBEB"/>
<path d="M389.205 121.498H386.154V190.338H389.205V121.498Z" fill="#E0E0E0"/>
<path d="M398.539 181.004H448.723V130.821H398.539V181.004Z" fill="white"/>
<path d="M420.054 166.607H427.196C431.134 166.607 434.326 163.415 434.326 159.477V152.336C434.326 148.398 431.134 145.205 427.196 145.205H420.054C416.116 145.205 412.924 148.398 412.924 152.336V159.477C412.924 163.415 416.116 166.607 420.054 166.607Z" fill="#F5F5F5"/>
<path d="M347.723 223.773H330.559V365.34H347.723V223.773Z" fill="#F0F0F0"/>
<path d="M497.765 365.34H332.943V369.962H497.765V365.34Z" fill="#F0F0F0"/>
<path d="M347.724 365.34H500.139V223.773L347.724 223.773V365.34Z" fill="#FAFAFA"/>
<path d="M470.305 306.501H377.566C373.187 306.501 368.988 304.762 365.892 301.666C362.796 298.569 361.057 294.37 361.057 289.992C361.057 285.613 362.796 281.414 365.892 278.318C368.988 275.222 373.187 273.482 377.566 273.482H470.305C474.684 273.482 478.883 275.222 481.979 278.318C485.075 281.414 486.814 285.613 486.814 289.992C486.814 294.37 485.075 298.569 481.979 301.666C478.883 304.762 474.684 306.501 470.305 306.501ZM377.566 274.59C373.481 274.59 369.564 276.213 366.675 279.101C363.787 281.989 362.164 285.907 362.164 289.992C362.164 294.077 363.787 297.994 366.675 300.883C369.564 303.771 373.481 305.394 377.566 305.394H470.305C474.39 305.394 478.307 303.771 481.196 300.883C484.084 297.994 485.707 294.077 485.707 289.992C485.707 285.907 484.084 281.989 481.196 279.101C478.307 276.213 474.39 274.59 470.305 274.59H377.566Z" fill="#F0F0F0"/>
<path d="M470.305 347.577H377.566C373.187 347.577 368.988 345.838 365.892 342.742C362.796 339.646 361.057 335.446 361.057 331.068C361.057 326.689 362.796 322.49 365.892 319.394C368.988 316.298 373.187 314.559 377.566 314.559H470.305C474.684 314.559 478.883 316.298 481.979 319.394C485.075 322.49 486.814 326.689 486.814 331.068C486.814 335.446 485.075 339.646 481.979 342.742C478.883 345.838 474.684 347.577 470.305 347.577ZM377.566 315.666C375.509 315.61 373.462 315.967 371.545 316.716C369.628 317.465 367.881 318.59 366.407 320.025C364.932 321.46 363.76 323.176 362.96 325.072C362.159 326.968 361.747 329.005 361.747 331.062C361.747 333.12 362.159 335.157 362.96 337.053C363.76 338.948 364.932 340.664 366.407 342.1C367.881 343.535 369.628 344.66 371.545 345.409C373.462 346.157 375.509 346.514 377.566 346.459H470.305C472.362 346.514 474.409 346.157 476.326 345.409C478.243 344.66 479.99 343.535 481.465 342.1C482.939 340.664 484.111 338.948 484.911 337.053C485.712 335.157 486.124 333.12 486.124 331.062C486.124 329.005 485.712 326.968 484.911 325.072C484.111 323.176 482.939 321.46 481.465 320.025C479.99 318.59 478.243 317.465 476.326 316.716C474.409 315.967 472.362 315.61 470.305 315.666H377.566Z" fill="#F0F0F0"/>
<path d="M437.931 286.432H409.941C409.037 286.414 408.177 286.044 407.543 285.4C406.91 284.756 406.554 283.889 406.551 282.986C406.554 282.082 406.91 281.216 407.543 280.571C408.177 279.927 409.037 279.557 409.941 279.539H437.931C438.844 279.542 439.719 279.906 440.365 280.552C441.01 281.198 441.374 282.072 441.377 282.986C441.374 283.899 441.01 284.774 440.365 285.419C439.719 286.065 438.844 286.429 437.931 286.432Z" fill="#EBEBEB"/>
<path d="M470.305 265.425H377.566C373.187 265.425 368.988 263.685 365.892 260.589C362.796 257.493 361.057 253.294 361.057 248.916C361.057 244.537 362.796 240.338 365.892 237.242C368.988 234.146 373.187 232.406 377.566 232.406H470.305C474.684 232.406 478.883 234.146 481.979 237.242C485.075 240.338 486.814 244.537 486.814 248.916C486.814 253.294 485.075 257.493 481.979 260.589C478.883 263.685 474.684 265.425 470.305 265.425ZM377.566 233.514C373.481 233.514 369.564 235.136 366.675 238.025C363.787 240.913 362.164 244.831 362.164 248.916C362.164 253 363.787 256.918 366.675 259.806C369.564 262.695 373.481 264.317 377.566 264.317H470.305C474.39 264.317 478.307 262.695 481.196 259.806C484.084 256.918 485.707 253 485.707 248.916C485.707 244.831 484.084 240.913 481.196 238.025C478.307 235.136 474.39 233.514 470.305 233.514H377.566Z" fill="#F0F0F0"/>
<path d="M437.931 245.358H409.941C409.037 245.34 408.177 244.97 407.543 244.326C406.91 243.681 406.554 242.815 406.551 241.911C406.565 241.017 406.927 240.163 407.56 239.531C408.192 238.898 409.046 238.536 409.941 238.521H437.931C438.834 238.524 439.701 238.881 440.345 239.514C440.989 240.148 441.36 241.008 441.377 241.911C441.374 242.825 441.01 243.7 440.365 244.345C439.719 244.991 438.844 245.355 437.931 245.358Z" fill="#EBEBEB"/>
<path d="M437.931 327.497H409.941C409.046 327.482 408.192 327.12 407.56 326.488C406.927 325.855 406.565 325.001 406.551 324.107C406.568 323.213 406.931 322.361 407.563 321.729C408.195 321.097 409.047 320.734 409.941 320.717H437.931C438.834 320.72 439.701 321.076 440.345 321.709C440.989 322.343 441.36 323.203 441.377 324.107C441.36 325.01 440.989 325.871 440.345 326.504C439.701 327.138 438.834 327.494 437.931 327.497Z" fill="#EBEBEB"/>
<path d="M503.279 216.588H347.734V223.786H503.279V216.588Z" fill="#F0F0F0"/>
<path d="M327.191 223.773H347.723V216.575H327.191V223.773Z" fill="#E6E6E6"/>
<path d="M282.5 420.993C403.503 420.993 501.596 415.266 501.596 408.202C501.596 401.137 403.503 395.41 282.5 395.41C161.497 395.41 63.4043 401.137 63.4043 408.202C63.4043 415.266 161.497 420.993 282.5 420.993Z" fill="#F5F5F5"/>
<path d="M467.413 105.35H297.1C297.1 105.35 266.42 133.6 266.42 202.281C266.42 261.346 289.687 341.429 280.952 374.211C274.364 398.946 242.419 403.195 227.107 403.783H389.217C389.217 403.783 442.531 407.003 451.266 374.211C460 341.418 436.734 261.346 436.734 202.27C436.734 133.554 467.413 105.35 467.413 105.35Z" fill="#176B87"/>
<path opacity="0.7" d="M467.413 105.35H297.1C297.1 105.35 266.42 133.6 266.42 202.281C266.42 261.346 289.687 341.429 280.952 374.211C274.364 398.946 242.419 403.195 227.107 403.783H389.217C389.217 403.783 442.531 407.003 451.266 374.211C460 341.418 436.734 261.346 436.734 202.27C436.734 133.554 467.413 105.35 467.413 105.35Z" fill="white"/>
<g opacity="0.8">
<path opacity="0.8" d="M421.085 177.782H284.875C288.728 147.566 299.113 129.983 304.842 122.299H436.182C429.741 135.746 423.662 154.063 421.085 177.782Z" fill="#176B87"/>
<path opacity="0.3" d="M419.943 193.805H283.541C283.654 191.06 283.812 188.393 284.038 185.816H420.361C420.173 188.415 420.034 191.078 419.943 193.805Z" fill="#176B87"/>
<path opacity="0.3" d="M326.311 209.818H283.495C283.42 207.264 283.379 204.751 283.371 202.281V201.84H326.198V202.269C326.198 204.767 326.232 207.286 326.311 209.818Z" fill="#176B87"/>
<path opacity="0.3" d="M420.758 225.829H284.457C284.22 223.14 284.028 220.473 283.881 217.852H420.238C420.374 220.496 420.547 223.155 420.758 225.829Z" fill="#176B87"/>
<path opacity="0.3" d="M422.26 241.819H286.073C285.756 239.145 285.463 236.482 285.191 233.83H421.492C421.684 236.519 421.967 239.186 422.26 241.819Z" fill="#176B87"/>
<path opacity="0.3" d="M424.227 257.865H288.152C287.779 255.198 287.429 252.531 287.09 249.887H423.21C423.526 252.546 423.865 255.205 424.227 257.865Z" fill="#176B87"/>
<path opacity="0.3" d="M426.475 273.876H290.411C290.02 271.209 289.643 268.55 289.281 265.898H425.333C425.706 268.554 426.09 271.198 426.475 273.876Z" fill="#176B87"/>
<path opacity="0.3" d="M428.882 289.901H292.863C292.649 288.443 292.423 286.963 292.197 285.483L291.654 281.912H427.672C428.079 284.579 428.475 287.246 428.882 289.901Z" fill="#176B87"/>
<path opacity="0.3" d="M295.237 305.913C294.861 303.277 294.484 300.617 294.107 297.936H430.103C430.498 300.602 430.905 303.258 431.289 305.913H295.237Z" fill="#176B87"/>
<path opacity="0.3" d="M297.395 321.925C297.079 319.315 296.729 316.648 296.367 313.947H409.819C410.203 316.637 410.565 319.303 410.949 321.925H297.395Z" fill="#176B87"/>
<path opacity="0.3" d="M299.066 337.948C298.848 335.342 298.599 332.679 298.32 329.959H434.508C434.813 332.694 435.096 335.36 435.333 337.948H299.066Z" fill="#176B87"/>
<path opacity="0.3" d="M299.846 353.96C299.846 351.384 299.745 348.717 299.598 345.982H371.454C371.635 348.774 371.737 351.44 371.771 353.96H299.846Z" fill="#176B87"/>
</g>
<path d="M402.279 395.139C393.635 396.709 384.877 395.512 376.187 395.139C372.02 394.869 367.837 394.979 363.69 395.466C359.622 396.009 355.576 397.071 351.474 396.709C352.83 395.981 354.106 395.114 355.282 394.122C355.335 394.07 355.372 394.006 355.392 393.935C355.412 393.865 355.412 393.79 355.394 393.719C355.376 393.648 355.339 393.584 355.288 393.531C355.236 393.479 355.172 393.441 355.102 393.421C342.344 388.901 330.728 401.128 318.015 398.28C321.62 395.613 326.693 395.557 329.767 392.054C329.824 391.993 329.862 391.918 329.877 391.836C329.891 391.754 329.882 391.67 329.85 391.593C329.817 391.517 329.763 391.451 329.695 391.404C329.626 391.358 329.545 391.332 329.462 391.331C318.094 391.105 307.359 395.5 296.059 396.506C295.517 396.506 295.517 397.399 296.059 397.354C306.964 396.404 317.416 392.235 328.411 392.144C325.123 395.082 320.106 395.184 316.761 398.145C316.709 398.197 316.672 398.262 316.652 398.334C316.633 398.405 316.632 398.48 316.651 398.551C316.669 398.623 316.705 398.689 316.756 398.742C316.807 398.796 316.871 398.835 316.942 398.856C329.756 402.393 341.417 390.167 354.073 393.941C352.754 394.977 351.316 395.853 349.791 396.551C349.719 396.594 349.662 396.657 349.626 396.732C349.59 396.808 349.576 396.892 349.587 396.974C349.598 397.057 349.632 397.135 349.687 397.198C349.741 397.261 349.812 397.308 349.892 397.331C354.062 398.032 358.141 397.139 362.255 396.483C366.86 395.823 371.522 395.641 376.165 395.941C384.945 396.359 393.759 397.546 402.483 395.941C403.059 395.862 402.833 395.037 402.279 395.139Z" fill="#176B87"/>
<path d="M171.624 147.047C172.336 147.962 173.251 149.036 174.087 150.03C174.923 151.024 175.839 152.03 176.743 153.002C178.562 154.946 180.404 156.855 182.393 158.652C186.081 162.154 190.27 165.086 194.823 167.353C195.376 167.602 195.953 167.828 196.461 168.031C196.713 168.131 196.969 168.218 197.23 168.291C197.471 168.386 197.721 168.458 197.975 168.506C199.06 168.784 200.169 168.958 201.286 169.025C203.788 169.147 206.296 169.003 208.767 168.596C211.392 168.196 213.991 167.645 216.553 166.946C219.152 166.268 221.807 165.432 224.282 164.562L226.542 169.082C221.518 172.222 216.079 174.641 210.383 176.269C207.379 177.129 204.284 177.625 201.162 177.749C199.472 177.817 197.779 177.707 196.111 177.421C195.682 177.353 195.241 177.252 194.811 177.15C194.382 177.048 193.93 176.935 193.557 176.811C192.766 176.574 191.998 176.314 191.297 176.02C185.546 173.655 180.253 170.301 175.658 166.11C173.416 164.167 171.277 162.107 169.251 159.94C168.245 158.81 167.262 157.759 166.313 156.629C165.364 155.499 164.46 154.369 163.477 153.07L171.624 147.047Z" fill="#FFB573"/>
<path d="M160.133 143.849C159.884 150.177 162.393 161.59 162.393 161.59L178.054 159.692C178.054 159.692 178.631 142.99 175.591 138.956C170.449 132.21 160.37 137.86 160.133 143.849Z" fill="#176B87"/>
<path d="M222.182 166.165L229.515 159.453L230.453 166.685C230.453 166.685 227.414 170.764 223.967 169.047L222.182 166.165Z" fill="#FFB573"/>
<path d="M233.199 159.849L236.307 163.917L230.454 166.685L229.516 159.453L233.199 159.849Z" fill="#FFB573"/>
<path d="M231.345 141.555C232.124 141.555 232.554 141.555 233.107 141.555C233.344 141.539 233.582 141.539 233.819 141.555L234.407 141.634C234.914 141.694 235.397 141.885 235.808 142.188C236.008 142.423 236.141 142.708 236.192 143.013L236.452 143.872L237.503 147.262L239.605 154.121L243.797 167.85C246.566 177.003 249.447 186.134 252.114 195.309C257.594 213.638 262.781 232.034 267.877 250.465C272.974 268.895 277.765 287.404 282.692 305.835C287.619 324.265 292.026 342.91 293.596 362.256C293.653 363.549 293.264 364.823 292.494 365.863C291.724 366.904 290.62 367.649 289.367 367.973C288.113 368.297 286.787 368.181 285.609 367.645C284.431 367.108 283.473 366.183 282.895 365.024C274.872 347.351 269.629 328.966 265.041 310.411C260.453 291.857 255.583 273.46 251.086 254.917C246.588 236.374 242.193 217.729 238.079 199.05C235.966 189.727 234.045 180.348 232.023 171.003L229.028 156.968L227.525 149.951L226.779 146.437L226.587 145.567C226.485 145.273 226.461 144.957 226.519 144.651C226.739 144.203 227.065 143.815 227.469 143.521L227.955 143.16C228.141 143.018 228.337 142.889 228.542 142.776C229.028 142.493 229.378 142.256 230.079 141.917C230.473 141.715 230.903 141.592 231.345 141.555Z" fill="#263238"/>
<path d="M292.512 365.169C292.427 364.864 292.226 364.604 291.951 364.445C291.676 364.286 291.35 364.242 291.043 364.322L288.557 364.966L286.071 365.61C285.763 365.69 285.5 365.888 285.337 366.161C285.174 366.433 285.125 366.759 285.201 367.068C286.749 374.187 285.201 379.283 286.851 385.543C288.557 392.131 295.981 395.51 295.981 395.51L295.744 392.696L296.874 395.273C296.874 395.273 301.721 388.719 300.015 382.131C298.41 375.871 294.614 372.142 292.512 365.169Z" fill="#176B87"/>
<path opacity="0.3" d="M292.512 365.169C292.427 364.864 292.226 364.604 291.951 364.445C291.676 364.286 291.35 364.242 291.043 364.322L288.557 364.966L286.071 365.61C285.763 365.69 285.5 365.888 285.337 366.161C285.174 366.433 285.125 366.759 285.201 367.068C286.749 374.187 285.201 379.283 286.851 385.543C288.557 392.131 295.981 395.51 295.981 395.51L295.744 392.696L296.874 395.273C296.874 395.273 301.721 388.719 300.015 382.131C298.41 375.871 294.614 372.142 292.512 365.169Z" fill="white"/>
<path d="M294.444 381.51C294.517 381.807 294.5 382.118 294.397 382.406C294.293 382.693 294.106 382.943 293.86 383.125C293.615 383.306 293.321 383.411 293.015 383.426C292.71 383.441 292.408 383.365 292.145 383.208C291.883 383.051 291.673 382.82 291.542 382.544C291.411 382.268 291.365 381.959 291.409 381.657C291.453 381.354 291.585 381.072 291.79 380.845C291.994 380.617 292.261 380.456 292.557 380.38C292.957 380.281 293.38 380.344 293.734 380.556C294.087 380.767 294.343 381.11 294.444 381.51Z" fill="#263238"/>
<path d="M295.834 393.035C295.789 393.049 295.742 393.053 295.696 393.048C295.65 393.042 295.605 393.027 295.565 393.004C295.525 392.981 295.489 392.949 295.462 392.912C295.434 392.875 295.415 392.832 295.404 392.786L292.602 381.995C292.59 381.95 292.587 381.904 292.593 381.858C292.599 381.813 292.614 381.769 292.637 381.729C292.66 381.689 292.691 381.654 292.727 381.626C292.764 381.598 292.806 381.577 292.85 381.566C292.895 381.552 292.942 381.548 292.988 381.553C293.034 381.558 293.079 381.573 293.119 381.596C293.16 381.62 293.195 381.651 293.222 381.689C293.25 381.726 293.269 381.769 293.28 381.814L296.082 392.606C296.094 392.65 296.097 392.697 296.091 392.742C296.085 392.788 296.07 392.832 296.047 392.872C296.024 392.912 295.993 392.947 295.957 392.975C295.92 393.003 295.878 393.023 295.834 393.035Z" fill="#263238"/>
<path d="M286.681 326.365L271.448 330.309C271.026 330.415 270.578 330.35 270.204 330.128C269.829 329.906 269.557 329.544 269.448 329.123C269.34 328.708 269.397 328.267 269.608 327.893C269.819 327.52 270.167 327.244 270.578 327.122L285.89 323.179C286.305 323.07 286.745 323.127 287.119 323.338C287.492 323.549 287.769 323.897 287.89 324.309C287.949 324.523 287.965 324.747 287.936 324.968C287.907 325.189 287.833 325.401 287.721 325.593C287.608 325.785 287.458 325.952 287.279 326.085C287.1 326.217 286.897 326.313 286.681 326.365Z" fill="#176B87"/>
<path d="M209.355 119.553C209.084 120.231 209.231 120.943 209.672 121.135C210.112 121.327 210.7 120.932 210.971 120.254C211.242 119.576 211.107 118.864 210.655 118.672C210.203 118.479 209.638 118.875 209.355 119.553Z" fill="#263238"/>
<path d="M210.451 118.648L212.27 118.886C212.27 118.886 210.914 119.778 210.451 118.648Z" fill="#263238"/>
<path d="M209.673 120.457C209.655 122.276 209.883 124.089 210.351 125.847C209.9 125.943 209.434 125.94 208.985 125.836C208.536 125.733 208.115 125.532 207.752 125.248L209.673 120.457Z" fill="#ED893E"/>
<path d="M212.09 115.418C212.02 115.405 211.954 115.373 211.898 115.328C211.492 114.956 211.005 114.683 210.476 114.53C209.947 114.378 209.389 114.349 208.847 114.446C208.736 114.474 208.619 114.458 208.52 114.401C208.421 114.344 208.348 114.251 208.316 114.141C208.288 114.03 208.304 113.913 208.361 113.814C208.418 113.715 208.511 113.642 208.621 113.61C209.3 113.476 210.001 113.502 210.668 113.686C211.335 113.87 211.95 114.208 212.463 114.672C212.504 114.712 212.536 114.76 212.557 114.812C212.579 114.865 212.59 114.921 212.59 114.977C212.59 115.034 212.579 115.09 212.557 115.143C212.536 115.195 212.504 115.243 212.463 115.283C212.417 115.334 212.359 115.374 212.294 115.397C212.229 115.421 212.159 115.428 212.09 115.418Z" fill="#263238"/>
<path d="M185.4 119.203C185.885 124.706 184.055 133.712 179.896 136.775C179.896 136.775 183.027 142.56 193.05 143.905C204.067 145.385 198.892 139.182 198.892 139.182C193.027 136.922 193.66 132.548 195.14 128.526L185.4 119.203Z" fill="#FFB573"/>
<path d="M215.424 148.572C216.294 153.702 217.367 159.025 218.486 164.211C219.085 166.799 219.684 169.398 220.384 171.941C221.085 174.483 221.786 177.026 222.565 179.523C222.995 180.755 223.379 182.009 223.831 183.207L224.509 185.015L224.667 185.455V185.591C224.69 185.66 224.716 185.728 224.746 185.794C224.979 186.197 225.36 186.493 225.808 186.619C226.702 186.938 227.64 187.117 228.588 187.15C231.013 187.217 233.438 187.02 235.82 186.563C238.317 186.111 240.95 185.501 243.402 184.823L245.47 189.399C244.224 190.141 242.942 190.82 241.628 191.433C240.33 192.069 238.999 192.635 237.639 193.128C234.794 194.239 231.809 194.954 228.769 195.253C226.983 195.415 225.183 195.293 223.435 194.891C221.196 194.38 219.18 193.164 217.684 191.422C217.297 190.954 216.949 190.455 216.644 189.93C216.486 189.67 216.362 189.399 216.226 189.139L216.011 188.631L215.13 186.653C214.554 185.331 214 184.009 213.514 182.676C212.542 180.009 211.616 177.331 210.813 174.641C210.011 171.952 209.288 169.24 208.553 166.528C207.209 161.081 206.112 155.691 205.299 150.053L215.424 148.572Z" fill="#FFB573"/>
<path d="M242.318 185.137L246.679 181.68L248.646 188.392C248.646 188.392 242.679 192.708 241.086 187.635L242.318 185.137Z" fill="#FFB573"/>
<path d="M250.624 182.866L252.183 187.77L248.646 188.392L246.691 181.68L250.624 182.866Z" fill="#FFB573"/>
<path d="M169.127 398.222L178.246 398.9L180.947 377.961L171.828 377.283L169.127 398.222Z" fill="#FFB573"/>
<path d="M110.729 371.622L118.627 376.425L131.769 360.017L123.87 355.215L110.729 371.622Z" fill="#FFB573"/>
<path d="M124.143 378.843C124.031 378.86 123.917 378.86 123.804 378.843C122.674 378.843 121.329 377.08 120.651 376.04C120.627 376.006 120.613 375.964 120.613 375.922C120.613 375.879 120.627 375.838 120.651 375.803C120.673 375.767 120.705 375.738 120.743 375.72C120.782 375.702 120.824 375.695 120.866 375.701C121.239 375.781 124.505 376.47 124.934 377.555C124.98 377.675 124.994 377.804 124.974 377.931C124.954 378.058 124.902 378.178 124.821 378.278C124.67 378.541 124.429 378.741 124.143 378.843ZM121.318 376.278C122.279 377.634 123.194 378.436 123.815 378.447C123.951 378.449 124.084 378.414 124.201 378.346C124.319 378.279 124.416 378.181 124.482 378.063C124.512 378.016 124.528 377.961 124.528 377.905C124.528 377.849 124.512 377.794 124.482 377.747C124.301 377.17 122.618 376.594 121.318 376.289V376.278Z" fill="#176B87"/>
<path d="M123.655 376.018C122.716 376.273 121.734 376.323 120.774 376.165C120.738 376.153 120.706 376.132 120.68 376.104C120.655 376.077 120.636 376.043 120.627 376.007C120.609 375.976 120.6 375.941 120.6 375.905C120.6 375.869 120.609 375.834 120.627 375.803C120.695 375.724 122.491 373.882 123.813 373.939C123.984 373.941 124.152 373.982 124.305 374.058C124.457 374.134 124.591 374.244 124.695 374.379C124.817 374.5 124.895 374.658 124.916 374.829C124.936 374.999 124.898 375.171 124.808 375.317C124.509 375.669 124.105 375.914 123.655 376.018ZM121.282 375.815C122.412 375.939 124.152 375.611 124.503 375.091C124.503 375.001 124.593 374.877 124.412 374.651C124.346 374.564 124.26 374.493 124.162 374.444C124.064 374.396 123.957 374.369 123.847 374.368C122.863 374.573 121.967 375.078 121.282 375.815Z" fill="#176B87"/>
<path d="M121.001 374.663L113.509 367.453C113.385 367.326 113.219 367.249 113.041 367.236C112.864 367.224 112.689 367.277 112.548 367.385L106.152 372.312C105.998 372.449 105.875 372.617 105.79 372.805C105.706 372.993 105.662 373.197 105.662 373.403C105.662 373.609 105.706 373.812 105.79 374C105.875 374.188 105.998 374.356 106.152 374.493C108.808 376.968 110.209 378.03 113.497 381.205C115.531 383.16 118.289 386.211 121.091 388.912C123.893 391.613 126.628 389.059 125.701 387.691C121.52 381.567 122.142 379.273 121.769 376.143C121.689 375.576 121.418 375.054 121.001 374.663Z" fill="#263238"/>
<path d="M182.202 399.194C181.237 399.176 180.276 399.066 179.332 398.866C179.288 398.858 179.248 398.835 179.218 398.803C179.188 398.771 179.168 398.73 179.162 398.686C179.156 398.641 179.164 398.596 179.184 398.555C179.204 398.515 179.236 398.482 179.275 398.46C179.693 398.245 183.4 396.38 184.484 397.013C184.589 397.067 184.676 397.147 184.738 397.247C184.8 397.347 184.833 397.461 184.835 397.578C184.858 397.774 184.832 397.973 184.759 398.157C184.686 398.34 184.568 398.503 184.417 398.629C183.763 399.062 182.983 399.261 182.202 399.194ZM180.055 398.561C182.066 398.889 183.569 398.81 184.134 398.313C184.234 398.228 184.311 398.119 184.358 397.997C184.405 397.874 184.422 397.742 184.405 397.612C184.409 397.566 184.399 397.521 184.376 397.481C184.354 397.441 184.321 397.408 184.281 397.386C183.671 397.047 181.58 397.838 180.055 398.561Z" fill="#176B87"/>
<path d="M179.377 398.889C179.337 398.901 179.294 398.901 179.253 398.889C179.22 398.868 179.194 398.837 179.178 398.801C179.162 398.765 179.156 398.725 179.163 398.686C179.163 398.528 179.603 394.799 181.649 394.799H181.818C182.417 394.855 182.587 395.149 182.621 395.398C182.79 396.426 180.575 398.404 179.468 398.901L179.377 398.889ZM181.637 395.194C180.327 395.194 179.807 397.364 179.649 398.291C180.779 397.613 182.282 396.031 182.18 395.443C182.18 395.386 182.18 395.24 181.762 395.206L181.637 395.194Z" fill="#176B87"/>
<path d="M178.812 397.602H168.563C168.386 397.601 168.214 397.663 168.077 397.777C167.941 397.891 167.849 398.049 167.817 398.223L166.439 406.325C166.411 406.528 166.428 406.735 166.487 406.931C166.546 407.127 166.646 407.308 166.781 407.462C166.916 407.616 167.082 407.74 167.269 407.824C167.455 407.909 167.658 407.953 167.863 407.952C171.433 407.952 173.162 407.681 177.671 407.681C180.439 407.681 186.169 407.964 189.999 407.964C193.83 407.964 194.135 404.178 192.542 403.839C185.434 402.302 182.677 400.178 180.326 398.189C179.907 397.82 179.371 397.612 178.812 397.602Z" fill="#263238"/>
<path opacity="0.2" d="M180.948 377.962L179.445 389.601L170.428 388.086L171.829 377.295L180.948 377.962Z" fill="black"/>
<path opacity="0.2" d="M123.859 355.215L131.769 360.029L126.322 366.809L118.254 362.21L123.859 355.215Z" fill="black"/>
<path d="M164.529 191.715L201.446 196.676C215.752 144.899 211.537 143.509 211.537 143.509C209.91 142.734 208.229 142.077 206.508 141.543C204.768 140.91 203.009 140.334 201.231 139.814C197.68 138.76 194.069 137.919 190.417 137.294C183.33 136.076 176.126 135.67 168.947 136.085C168.227 136.136 167.529 136.348 166.903 136.706C166.276 137.064 165.739 137.559 165.331 138.153C165.177 138.374 165.045 138.608 164.936 138.854C164.534 139.714 164.377 140.668 164.483 141.611C167.602 168.821 166.597 177.771 164.529 191.715Z" fill="#176B87"/>
<path opacity="0.2" d="M205.039 159.329C204.312 164.686 205.001 170.141 207.039 175.149C209.491 165.046 210.824 158.199 211.48 153.453C208.666 153.328 205.739 154.413 205.039 159.329Z" fill="black"/>
<path d="M211.209 143.328C217.537 146.944 221.932 155.565 223.255 160.571L209.785 172.888C209.785 172.888 202.802 156.65 203.367 151.61C203.932 146.571 208.824 141.96 211.209 143.328Z" fill="#176B87"/>
<path d="M187.401 107.847C184.564 116.413 183.186 119.972 185.672 126.074C189.423 135.261 200.531 137.205 205.865 129.735C210.667 123.012 214.498 110.13 207.661 103.282C206.225 101.754 204.414 100.627 202.409 100.013C200.404 99.3989 198.273 99.3183 196.227 99.7793C194.182 100.24 192.291 101.227 190.743 102.642C189.195 104.057 188.043 105.851 187.401 107.847Z" fill="#FFB573"/>
<path d="M201.445 115.44C200.849 117.011 200.754 118.728 201.173 120.355C201.738 122.615 203.433 122.807 204.484 121.35C205.535 119.892 206.247 117.259 205.117 115.361C203.987 113.462 202.179 113.711 201.445 115.44Z" fill="#FFB573"/>
<path d="M190.472 97.1791C184.37 93.7891 173.386 103.711 170.629 119.903C168.652 131.497 193.41 137.102 209.049 136.921C208.01 134.187 201.512 125.96 205.659 118.039C208.676 112.287 212.111 113.621 212.337 106.931C212.62 98.5012 201.456 92.8512 190.472 97.1791Z" fill="#263238"/>
<path d="M204.36 100.819C211.457 100.129 218.587 107.102 213.299 114.051C212.007 113.015 210.503 112.276 208.894 111.885C207.285 111.495 205.61 111.463 203.987 111.791C200.744 112.514 204.36 100.819 204.36 100.819Z" fill="#263238"/>
<path d="M191.704 195.365C191.704 195.365 177.41 255.956 170.63 290.771C163.556 327.496 129.645 365.758 129.645 365.758L118.164 359.339C118.164 359.339 139.498 324.422 146.414 290.127C160.471 220.519 150.934 206.507 164.494 191.727L191.704 195.365Z" fill="#263238"/>
<path d="M130.82 366.831L116.436 358.819L118.537 354.57L134.674 361.994L130.82 366.831Z" fill="#176B87"/>
<path opacity="0.2" d="M184.077 208.53C172.935 218.214 174.144 252.6 175.308 268.036C179.986 246.023 185.602 221.525 188.868 207.344C187.727 206.462 186.134 206.79 184.077 208.53Z" fill="black"/>
<path d="M200.904 196.698C200.904 196.698 207.356 268.645 203.831 296.081C200.169 324.625 181.547 386.718 181.547 386.718L168.371 385.023C168.371 385.023 179.061 323.484 180.959 295.234C183.027 264.418 173.84 193.07 173.84 193.07L200.904 196.698Z" fill="#263238"/>
<path d="M184.337 387.477L165.602 385.059L165.884 379.521L186.224 381.488L184.337 387.477Z" fill="#176B87"/>
<path d="M164.2 189.49L162.189 192.552C162.031 192.789 162.313 193.083 162.731 193.14L201.457 198.338C201.796 198.338 202.089 198.259 202.123 198.055L202.813 194.823C202.813 194.597 202.587 194.36 202.225 194.315L164.833 189.298C164.72 189.274 164.603 189.279 164.492 189.313C164.382 189.346 164.281 189.407 164.2 189.49Z" fill="#176B87"/>
<path opacity="0.5" d="M164.2 189.49L162.189 192.552C162.031 192.789 162.313 193.083 162.731 193.14L201.457 198.338C201.796 198.338 202.089 198.259 202.123 198.055L202.813 194.823C202.813 194.597 202.587 194.36 202.225 194.315L164.833 189.298C164.72 189.274 164.603 189.279 164.492 189.313C164.382 189.346 164.281 189.407 164.2 189.49Z" fill="black"/>
<path d="M168.787 194.36L167.782 194.224C167.578 194.224 167.443 194.077 167.465 193.953L168.392 189.75C168.392 189.637 168.607 189.557 168.799 189.58L169.804 189.716C170.008 189.716 170.143 189.863 170.121 189.987L169.194 194.19C169.172 194.258 168.98 194.36 168.787 194.36Z" fill="#263238"/>
<path d="M194.078 197.749L193.073 197.613C192.881 197.613 192.734 197.466 192.756 197.342L193.683 193.138C193.683 193.014 193.898 192.935 194.101 192.969L195.095 193.093C195.299 193.093 195.434 193.251 195.412 193.376L194.485 197.568C194.463 197.749 194.27 197.749 194.078 197.749Z" fill="#263238"/>
</svg>
